<svg width="32" height="32" viewBox="0 0 32 32" fill="none" xmlns="http://www.w3.org/2000/svg">
<path d="M14.9328 2.13428C10.9441 2.13428 7.19419 3.68759 4.37369 6.50797C1.55331 9.32846 0 13.0784 0 17.0671C0 21.0558 1.55331 24.8058 4.37369 27.6262C7.19419 30.4467 10.9441 32 14.9328 32C18.9215 32 22.6715 30.4467 25.4919 27.6263C28.3124 24.8058 29.8656 21.0558 29.8656 17.0672C29.8656 13.0785 28.3123 9.32853 25.4919 6.50809C22.6715 3.68759 18.9216 2.13428 14.9328 2.13428ZM14.9328 30.125C7.73275 30.125 1.875 24.2672 1.875 17.0671C1.875 9.86703 7.73275 4.00928 14.9328 4.00928C22.1329 4.00928 27.9907 9.86703 27.9907 17.0671C27.9907 24.2672 22.1329 30.125 14.9328 30.125Z" fill="#6C8FF7"/>
<path d="M14.9026 19.9478C13.2616 19.9478 11.9266 21.2828 11.9266 22.9237V23.6953C11.9266 25.3362 13.2616 26.6712 14.9026 26.6712C16.5435 26.6712 17.8786 25.3362 17.8786 23.6953V22.9237C17.8786 21.2828 16.5436 19.9478 14.9026 19.9478ZM16.0036 23.6953C16.0036 24.3023 15.5097 24.7962 14.9026 24.7962C14.2955 24.7962 13.8016 24.3023 13.8016 23.6953V22.9237C13.8016 22.3166 14.2955 21.8228 14.9026 21.8228C15.5096 21.8228 16.0036 22.3166 16.0036 22.9237V23.6953Z" fill="#6C8FF7"/>
<path d="M19.6522 16.7785C18.8226 16.7785 18.1477 16.1036 18.1477 15.274H16.2727C16.2727 17.1375 17.7888 18.6535 19.6522 18.6535C21.5156 18.6535 23.0317 17.1375 23.0317 15.274H21.1567C21.1566 16.1036 20.4818 16.7785 19.6522 16.7785Z" fill="#6C8FF7"/>
<path d="M13.593 15.274H11.718C11.718 16.1036 11.0431 16.7785 10.2135 16.7785C9.38387 16.7785 8.709 16.1036 8.709 15.274H6.834C6.834 17.1375 8.35006 18.6535 10.2135 18.6535C12.0769 18.6535 13.593 17.1375 13.593 15.274Z" fill="#6C8FF7"/>
<path d="M18.5351 8.78137H20.538L18.419 10.9892V12.9288H23.0748V11.0538H20.9559L23.0748 8.846V6.90637H18.5351V8.78137Z" fill="#6C8FF7"/>
<path d="M32 0H27.4603V1.875H29.4632L27.3442 4.08281V6.02244H32V4.14744H29.881L32 1.93963V0Z" fill="#6C8FF7"/>
</svg>
