<svg width="32" height="32" viewBox="0 0 32 32" fill="none" xmlns="http://www.w3.org/2000/svg">
<path d="M2.90909 16C2.90909 16.3858 2.75584 16.7557 2.48306 17.0285C2.21028 17.3013 1.84031 17.4545 1.45455 17.4545C1.06878 17.4545 0.698806 17.3013 0.426026 17.0285C0.153246 16.7557 0 16.3858 0 16C0 11.7565 1.68571 7.68688 4.68629 4.6863C7.68687 1.68571 11.7565 4.64282e-06 16 4.64282e-06C19.7251 -0.00285011 23.3314 1.31086 26.1818 3.70909V3.15637C26.1818 2.7706 26.3351 2.40063 26.6078 2.12785C26.8806 1.85507 27.2506 1.70182 27.6364 1.70182C28.0221 1.70182 28.3921 1.85507 28.6649 2.12785C28.9377 2.40063 29.0909 2.7706 29.0909 3.15637V7.27273C29.0909 7.6585 28.9377 8.02847 28.6649 8.30125C28.3921 8.57403 28.0221 8.72727 27.6364 8.72727H23.52C23.1342 8.72727 22.7643 8.57403 22.4915 8.30125C22.2187 8.02847 22.0655 7.6585 22.0655 7.27273C22.0655 6.88696 22.2187 6.51699 22.4915 6.24421C22.7643 5.97143 23.1342 5.81818 23.52 5.81818H24.2036C21.891 3.9232 18.9898 2.89439 16 2.90909C12.5281 2.90909 9.19835 4.28831 6.74333 6.74333C4.28831 9.19835 2.90909 12.5281 2.90909 16ZM30.5454 14.5455C30.1597 14.5455 29.7897 14.6987 29.5169 14.9715C29.2441 15.2443 29.0909 15.6142 29.0909 16C29.0909 19.4719 27.7117 22.8016 25.2567 25.2567C22.8016 27.7117 19.4719 29.0909 16 29.0909C13.0206 29.0964 10.1315 28.0683 7.82545 26.1818H8.48C8.86577 26.1818 9.23574 26.0286 9.50852 25.7558C9.7813 25.483 9.93454 25.113 9.93454 24.7273C9.93454 24.3415 9.7813 23.9715 9.50852 23.6988C9.23574 23.426 8.86577 23.2727 8.48 23.2727H4.36364C3.97787 23.2727 3.6079 23.426 3.33512 23.6988C3.06234 23.9715 2.90909 24.3415 2.90909 24.7273V28.8436C2.90909 29.2294 3.06234 29.5994 3.33512 29.8722C3.6079 30.1449 3.97787 30.2982 4.36364 30.2982C4.7494 30.2982 5.11937 30.1449 5.39215 29.8722C5.66493 29.5994 5.81818 29.2294 5.81818 28.8436V28.2909C8.66861 30.6891 12.2749 32.0028 16 32C20.2435 32 24.3131 30.3143 27.3137 27.3137C30.3143 24.3131 32 20.2435 32 16C32 15.6142 31.8467 15.2443 31.574 14.9715C31.3012 14.6987 30.9312 14.5455 30.5454 14.5455ZM20.9018 11.6364L14.9964 17.4545L12.5527 14.9673C12.2802 14.6964 11.9115 14.5443 11.5273 14.5443C11.143 14.5443 10.7743 14.6964 10.5018 14.9673C10.3655 15.1025 10.2573 15.2634 10.1834 15.4406C10.1096 15.6179 10.0716 15.808 10.0716 16C10.0716 16.192 10.1096 16.3821 10.1834 16.5594C10.2573 16.7366 10.3655 16.8975 10.5018 17.0327L13.9636 20.4218C14.2369 20.6852 14.6023 20.8314 14.9818 20.8291C15.3613 20.8314 15.7267 20.6852 16 20.4218L22.9236 13.6291C23.0986 13.3487 23.1729 13.017 23.1341 12.6887C23.0954 12.3605 22.9461 12.0552 22.7106 11.8232C22.4752 11.5911 22.1678 11.4462 21.839 11.4122C21.5102 11.3783 21.1797 11.4573 20.9018 11.6364Z" fill="#6C8FF7"/>
</svg>
