<svg width="33" height="32" viewBox="0 0 33 32" fill="none" xmlns="http://www.w3.org/2000/svg">
<path d="M16.0006 31.9998C15.0108 31.9985 14.0619 31.6048 13.362 30.9049C12.6621 30.205 12.2684 29.2561 12.2671 28.2663V25.4273C10.6614 24.79 9.24504 23.7532 8.15248 22.4149C7.05992 21.0767 6.32735 19.4816 6.02427 17.7808C5.72118 16.0801 5.85762 14.33 6.42065 12.6968C6.98368 11.0636 7.95463 9.60124 9.2414 8.44855C10.3457 7.4608 11.6531 6.72713 13.0715 6.2992C14.4899 5.87128 15.9849 5.75949 17.4512 5.97173C18.9175 6.18396 20.3195 6.71505 21.5583 7.5276C22.7972 8.34015 23.8429 9.4144 24.6218 10.6747C25.4007 11.935 25.8938 13.3508 26.0665 14.8223C26.2391 16.2937 26.0871 17.7852 25.6212 19.1916C25.1552 20.598 24.3866 21.8851 23.3694 22.9624C22.3523 24.0396 21.1114 24.8808 19.734 25.4268V28.2663C19.7328 29.2561 19.339 30.205 18.6391 30.9049C17.9392 31.6048 16.9904 31.9985 16.0006 31.9998ZM15.9904 7.99893C14.0243 7.99316 12.1265 8.71989 10.667 10.0374C9.61115 10.9831 8.82524 12.1921 8.38964 13.541C7.95405 14.8899 7.88437 16.3302 8.18775 17.7149C8.49112 19.0995 9.15666 20.3787 10.1164 21.4219C11.0761 22.4651 12.2955 23.2348 13.6501 23.6523C13.8676 23.7198 14.0578 23.8552 14.1928 24.0386C14.3278 24.222 14.4006 24.4438 14.4005 24.6715V28.2663C14.4005 28.6907 14.5691 29.0977 14.8692 29.3977C15.1692 29.6978 15.5762 29.8664 16.0006 29.8664C16.4249 29.8664 16.8319 29.6978 17.132 29.3977C17.4321 29.0977 17.6006 28.6907 17.6006 28.2663V24.6715C17.6007 24.4435 17.6738 24.2215 17.8092 24.0381C17.9446 23.8546 18.1353 23.7194 18.3532 23.6523C20.1574 23.0932 21.7065 21.9156 22.7278 20.3267C23.7491 18.7378 24.177 16.8395 23.9363 14.9661C23.7017 13.197 22.8839 11.5567 21.6124 10.3045C20.3409 9.05233 18.6883 8.2598 16.9158 8.05226C16.6086 8.01734 16.2996 7.99953 15.9904 7.99893Z" fill="#6C8FF7"/>
<path d="M18.6673 27.7336H13.3338C13.0509 27.7336 12.7796 27.6212 12.5795 27.4212C12.3795 27.2212 12.2671 26.9498 12.2671 26.6669C12.2671 26.384 12.3795 26.1127 12.5795 25.9126C12.7796 25.7126 13.0509 25.6002 13.3338 25.6002H18.6673C18.9502 25.6002 19.2215 25.7126 19.4216 25.9126C19.6216 26.1127 19.734 26.384 19.734 26.6669C19.734 26.9498 19.6216 27.2212 19.4216 27.4212C19.2215 27.6212 18.9502 27.7336 18.6673 27.7336Z" fill="#6C8FF7"/>
<path d="M16.0006 4.26682C15.7177 4.26682 15.4464 4.15443 15.2463 3.95439C15.0463 3.75434 14.9339 3.48302 14.9339 3.20011V1.0667C14.9339 0.783797 15.0463 0.512477 15.2463 0.312431C15.4464 0.112385 15.7177 0 16.0006 0C16.2835 0 16.5548 0.112385 16.7549 0.312431C16.9549 0.512477 17.0673 0.783797 17.0673 1.0667V3.20011C17.0673 3.48302 16.9549 3.75434 16.7549 3.95439C16.5548 4.15443 16.2835 4.26682 16.0006 4.26682Z" fill="#6C8FF7"/>
<path d="M6.94904 8.0179C6.80894 8.01805 6.6702 7.99051 6.54078 7.93688C6.41136 7.88324 6.2938 7.80456 6.19488 7.70536L4.68656 6.19704C4.49225 5.99586 4.38473 5.7264 4.38716 5.44672C4.38959 5.16703 4.50178 4.89949 4.69955 4.70171C4.89733 4.50394 5.16487 4.39175 5.44456 4.38932C5.72425 4.38689 5.9937 4.49441 6.19488 4.68872L7.7032 6.19704C7.85234 6.34622 7.95389 6.53627 7.99503 6.74316C8.03617 6.95005 8.01505 7.16449 7.93433 7.35938C7.85362 7.55427 7.71693 7.72085 7.54155 7.83806C7.36617 7.95527 7.15998 8.01786 6.94904 8.0179Z" fill="#6C8FF7"/>
<path d="M3.20011 17.0657H1.0667C0.783797 17.0657 0.512477 16.9533 0.312431 16.7532C0.112385 16.5532 0 16.2819 0 15.999C0 15.716 0.112385 15.4447 0.312431 15.2447C0.512477 15.0446 0.783797 14.9323 1.0667 14.9323H3.20011C3.48302 14.9323 3.75434 15.0446 3.95439 15.2447C4.15443 15.4447 4.26682 15.716 4.26682 15.999C4.26682 16.2819 4.15443 16.5532 3.95439 16.7532C3.75434 16.9533 3.48302 17.0657 3.20011 17.0657Z" fill="#6C8FF7"/>
<path d="M5.44017 27.6273C5.22923 27.6272 5.02304 27.5646 4.84766 27.4474C4.67229 27.3302 4.5356 27.1636 4.45488 26.9688C4.37416 26.7739 4.35304 26.5594 4.39418 26.3525C4.43532 26.1456 4.53688 25.9556 4.68601 25.8064L6.19433 24.2981C6.39552 24.1038 6.66497 23.9963 6.94465 23.9987C7.22434 24.0011 7.49188 24.1133 7.68966 24.3111C7.88743 24.5089 7.99962 24.7764 8.00205 25.0561C8.00448 25.3358 7.89696 25.6052 7.70265 25.8064L6.19433 27.3147C6.09548 27.414 5.97794 27.4928 5.8485 27.5464C5.71907 27.6001 5.58029 27.6275 5.44017 27.6273Z" fill="#6C8FF7"/>
<path d="M26.5609 27.6273C26.4208 27.6275 26.282 27.6001 26.1526 27.5464C26.0232 27.4928 25.9056 27.414 25.8068 27.3147L24.2985 25.8064C24.1042 25.6052 23.9966 25.3358 23.9991 25.0561C24.0015 24.7764 24.1137 24.5089 24.3115 24.3111C24.5092 24.1133 24.7768 24.0011 25.0565 23.9987C25.3361 23.9963 25.6056 24.1038 25.8068 24.2981L27.3151 25.8064C27.4642 25.9556 27.5658 26.1456 27.6069 26.3525C27.6481 26.5594 27.627 26.7739 27.5462 26.9688C27.4655 27.1636 27.3288 27.3302 27.1535 27.4474C26.9781 27.5646 26.7719 27.6272 26.5609 27.6273Z" fill="#6C8FF7"/>
<path d="M30.9344 17.0657H28.801C28.5181 17.0657 28.2468 16.9533 28.0468 16.7532C27.8467 16.5532 27.7343 16.2819 27.7343 15.999C27.7343 15.716 27.8467 15.4447 28.0468 15.2447C28.2468 15.0446 28.5181 14.9323 28.801 14.9323H30.9344C31.2174 14.9323 31.4887 15.0446 31.6887 15.2447C31.8888 15.4447 32.0011 15.716 32.0011 15.999C32.0011 16.2819 31.8888 16.5532 31.6887 16.7532C31.4887 16.9533 31.2174 17.0657 30.9344 17.0657Z" fill="#6C8FF7"/>
<path d="M25.0521 8.01678C24.8411 8.01673 24.6349 7.95415 24.4596 7.83693C24.2842 7.71972 24.1475 7.55314 24.0668 7.35825C23.9861 7.16336 23.9649 6.94892 24.0061 6.74203C24.0472 6.53514 24.1488 6.34509 24.2979 6.19591L25.8062 4.68759C25.9046 4.58571 26.0223 4.50445 26.1525 4.44854C26.2826 4.39264 26.4226 4.36321 26.5642 4.36198C26.7059 4.36075 26.8463 4.38774 26.9774 4.44137C27.1085 4.49501 27.2276 4.57421 27.3278 4.67437C27.4279 4.77452 27.5071 4.89362 27.5608 5.02472C27.6144 5.15581 27.6414 5.29628 27.6402 5.43791C27.6389 5.57955 27.6095 5.71952 27.5536 5.84966C27.4977 5.97981 27.4164 6.09751 27.3146 6.19591L25.8062 7.70423C25.7073 7.80343 25.5898 7.88211 25.4603 7.93575C25.3309 7.98938 25.1922 8.01692 25.0521 8.01678Z" fill="#6C8FF7"/>
<path d="M14.4005 19.733C14.2604 19.7332 14.1216 19.7057 13.9922 19.652C13.8628 19.5984 13.7452 19.5197 13.6463 19.4204L11.5129 17.287C11.3186 17.0858 11.2111 16.8164 11.2135 16.5367C11.216 16.257 11.3282 15.9895 11.5259 15.7917C11.7237 15.5939 11.9913 15.4817 12.2709 15.4793C12.5506 15.4769 12.8201 15.5844 13.0213 15.7787L14.4005 17.1579L18.4465 13.1119C18.6477 12.9176 18.9172 12.8101 19.1968 12.8125C19.4765 12.815 19.7441 12.9272 19.9418 13.1249C20.1396 13.3227 20.2518 13.5902 20.2542 13.8699C20.2567 14.1496 20.1491 14.4191 19.9548 14.6203L15.1547 19.4204C15.0558 19.5197 14.9382 19.5984 14.8088 19.652C14.6794 19.7057 14.5406 19.7332 14.4005 19.733Z" fill="#6C8FF7"/>
</svg>
