<svg width="32" height="32" viewBox="0 0 32 32" fill="none" xmlns="http://www.w3.org/2000/svg">
<path d="M4.2 0C1.884 0 0 1.884 0 4.2C0 6.51601 1.884 8.40001 4.2 8.40001C6.51601 8.40001 8.40001 6.51601 8.40001 4.2C8.40001 1.884 6.51601 0 4.2 0ZM4.2 6C3.20763 6 2.4 5.19238 2.4 4.2C2.4 3.20763 3.20763 2.4 4.2 2.4C5.19238 2.4 6 3.20763 6 4.2C6 5.19238 5.19238 6 4.2 6Z" fill="#6C8FF7"/>
<path d="M27.8 0C25.484 0 23.6 1.884 23.6 4.2C23.6 6.51601 25.484 8.40001 27.8 8.40001C30.116 8.40001 32 6.51601 32 4.2C32 1.884 30.116 0 27.8 0ZM27.8 6C26.8076 6 26 5.19238 26 4.2C26 3.20763 26.8076 2.4 27.8 2.4C28.7924 2.4 29.6 3.20763 29.6 4.2C29.6 5.19238 28.7924 6 27.8 6Z" fill="#6C8FF7"/>
<path d="M15.8 0C13.484 0 11.6 1.884 11.6 4.2C11.6 6.51601 13.484 8.40001 15.8 8.40001C18.116 8.40001 20 6.51601 20 4.2C20 1.884 18.116 0 15.8 0ZM15.8 6C14.8076 6 14 5.19238 14 4.2C14 3.20763 14.8076 2.4 15.8 2.4C16.7924 2.4 17.6 3.20763 17.6 4.2C17.6 5.19238 16.7924 6 15.8 6Z" fill="#6C8FF7"/>
<path d="M4.2 11.6007C1.884 11.6007 0 13.4847 0 15.8007C0 18.1167 1.884 20.0007 4.2 20.0007C6.51601 20.0007 8.40001 18.1167 8.40001 15.8007C8.40001 13.4847 6.51601 11.6007 4.2 11.6007ZM4.2 17.6007C3.20763 17.6007 2.4 16.7931 2.4 15.8007C2.4 14.8083 3.20763 14.0007 4.2 14.0007C5.19238 14.0007 6 14.8083 6 15.8007C6 16.7931 5.19238 17.6007 4.2 17.6007Z" fill="#6C8FF7"/>
<path d="M27.8 11.6007C25.484 11.6007 23.6 13.4847 23.6 15.8007C23.6 18.1167 25.484 20.0007 27.8 20.0007C30.116 20.0007 32 18.1167 32 15.8007C32 13.4847 30.116 11.6007 27.8 11.6007ZM27.8 17.6007C26.8076 17.6007 26 16.7931 26 15.8007C26 14.8083 26.8076 14.0007 27.8 14.0007C28.7924 14.0007 29.6 14.8083 29.6 15.8007C29.6 16.7931 28.7924 17.6007 27.8 17.6007Z" fill="#6C8FF7"/>
<path d="M15.7999 11.6007C13.4839 11.6007 11.5999 13.4847 11.5999 15.8007C11.5999 18.1167 13.4839 20.0007 15.7999 20.0007C18.116 20.0007 20 18.1167 20 15.8007C20 13.4847 18.116 11.6007 15.7999 11.6007ZM15.7999 17.6007C14.8076 17.6007 13.9999 16.7931 13.9999 15.8007C13.9999 14.8083 14.8076 14.0007 15.7999 14.0007C16.7923 14.0007 17.5999 14.8083 17.5999 15.8007C17.5999 16.7931 16.7923 17.6007 15.7999 17.6007Z" fill="#6C8FF7"/>
<path d="M4.2 23.6008C1.884 23.6008 0 25.4848 0 27.8008C0 30.1168 1.884 32.0008 4.2 32.0008C6.51601 32.0008 8.40001 30.1168 8.40001 27.8008C8.40001 25.4848 6.51601 23.6008 4.2 23.6008ZM4.2 29.6008C3.20763 29.6008 2.4 28.7931 2.4 27.8008C2.4 26.8084 3.20763 26.0008 4.2 26.0008C5.19238 26.0008 6 26.8084 6 27.8008C6 28.7931 5.19238 29.6008 4.2 29.6008Z" fill="#6C8FF7"/>
<path d="M27.8 23.6008C25.484 23.6008 23.6 25.4848 23.6 27.8008C23.6 30.1168 25.484 32.0008 27.8 32.0008C30.116 32.0008 32 30.1168 32 27.8008C32 25.4848 30.116 23.6008 27.8 23.6008ZM27.8 29.6008C26.8076 29.6008 26 28.7931 26 27.8008C26 26.8084 26.8076 26.0008 27.8 26.0008C28.7924 26.0008 29.6 26.8084 29.6 27.8008C29.6 28.7931 28.7924 29.6008 27.8 29.6008Z" fill="#6C8FF7"/>
<path d="M15.7999 23.6008C13.4839 23.6008 11.5999 25.4848 11.5999 27.8008C11.5999 30.1168 13.4839 32.0008 15.7999 32.0008C18.116 32.0008 20 30.1168 20 27.8008C20 25.4848 18.116 23.6008 15.7999 23.6008ZM15.7999 29.6008C14.8076 29.6008 13.9999 28.7931 13.9999 27.8008C13.9999 26.8084 14.8076 26.0008 15.7999 26.0008C16.7923 26.0008 17.5999 26.8084 17.5999 27.8008C17.5999 28.7931 16.7923 29.6008 15.7999 29.6008Z" fill="#6C8FF7"/>
<path d="M18.7309 5.15341L17.0293 6.84589L24.5092 14.3661L26.2108 12.6736L18.7309 5.15341Z" fill="#6C8FF7"/>
<path d="M29.2 18.7986H26.8V24.7986H29.2V18.7986Z" fill="#6C8FF7"/>
<path d="M5.20003 7.60071H2.80003V12.8007H5.20003V7.60071Z" fill="#6C8FF7"/>
<path d="M6.32677 17.8714L4.63004 19.5681L12.3487 27.2867L14.0454 25.59L6.32677 17.8714Z" fill="#6C8FF7"/>
<path d="M17.2001 18.7986H14.8001V24.7986H17.2001V18.7986Z" fill="#6C8FF7"/>
</svg>
