<svg width="121" height="23" viewBox="0 0 121 23" fill="none" xmlns="http://www.w3.org/2000/svg">
<g clip-path="url(#clip0_971_3767)">
<path d="M34.6392 9.26214C33.3394 9.42212 32.5195 9.80205 31.9796 10.3419C31.5397 10.7818 31.3197 11.3218 31.3197 11.8617C31.3197 12.8415 32.0196 13.5414 32.8995 13.5414C33.4394 13.5414 33.9793 13.3214 34.2592 13.0015C34.3592 12.9015 34.4792 12.6815 34.4792 12.4616L34.6392 9.26214ZM36.8588 15.0611C35.779 15.0611 34.7992 14.3613 34.5192 13.2814C33.9793 14.2613 32.9395 15.0611 31.5997 15.0611C30.0799 15.0611 28.7802 13.8613 28.7802 12.3616C28.7802 10.2419 30.7798 8.72223 34.5792 8.68224V8.14233C34.6392 6.62258 33.7593 5.70274 32.2396 5.70274C31.1598 5.70274 30.0199 6.40262 29.2601 7.32247C29.2001 7.38246 28.8801 7.04251 28.8801 7.00252C29.86 5.04285 31.6397 3.96303 33.4794 3.96303C35.599 3.96303 37.1188 5.48278 37.0588 8.02235L36.8988 12.2416C36.8988 13.2214 37.3387 13.6414 37.8186 13.6414C38.3586 13.6414 38.7385 13.2014 38.9585 12.6215C38.9585 12.5616 39.2784 12.7215 39.2784 12.7815C39.2984 14.2413 38.2186 15.0611 36.8588 15.0611ZM50.3566 14.6812H47.477C47.417 14.6812 47.417 14.1413 47.477 14.1413C48.6768 13.9813 48.8368 13.8613 48.8368 11.5417V8.28231C48.8368 6.82255 47.977 5.78272 46.7172 5.78272C45.8573 5.78272 45.0374 6.22265 44.6575 6.76256C44.3776 7.08251 44.2176 7.6824 44.2176 8.44228V11.5217C44.2176 13.8613 44.4975 13.9613 45.6773 14.1213C45.6773 14.1213 45.7373 14.6612 45.6773 14.6612H40.1783C40.1183 14.6612 40.1183 14.1213 40.1183 14.1213C41.418 13.9013 41.578 13.8413 41.578 11.5217V7.56243C41.578 5.18282 41.2981 5.06284 39.8983 4.86288C39.7983 4.86288 39.8383 4.32297 39.8983 4.32297H44.0176V6.70257H44.0776C44.9974 4.96286 46.4172 3.94303 48.1369 3.94303C50.0966 3.94303 51.5963 5.46278 51.5963 7.96236V11.4817C51.5963 13.8213 51.8163 13.9213 53.1161 14.0813C53.2161 14.0813 53.1761 14.6212 53.1161 14.6212C52.3162 14.6812 51.1164 14.6812 50.3566 14.6812ZM59.0751 15.0611C55.8156 15.0611 53.716 12.5216 53.716 9.58209C53.716 6.44261 55.8356 3.94303 59.2951 3.94303C60.9148 3.94303 61.7347 4.48294 62.2146 4.48294C62.4345 4.48294 62.6545 4.32297 62.7545 4.04301C62.7545 3.98302 63.4144 3.98302 63.4144 4.04301V7.94236C63.4144 8.00235 62.7545 8.00235 62.7545 7.94236C61.8946 6.16266 60.6948 4.64291 59.2951 4.64291C57.5554 4.64291 56.5355 6.48261 56.5355 9.02219C56.5355 11.7217 57.9353 13.5214 59.895 13.5214C61.1947 13.5214 62.6545 12.6015 63.2544 11.5617C63.3144 11.4617 63.7343 11.6617 63.7343 11.7817C63.0344 13.6414 61.1947 15.0611 59.0751 15.0611ZM72.2529 8.18232V7.42245C72.2529 5.74273 71.433 4.76289 70.4132 4.76289C69.1134 4.76289 68.1336 6.16266 67.9136 8.18232H72.2529ZM67.9136 9.42212C67.9136 11.7617 69.2134 13.5414 71.433 13.5414C72.7328 13.5414 74.0326 12.6815 74.7325 11.5817C74.7325 11.5217 75.1724 11.6817 75.1724 11.8017C74.5725 13.6414 72.6328 15.0611 70.4532 15.0611C67.0338 15.0611 65.0341 12.5616 65.0341 9.58209C65.0341 6.60259 67.1538 3.94303 70.7332 3.94303C73.4327 3.94303 75.2324 5.72273 75.3924 8.16233V8.9222H68.0136C67.9136 9.04218 67.9136 9.32214 67.9136 9.42212ZM80.8115 15.0611C79.1318 15.0611 77.672 14.6212 77.1721 14.3013C77.1121 14.2413 76.9521 12.8415 76.9521 11.4217C76.9521 11.3618 77.612 11.3218 77.612 11.4217C78.4719 13.3214 79.7317 14.4012 81.0714 14.4012C82.2112 14.4012 83.0311 13.8013 83.0311 12.8815C83.0311 11.8017 81.7313 11.3018 80.4315 10.7219C78.8518 10.122 77.0721 9.32213 77.0721 7.30247C77.0721 5.72273 78.4319 4.103 80.9714 4.103C82.0513 4.103 82.7511 4.54293 83.2511 4.54293C83.471 4.54293 83.691 4.38296 83.851 4.103C83.851 4.04301 84.5109 4.04301 84.5109 4.103V7.68241C84.5109 7.7424 83.851 7.7424 83.851 7.68241C82.9911 6.06268 81.9513 4.92287 80.7115 4.92287C79.5717 4.92287 79.0318 5.68274 79.0318 6.28264C79.0318 7.36246 80.2716 7.80238 81.5713 8.34229C83.1511 9.00218 84.9908 9.80205 84.9908 11.8617C84.9908 13.6014 83.3511 15.0611 80.8115 15.0611ZM86.1706 5.46278C86.0106 5.46278 85.9506 5.02285 86.1106 4.92287C87.2504 3.90304 89.1501 2.16333 90.1699 1.08351C90.2299 1.02352 90.6098 1.08351 90.6098 1.18349V4.38296H94.2892C94.3892 4.38296 94.3892 5.40279 94.2892 5.40279H90.6098V11.4217C90.6098 12.7815 91.4297 13.3814 92.2896 13.3814C92.9495 13.3814 93.6493 12.8415 93.9693 12.1816C93.9693 12.1216 94.4092 12.3416 94.4092 12.4016C93.9693 13.8613 92.5695 15.0011 90.9898 15.0011C89.3101 15.0011 87.9503 13.9213 87.9503 11.8017V5.46278H86.1706ZM103.308 7.20249C102.988 7.20249 102.168 6.22265 101.568 6.22265C101.288 6.22265 100.968 6.38262 100.708 6.66258C100.268 7.1025 99.8883 8.12233 99.8883 9.00219V11.6017C99.8883 13.9813 100.268 14.0413 101.508 14.2013C101.508 14.2013 101.568 14.7412 101.508 14.7412H95.769C95.709 14.7412 95.709 14.2013 95.769 14.2013C97.0688 13.9813 97.2287 13.9213 97.2287 11.6017V7.64241C97.2287 5.3028 96.9488 5.14283 95.549 4.94286C95.449 4.94286 95.489 4.40295 95.549 4.40295H99.7283V7.1025H99.8283C99.9283 6.78256 100.148 6.40262 100.308 6.02268C101.068 4.78289 101.988 4.02302 102.968 4.02302C103.888 4.02302 104.648 4.7229 104.648 5.48277C104.708 6.34263 103.568 7.20249 103.308 7.20249ZM114.526 8.60225L110.987 17.6607C109.747 20.8602 108.607 21.5001 107.087 21.5001C106.227 21.5001 105.247 21.0601 105.247 20.8002C105.188 20.3603 105.787 18.8005 106.107 18.8005C106.207 18.8005 107.507 19.4004 108.167 19.4004C109.087 19.4004 109.687 18.8005 110.167 17.5007L110.827 15.761C110.607 14.9012 108.007 9.20215 107.687 8.44228C107.027 6.92253 106.607 5.74273 106.167 5.3028C105.887 5.02285 105.627 4.92287 104.868 4.82288C104.808 4.82288 104.808 4.28297 104.868 4.28297C105.567 4.28297 107.027 4.34296 107.847 4.34296C108.667 4.34296 110.067 4.28297 110.767 4.28297C110.827 4.28297 110.827 4.82288 110.767 4.82288C109.147 5.04285 109.307 5.58275 110.167 7.74239L112.066 12.3416L113.586 8.38229C114.126 7.02252 114.406 6.22265 114.406 5.72273C114.406 5.12283 114.026 4.90287 112.886 4.86288C112.826 4.86288 112.826 4.26298 112.886 4.26298C113.646 4.26298 114.626 4.32297 115.266 4.32297C115.746 4.32297 116.246 4.26298 117.166 4.26298C117.225 4.26298 117.265 4.86288 117.166 4.86288C116.566 4.92287 116.306 5.08284 115.966 5.40279C115.546 5.84271 115.226 6.72257 114.526 8.60225Z" fill="#9CA0AC"/>
<path d="M16.4822 3.68292C14.5825 1.62327 12.6828 1.94321 12.3629 2.0032C12.5229 2.06319 12.6828 5.6426 14.7025 7.52228C16.0623 8.76208 18.8218 8.34214 18.8218 8.34214C18.8218 8.34214 18.3419 5.68259 16.4822 3.68292ZM18.7618 10.6617C18.1619 10.6617 15.7223 10.8817 14.1026 12.8814C12.4229 15.001 12.4829 16.6807 12.1029 17.0607C12.4229 17.1607 15.8423 17.5006 17.3021 15.281C18.7018 13.2213 18.7618 11.0017 18.7618 10.6617ZM3.92433 9.202C4.30427 9.26199 5.60405 10.9417 7.94366 11.1617C10.4832 11.4416 11.3631 10.1418 11.403 10.1418C11.403 9.98186 9.34343 7.76224 7.06381 7.76224C5.48407 7.80223 3.92433 9.202 3.92433 9.202ZM13.1828 10.3418C13.1228 10.4018 11.0231 13.2213 6.02398 12.4614C2.00465 11.8015 0.5449 9.58193 0.284943 9.54194C0.60489 9.10201 3.64438 6.66242 7.16379 6.72241C10.6232 6.8224 13.1828 8.78207 13.1828 8.78207H15.4024C13.6227 8.24216 11.443 7.26233 10.4632 5.10269C9.60339 3.10302 9.76336 1.90322 9.38342 0.223494C9.38342 0.223494 13.4027 -0.0964514 16.4822 1.90322C19.3017 3.74291 20.8615 8.6221 20.9215 8.78207H22.6612L22.2812 0.103516L24.4409 0.163503C24.0609 2.44313 24.5409 18.7004 24.4409 18.7004C24.2209 18.7604 22.3812 18.8604 22.2212 18.4204C22.2212 18.4204 22.6612 10.4618 22.7012 10.3018H21.0214C21.0214 10.4018 20.8615 14.901 17.442 17.3006C14.0226 19.6802 9.10347 18.9803 9.10347 18.9803C9.70337 18.0605 9.10347 17.0807 10.8431 14.4211C12.8428 11.3816 15.5024 10.3018 15.4424 10.3018C15.3024 10.3418 13.2427 10.3418 13.1828 10.3418Z" fill="#9CA0AC"/>
<path d="M119.285 5.28254C119.445 5.28254 119.545 5.22255 119.545 5.08258C119.545 4.9626 119.485 4.88261 119.285 4.88261H119.125V5.28254H119.285ZM118.965 4.74263H119.325C119.525 4.74263 119.725 4.82262 119.725 5.08258C119.725 5.22255 119.645 5.34253 119.525 5.38253L119.785 5.84245H119.585L119.385 5.44252H119.145V5.84245H118.985V4.74263H118.965ZM120.105 5.30254C120.105 4.80262 119.745 4.42269 119.305 4.42269C118.865 4.42269 118.505 4.80262 118.505 5.30254C118.505 5.80246 118.865 6.16239 119.305 6.16239C119.745 6.16239 120.105 5.80246 120.105 5.30254ZM118.365 5.30254C118.365 4.68264 118.805 4.28271 119.325 4.28271C119.845 4.28271 120.285 4.68264 120.285 5.30254C120.285 5.90244 119.865 6.32237 119.325 6.32237C118.805 6.30237 118.365 5.90244 118.365 5.30254Z" fill="#9CA0AC"/>
</g>
<defs>
<clipPath id="clip0_971_3767">
<rect width="120" height="22" fill="white" transform="translate(0.284943 0.103516)"/>
</clipPath>
</defs>
</svg>
