<svg width="7" height="12" viewBox="0 0 7 12" fill="none" xmlns="http://www.w3.org/2000/svg">
<path d="M3.79938 5.6718L0.386381 2.2788C0.298608 2.19162 0.228949 2.08794 0.181413 1.97372C0.133878 1.85951 0.109406 1.73702 0.109406 1.6133C0.109406 1.48959 0.133878 1.3671 0.181413 1.25288C0.228949 1.13867 0.298608 1.03498 0.386381 0.947803C0.564652 0.771197 0.805442 0.672119 1.05638 0.672119C1.30732 0.672119 1.54811 0.771197 1.72638 0.947803L5.84738 5.0438C6.19738 5.3908 6.19738 5.9538 5.84738 6.2998L1.72738 10.3958C1.54911 10.5724 1.30832 10.6715 1.05738 10.6715C0.806442 10.6715 0.565652 10.5724 0.387381 10.3958C0.299608 10.3086 0.229949 10.2049 0.182413 10.0907C0.134878 9.97651 0.110406 9.85402 0.110406 9.7303C0.110406 9.60659 0.134878 9.4841 0.182413 9.36988C0.229949 9.25567 0.299608 9.15198 0.387381 9.0648L3.79938 5.6718Z" fill="#3B4C99"/>
</svg>
