<svg width="17" height="17" viewBox="0 0 17 17" fill="none" xmlns="http://www.w3.org/2000/svg">
<g clip-path="url(#clip0_971_2760)">
<path d="M16 12.4343H2.5V2.93433C2.5 2.65808 2.27625 2.43433 2 2.43433H1C0.72375 2.43433 0.5 2.65808 0.5 2.93433V13.4343C0.5 13.9865 0.947812 14.4343 1.5 14.4343H16C16.2762 14.4343 16.5 14.2106 16.5 13.9343V12.9343C16.5 12.6581 16.2762 12.4343 16 12.4343ZM15 3.43433H11.3106C10.6425 3.43433 10.3078 4.24214 10.7803 4.71464L11.7928 5.72714L9.5 8.02026L7.20719 5.72745C6.81656 5.33683 6.18344 5.33683 5.79313 5.72745L3.64656 7.87401C3.45125 8.06933 3.45125 8.38589 3.64656 8.5812L4.35344 9.28808C4.54875 9.48339 4.86531 9.48339 5.06063 9.28808L6.5 7.84839L8.79281 10.1412C9.18344 10.5318 9.81656 10.5318 10.2069 10.1412L13.2069 7.1412L14.2194 8.1537C14.6919 8.6262 15.4997 8.29151 15.4997 7.62339V3.93433C15.5 3.65808 15.2762 3.43433 15 3.43433Z" fill="#682EE6"/>
</g>
<defs>
<clipPath id="clip0_971_2760">
<rect width="16" height="16" fill="white" transform="translate(0.5 0.434326)"/>
</clipPath>
</defs>
</svg>
