<svg width="71" height="34" viewBox="0 0 71 34" fill="none" xmlns="http://www.w3.org/2000/svg">
<path d="M32.7297 5.54488L32.7301 5.54563C32.7807 5.63273 35.8407 10.9212 39.0794 16.5195L38.6586 16.7629L39.0794 16.5195C42.1653 21.854 45.3563 27.3693 45.4244 27.487C45.4943 27.6055 45.6435 27.694 45.7993 27.694C46.0426 27.694 46.2433 27.4946 46.2433 27.2477V6.95935C46.2433 5.42906 47.4842 4.18209 49.0145 4.18209C49.9929 4.18209 50.9067 4.70108 51.3985 5.54371M32.7297 5.54488L23.0268 23.9662C23.6635 23.965 24.1008 23.4568 24.0987 22.8736H24.5987V22.8731V6.84977C24.5987 3.786 27.0773 1.30225 30.1307 1.30225C32.082 1.30225 33.9141 2.35085 34.8767 4.00035L34.8768 4.00064C34.9933 4.19982 36.8552 7.41164 38.6892 10.5758L41.1956 14.9001L42.0164 16.3163L42.2458 16.7122L42.3062 16.8164L42.3217 16.8431L42.3256 16.8498L42.3266 16.8515L42.3268 16.852C42.3269 16.8521 42.3269 16.8521 42.7595 16.6014L42.3269 16.8521L43.2595 18.4613V16.6014V6.84977C43.2595 3.786 45.738 1.30225 48.7915 1.30225C50.7428 1.30225 52.5749 2.35085 53.5375 4.00035L53.5375 4.00041C53.6539 4.19974 55.5159 7.41178 57.3499 10.5758L59.8564 14.9001L60.6771 16.3163L60.9066 16.7122L60.967 16.8164L60.9825 16.8431L60.9864 16.8498L60.9874 16.8515L60.9876 16.852C60.9877 16.8521 60.9877 16.8521 61.4203 16.6014L60.9877 16.8521L61.9203 18.4612V16.6014V1.44417H64.9035V27.2477C64.9035 27.495 64.7029 27.694 64.4601 27.694C64.3043 27.694 64.155 27.6055 64.0852 27.487C64.0597 27.4428 63.7237 26.8616 63.1787 25.9189C62.0012 23.8824 59.8485 20.1589 57.745 16.5199L57.3121 16.7701L57.7449 16.5199L57.544 16.1723C54.3867 10.711 51.4549 5.63983 51.3985 5.54371M32.7297 5.54488C32.2378 4.70163 31.3236 4.18209 30.3447 4.18209C28.8151 4.18209 27.5735 5.42898 27.5735 6.95935V26.8336C27.5735 26.9456 27.5146 27.1094 27.383 27.25C27.2559 27.3859 27.0997 27.4591 26.9467 27.4591H16.8411C11.1527 27.4591 6.522 22.8189 6.522 17.1137C6.522 11.4085 11.1527 6.76836 16.8411 6.76836H21.5293M32.7297 5.54488L21.5293 6.76836M51.3985 5.54371C51.3984 5.54362 51.3984 5.54354 51.3983 5.54345L50.9673 5.79682L51.3992 5.54502C51.399 5.54458 51.3987 5.54415 51.3985 5.54371ZM21.5293 6.76836V9.76128V6.76836ZM53.9693 3.74834C54.1655 4.08443 59.2815 12.9111 60.9203 15.7387L53.9693 3.74834ZM53.9693 3.74834C52.9157 1.94291 50.9179 0.802246 48.7915 0.802246C45.4607 0.802246 42.7595 3.51112 42.7595 6.84977V15.6043L53.9693 3.74834Z" fill="#9CA0AC" stroke="#9CA0AC"/>
<path d="M16.846 1.44385H21.5293V4.43707H16.8413C9.8663 4.43707 4.19422 10.1244 4.19422 17.1134C4.19422 24.103 9.8663 29.7901 16.8413 29.7901H26.9469C28.5309 29.7901 29.9012 28.4178 29.9012 26.8336V6.95902C29.9012 6.71215 30.1017 6.51303 30.3446 6.51303C30.5004 6.51303 30.65 6.60187 30.7198 6.72085C30.7569 6.78458 32.082 9.07498 33.8426 12.1181C34.8299 13.8245 35.9541 15.7677 37.0648 17.6876C40.3035 23.2861 43.3636 28.5746 43.4142 28.6617L43.4148 28.6628C43.9072 29.5053 44.8205 30.0249 45.7996 30.0249C47.3294 30.0249 48.571 28.7784 48.571 27.2477V6.95902C48.571 6.71215 48.7715 6.51303 49.0144 6.51303C49.1709 6.51303 49.3206 6.60245 49.3895 6.72059L49.3906 6.72252L49.3914 6.72387L49.394 6.72833L49.403 6.74383L49.4347 6.79847L49.5494 6.99666L49.9667 7.7183L51.4194 10.2309L51.9668 11.1779C53.072 13.0897 54.4106 15.4052 55.7302 17.6875C58.9663 23.2856 62.0243 28.5745 62.075 28.6617L62.0754 28.6625C62.5674 29.5054 63.4815 30.0249 64.4604 30.0249C65.9906 30.0249 67.2315 28.7783 67.2315 27.2477V1.44385H70.2151V27.3576C70.2151 30.4211 67.7368 32.9048 64.6834 32.9048C62.7321 32.9048 60.9 31.8562 59.9371 30.2069C59.8207 30.0076 57.9587 26.7955 56.1247 23.6314L53.6182 19.3069L52.7974 17.8908L52.568 17.4949L52.5076 17.3907L52.4921 17.364L52.4882 17.3572L52.4872 17.3555L52.4869 17.3551C52.4869 17.355 52.4869 17.3549 52.0543 17.6056L52.4869 17.3549L51.5543 15.7458V17.6056V27.3576C51.5543 30.4211 49.0763 32.9048 46.0226 32.9048C44.0713 32.9048 42.2392 31.8562 41.2766 30.2069L41.2763 30.2065C41.1857 30.0516 39.3238 26.8399 37.4832 23.6645L34.9646 19.3194L34.1387 17.8944L33.9077 17.4958L33.8469 17.3909L33.8313 17.364L33.8274 17.3572L33.8264 17.3555L33.8261 17.3551C33.8261 17.355 33.8261 17.3549 33.3935 17.6056L33.8261 17.3549L32.8935 15.7459V17.6056V26.8286V26.8292C32.896 28.8231 32.3075 30.2964 31.3208 31.2713C30.3328 32.2475 28.8842 32.7845 27.0487 32.7836H27.0484H16.846C8.21454 32.7836 1.21506 25.7691 1.21506 17.1134C1.21506 8.45806 8.21452 1.44385 16.846 1.44385Z" fill="#9CA0AC" stroke="#9CA0AC"/>
<path d="M4.69434 17.1139C4.69434 23.8282 10.1434 29.2905 16.8411 29.2905H26.9468C28.2541 29.2905 29.4013 28.1426 29.4013 26.8338V6.95951C29.4013 6.43784 29.8244 6.01352 30.3447 6.01352C30.6733 6.01352 30.9899 6.19217 31.1518 6.46903C31.2021 6.55617 34.4027 12.0881 37.4978 17.4377C40.7367 23.0364 43.796 28.3241 43.8466 28.411C44.2481 29.0985 44.9961 29.5251 45.7994 29.5251C47.0522 29.5251 48.0711 28.5037 48.0711 27.2479V6.95951C48.0711 6.43784 48.4942 6.01352 49.0146 6.01352C49.3431 6.01352 49.66 6.19217 49.8216 6.46903C49.8736 6.5582 53.0708 12.089 56.1632 17.4374C59.3996 23.0361 62.4568 28.3241 62.5074 28.411C62.9086 29.0985 63.6569 29.5251 64.4602 29.5251C65.713 29.5251 66.7317 28.5037 66.7317 27.2479V0.944336H65.4036V27.2479C65.4036 27.7698 64.9806 28.1942 64.4602 28.1942C64.1317 28.1942 63.8151 28.0155 63.6532 27.7387C63.6014 27.6495 60.404 22.119 57.3122 16.7703C54.0752 11.1713 51.0182 5.88355 50.9674 5.79698C50.5662 5.10921 49.8178 4.68226 49.0146 4.68226C47.7618 4.68226 46.7431 5.70401 46.7431 6.95951V27.2479C46.7431 27.7698 46.3198 28.1942 45.7994 28.1942C45.4709 28.1942 45.1543 28.0155 44.9924 27.7387C44.9421 27.6518 41.7415 22.1198 38.6464 16.77C35.4074 11.1713 32.3481 5.88355 32.2976 5.79698C31.8964 5.10921 31.148 4.68226 30.3447 4.68226C29.0923 4.68226 28.0736 5.70402 28.0736 6.95951V26.8338C28.0736 27.3546 27.5814 27.9593 26.9468 27.9593H16.8411C10.8754 27.9593 6.02208 23.0941 6.02208 17.1139C6.02208 11.1337 10.8754 6.26852 16.8411 6.26852H22.0291V4.93726H16.8411C10.1434 4.93726 4.69434 10.3996 4.69434 17.1139Z" fill="white"/>
</svg>
