<svg width="140" height="37" viewBox="0 0 140 37" fill="none" xmlns="http://www.w3.org/2000/svg">
<g clip-path="url(#clip0_753_554)">
<path d="M123.709 28.5829C123.6 28.5829 123.491 28.5829 123.382 28.4738C123.273 28.4738 123.164 28.3648 123.164 28.2557C123.055 28.1466 123.055 28.0375 123.055 27.9284C123.055 27.8193 123.055 27.7102 123.055 27.6011L124.036 24.9829C124.036 24.8738 124.145 24.7648 124.255 24.6557C124.364 24.5466 124.473 24.5466 124.691 24.5466H138.109C138.218 24.5466 138.327 24.5466 138.327 24.5466C138.436 24.5466 138.436 24.6557 138.545 24.6557C138.655 24.7648 138.655 24.7648 138.655 24.8738C138.655 24.9829 138.655 25.092 138.655 25.092V27.7102C138.655 27.9284 138.545 28.0375 138.436 28.1466C138.327 28.2557 138.109 28.3648 138 28.3648H123.709V28.5829Z" fill="#393C4B"/>
<path d="M13.5273 29.4557C9.92727 29.4557 6.43636 27.9284 3.92727 25.3102C1.41818 22.8011 0 19.2011 0 15.6011C0 12.0011 1.41818 8.51022 3.92727 5.89204C6.43636 3.27385 9.92727 1.85567 13.5273 1.74658C16.3636 1.74658 19.0909 2.61931 21.2727 4.25567C21.3818 4.36476 21.3818 4.36476 21.4909 4.47385C21.4909 4.58295 21.6 4.69204 21.6 4.69204C21.6 4.80113 21.6 4.91022 21.6 5.01931C21.6 5.1284 21.4909 5.23749 21.4909 5.23749C20.7273 6.21931 19.8545 7.31022 19.0909 8.18295C18.9818 8.29204 18.9818 8.29204 18.8727 8.40113C18.7636 8.40113 18.6545 8.51022 18.5455 8.51022C18.4364 8.51022 18.2182 8.51022 18.1091 8.40113C16.8 7.31022 15.1636 6.76476 13.5273 6.76476C9.16364 6.76476 5.56364 10.8011 5.56364 15.8193C5.56364 20.8375 9.16364 24.8739 13.5273 24.8739C15.2727 24.8739 16.9091 24.2193 18.2182 23.1284C18.3273 23.0193 18.5455 23.0193 18.6545 23.0193C18.7636 23.0193 18.8727 23.0193 18.9818 23.1284C19.0909 23.1284 19.2 23.2375 19.2 23.3466C19.8545 24.2193 20.6182 25.2011 21.3818 26.0739C21.4909 26.1829 21.4909 26.1829 21.4909 26.292C21.4909 26.4011 21.4909 26.5102 21.4909 26.6193C21.4909 26.7284 21.4909 26.8375 21.3818 26.8375C21.3818 26.9466 21.2727 26.9466 21.1636 27.0557C19.0909 28.5829 16.3636 29.4557 13.5273 29.4557Z" fill="#393C4B"/>
<path d="M32.1818 29.0193C30.2182 29.0193 28.2546 28.3648 26.5091 27.2739C24.8727 26.183 23.5637 24.5466 22.8 22.6921C22.0364 20.8375 21.8182 18.7648 22.2546 16.8011C22.6909 14.8375 23.6727 12.983 25.0909 11.5648C26.5091 10.1466 28.3637 9.16479 30.3273 8.83751C32.2909 8.40115 34.3637 8.61933 36.2182 9.38297C38.0728 10.1466 39.7091 11.4557 40.8 13.0921C41.8909 14.7284 42.5455 16.6921 42.5455 18.7648C42.5455 21.4921 41.4546 24.1102 39.4909 25.9648C37.4182 28.0375 34.9091 29.0193 32.1818 29.0193ZM32.1818 13.2011C30.6546 13.3102 29.3455 13.8557 28.2546 14.9466C27.2727 16.0375 26.7273 17.4557 26.7273 18.983C26.7273 20.5102 27.1637 21.9284 28.2546 23.0193C29.2364 24.1102 30.6546 24.7648 32.1818 24.7648C33.7091 24.6557 35.0182 24.1102 36.1091 23.0193C37.0909 21.9284 37.6364 20.5102 37.6364 18.983C37.6364 17.4557 37.2 16.0375 36.1091 14.9466C35.0182 13.8557 33.6 13.2011 32.1818 13.2011Z" fill="#393C4B"/>
<path d="M54.4364 29.0193C53.0182 29.0193 51.7091 28.8011 50.4 28.1466C49.0909 27.7102 48 26.9466 47.0182 25.8557C46.0364 24.8739 45.2727 23.6739 44.8364 22.3648C44.4 21.0557 44.1818 19.6375 44.1818 18.3284C44.2909 15.8193 45.3818 13.4193 47.2364 11.6739C49.0909 9.92841 51.4909 8.8375 54 8.72841C54.1091 8.72841 54.2182 8.72841 54.3273 8.72841H54.5455C56.2909 8.72841 57.9273 9.16477 59.3455 10.0375H59.4546H59.5636L59.6727 9.92841V9.81932V1.41932C59.6727 1.20113 59.7818 1.09204 59.8909 0.982952C60 0.873861 60.2182 0.764771 60.4364 0.764771H63.9273C64.1455 0.764771 64.2545 0.873861 64.4727 0.982952C64.5818 1.09204 64.6909 1.31023 64.6909 1.41932V28.0375C64.6909 28.1466 64.5818 28.3648 64.5818 28.3648C64.4727 28.4739 64.3636 28.4739 64.1455 28.4739H60.3273C60.2182 28.4739 60 28.3648 59.8909 28.3648C59.7818 28.2557 59.7818 28.1466 59.7818 28.0375V27.6011L59.5636 27.7102C58.0364 28.583 56.2909 29.0193 54.5455 29.1284L54.4364 29.0193ZM54.4364 13.2011C52.9091 13.3102 51.6 13.8557 50.5091 14.9466C49.5273 16.0375 48.9818 17.4557 48.9818 18.983C48.9818 20.5102 49.4182 21.9284 50.5091 23.0193C51.4909 24.1102 52.9091 24.7648 54.4364 24.7648C55.9636 24.6557 57.2727 24.1102 58.3636 23.0193C59.4546 21.9284 59.8909 20.5102 59.8909 18.983C59.8909 17.4557 59.4546 16.0375 58.3636 14.9466C57.2727 13.8557 55.8546 13.2011 54.4364 13.2011Z" fill="#393C4B"/>
<path d="M78.7636 28.583C78.5455 28.583 78.4364 28.4739 78.2182 28.3648C78.1091 28.2557 78 28.0375 78 27.8193V1.41934C78 1.20116 78.1091 1.09206 78.2182 0.873883C78.3273 0.764792 78.5455 0.655701 78.7636 0.655701H82.2545C82.4727 0.655701 82.5818 0.764792 82.8 0.873883C82.9091 0.982973 83.0182 1.20116 83.0182 1.41934V27.8193C83.0182 28.0375 82.9091 28.1466 82.8 28.3648C82.6909 28.4739 82.4727 28.583 82.2545 28.583H78.7636Z" fill="#393C4B"/>
<path d="M88.2546 28.583C88.1455 28.583 88.0364 28.583 88.0364 28.583C87.9273 28.583 87.9273 28.4739 87.8182 28.4739C87.7091 28.3648 87.7091 28.3648 87.7091 28.2557C87.7091 28.1466 87.7091 28.0375 87.7091 28.0375V10.0375C87.7091 9.81932 87.8182 9.71023 87.9273 9.49205C88.0364 9.38296 88.2546 9.27386 88.4727 9.27386H91.6364C91.8546 9.27386 91.9637 9.38296 92.1818 9.49205C92.2909 9.60114 92.4 9.81932 92.4 10.0375V27.9284C92.4 28.1466 92.2909 28.2557 92.1818 28.4739C92.0727 28.583 91.8546 28.692 91.6364 28.692L88.2546 28.583Z" fill="#393C4B"/>
<path d="M112.473 36.4375C112.364 36.4375 112.255 36.4375 112.145 36.3284C112.036 36.3284 111.927 36.2193 111.927 36.1102C111.818 36.0011 111.818 35.892 111.818 35.783C111.818 35.6739 111.818 35.5648 111.818 35.4557L113.891 29.783C114.109 29.1284 114.109 28.3648 113.891 27.7102L108.655 13.6375C108.655 13.5284 108.545 13.4193 108.436 13.3102C108.327 13.2011 108.218 13.2011 108 13.2011H103.418C103.2 13.2011 103.091 13.3102 102.982 13.4193C102.873 13.5284 102.764 13.7466 102.764 13.8557V22.3648C102.764 22.9102 102.982 23.5648 103.418 23.892C103.855 24.3284 104.4 24.5466 105.055 24.5466H108.764C108.873 24.5466 108.982 24.5466 109.091 24.6557C109.2 24.7648 109.309 24.8739 109.309 24.983L110.291 27.7102C110.291 27.8193 110.291 27.9284 110.291 28.0375C110.291 28.1466 110.291 28.2557 110.182 28.3648C110.073 28.4739 110.073 28.4739 109.964 28.583C109.855 28.583 109.745 28.692 109.636 28.692H102.982C101.673 28.692 100.364 28.1466 99.3818 27.1648C98.4 26.183 97.8545 24.8739 97.8545 23.5648V13.9648C97.8545 13.7466 97.7455 13.6375 97.6364 13.4193C97.5273 13.3102 97.3091 13.2011 97.0909 13.2011H96.1091C95.8909 13.2011 95.7818 13.092 95.5636 12.983C95.4545 12.8739 95.3455 12.6557 95.3455 12.4375V10.0375C95.3455 9.81932 95.4545 9.71023 95.5636 9.49204C95.6727 9.38295 95.8909 9.27386 96.1091 9.27386H97.0909C97.3091 9.27386 97.4182 9.16477 97.6364 9.05568C97.7455 8.94659 97.8545 8.72841 97.8545 8.51023V1.41932C97.8545 1.20113 97.9636 1.09204 98.0727 0.982952C98.1818 0.873861 98.4 0.764771 98.6182 0.764771H102.109C102.327 0.764771 102.436 0.873861 102.655 0.982952C102.764 1.09204 102.873 1.31023 102.873 1.52841V8.61932C102.873 8.8375 102.982 9.05568 103.091 9.16477C103.2 9.27386 103.418 9.38295 103.636 9.38295H111.491C111.6 9.38295 111.709 9.38295 111.818 9.49204C111.927 9.60113 112.036 9.71023 112.036 9.81932L116.182 20.8375C116.182 20.9466 116.291 21.0557 116.4 21.1648C116.509 21.2739 116.618 21.2739 116.727 21.2739C116.836 21.2739 116.945 21.2739 117.055 21.1648C117.164 21.0557 117.273 20.9466 117.273 20.8375L121.418 9.71023C121.418 9.60113 121.527 9.49204 121.636 9.38295C121.745 9.27386 121.855 9.27386 121.964 9.27386H125.455C125.564 9.27386 125.673 9.27386 125.782 9.38295C125.891 9.38295 126 9.49204 126 9.60113C126.109 9.71023 126.109 9.81932 126.109 9.92841C126.109 10.0375 126.109 10.1466 126.109 10.2557L116.509 36.0011C116.509 36.1102 116.4 36.2193 116.291 36.3284C116.182 36.4375 116.073 36.4375 115.855 36.4375H112.473Z" fill="#393C4B"/>
<path d="M69.6 28.583C69.3818 28.583 69.2727 28.4739 69.0545 28.3648C68.9455 28.2557 68.8364 28.0375 68.8364 27.8193V10.0375C68.8364 9.81932 68.9455 9.71023 69.0545 9.49205C69.1636 9.38296 69.3818 9.27386 69.6 9.27386H73.0909C73.3091 9.27386 73.4182 9.38296 73.6364 9.49205C73.7455 9.60114 73.8545 9.81932 73.8545 10.0375V27.9284C73.8545 28.1466 73.7455 28.2557 73.6364 28.4739C73.5273 28.692 73.3091 28.692 73.0909 28.692H69.6V28.583Z" fill="#393C4B"/>
<path d="M71.3455 5.78298C70.8 5.78298 70.3636 5.67388 69.9273 5.34661C69.4909 5.01934 69.1636 4.69207 68.9455 4.14661C68.7273 3.60116 68.7273 3.0557 68.8364 2.61934C68.9455 2.07388 69.1636 1.63752 69.6 1.31025C69.9273 0.873885 70.3636 0.546612 70.9091 0.437521C71.4545 0.32843 72 0.437521 72.4364 0.546612C72.8727 0.764794 73.3091 1.09207 73.6364 1.52843C73.9636 1.96479 74.0727 2.51025 74.0727 2.94661C74.0727 3.60116 73.7455 4.36479 73.3091 4.80116C72.7636 5.4557 72.1091 5.78298 71.3455 5.78298Z" fill="#393C4B"/>
<path d="M89.8909 5.78298C89.3455 5.78298 88.9091 5.67388 88.4727 5.34661C88.0364 5.01934 87.7091 4.69207 87.4909 4.14661C87.2727 3.60116 87.2727 3.0557 87.3818 2.61934C87.4909 2.07388 87.7091 1.63752 88.1455 1.31025C88.4728 0.873885 88.9091 0.546612 89.4546 0.437521C90 0.32843 90.5455 0.437521 90.9818 0.546612C91.4182 0.764794 91.8546 1.09207 92.1818 1.52843C92.5091 1.96479 92.6182 2.51025 92.6182 2.94661C92.6182 3.60116 92.2909 4.36479 91.8546 4.80116C91.3091 5.4557 90.6546 5.78298 89.8909 5.78298Z" fill="#393C4B"/>
</g>
<defs>
<clipPath id="clip0_753_554">
<rect width="139.636" height="36" fill="white" transform="translate(0 0.4375)"/>
</clipPath>
</defs>
</svg>
