<svg width="24" height="25" viewBox="0 0 24 25" fill="none" xmlns="http://www.w3.org/2000/svg">
<g clip-path="url(#clip0_753_820)">
<path d="M18 0.330078H6C2.68629 0.330078 0 3.01637 0 6.33008V18.3301C0 21.6438 2.68629 24.3301 6 24.3301H18C21.3137 24.3301 24 21.6438 24 18.3301V6.33008C24 3.01637 21.3137 0.330078 18 0.330078Z" fill="#969AA6"/>
<path d="M10.5 10.3301H9V12.3301H10.5V18.3301H13V12.3301H14.821L15 10.3301H13V9.49608C13 9.01908 13.096 8.83008 13.557 8.83008H15V6.33008H13.096C11.298 6.33008 10.5 7.12208 10.5 8.63708V10.3301Z" fill="#131933"/>
</g>
<defs>
<clipPath id="clip0_753_820">
<rect width="24" height="24" fill="white" transform="translate(0 0.330078)"/>
</clipPath>
</defs>
</svg>
