<svg width="121" height="39" viewBox="0 0 121 39" fill="none" xmlns="http://www.w3.org/2000/svg">
<g clip-path="url(#clip0_971_3756)">
<path d="M3.83323 6.18644V8.03702H7.75246V11.1095H3.83323V22.2435H0.284943V5.88175C0.284943 1.86062 2.68376 0.103797 6.19537 0.103797C6.97263 0.0847222 7.74806 0.187884 8.4933 0.409509V3.41669C8.02277 3.35259 7.54864 3.31856 7.07378 3.31479C5.04997 3.31377 3.83323 3.98939 3.83323 6.18644ZM36.4424 13.9312C36.4424 16.2614 35.5168 18.4962 33.869 20.1439C32.2213 21.7916 29.9865 22.7173 27.6563 22.7173C25.3261 22.7173 23.0913 21.7916 21.4435 20.1439C19.7958 18.4962 18.8701 16.2614 18.8701 13.9312C18.9053 11.6241 19.8464 9.42341 21.4903 7.80435C23.1342 6.1853 25.349 5.27778 27.6563 5.27778C29.9636 5.27778 32.1784 6.1853 33.8223 7.80435C35.4662 9.42341 36.4073 11.6241 36.4424 13.9312ZM22.4816 13.9648C22.4456 14.6599 22.5521 15.355 22.7944 16.0075C23.0367 16.66 23.4097 17.2561 23.8906 17.7593C24.3715 18.2624 24.9502 18.662 25.5911 18.9335C26.232 19.205 26.9216 19.3427 27.6176 19.3382C28.7 19.3937 29.7741 19.123 30.7009 18.5611C31.6277 17.9992 32.3645 17.1721 32.8159 16.1868C33.2673 15.2014 33.4126 14.1033 33.2328 13.0345C33.0531 11.9657 32.5567 10.9754 31.8078 10.1919C31.0589 9.4084 30.0921 8.86775 29.0325 8.63993C27.9729 8.4121 26.8693 8.5076 25.8646 8.91406C24.8599 9.32051 24.0003 10.0192 23.3972 10.9197C22.794 11.8202 22.4751 12.881 22.4816 13.9648ZM48.8615 5.6545V8.79722H47.7752C45.1399 8.79722 42.9093 10.3177 42.9093 13.3931V22.2465H39.361V5.6545H42.6728V7.8169C43.2414 7.0791 43.9742 6.48415 44.8131 6.07938C45.652 5.67462 46.5738 5.47121 47.5051 5.48534C47.9629 5.47797 48.4195 5.53491 48.8615 5.6545ZM65.9609 15.1163H53.5878C53.7722 16.3914 54.4321 17.5494 55.435 18.3581C56.438 19.1667 57.7097 19.566 58.9948 19.4758C60.7966 19.4632 62.5254 18.7621 63.8271 17.5162L65.5166 19.9496C63.7421 21.6705 61.3648 22.6287 58.8929 22.6195C57.7445 22.6584 56.5998 22.4687 55.5254 22.0614C54.451 21.654 53.4682 21.0371 52.6343 20.2466C51.8004 19.4561 51.132 18.5077 50.6678 17.4566C50.2037 16.4054 49.9531 15.2725 49.9307 14.1237C49.9083 12.9748 50.1145 11.833 50.5372 10.7646C50.96 9.69607 51.5909 8.72231 52.3934 7.89986C53.1958 7.07741 54.1537 6.42267 55.2114 5.9737C56.2691 5.52473 57.4055 5.29049 58.5546 5.28459C59.5654 5.25055 60.5725 5.4234 61.5141 5.79256C62.4557 6.16171 63.312 6.71937 64.0303 7.43132C64.7486 8.14328 65.3139 8.9945 65.6915 9.93277C66.0691 10.8711 66.2509 11.8766 66.2259 12.8877C66.2161 13.6381 66.1256 14.3853 65.9559 15.1163H65.9609ZM53.6611 12.3456H62.6837C62.6911 11.7937 62.5844 11.2462 62.3704 10.7374C62.1564 10.2287 61.8396 9.76955 61.4399 9.3889C61.0402 9.00825 60.5663 8.71424 60.0477 8.52528C59.5291 8.33631 58.977 8.25647 58.4262 8.29076C57.2784 8.28977 56.1678 8.69715 55.2929 9.44003C54.4181 10.1829 53.836 11.2128 53.651 12.3456H53.6611ZM83.4324 11.8727V22.2465H79.8841V12.3456C79.9277 11.8488 79.8659 11.3485 79.7029 10.8772C79.5398 10.406 79.2792 9.9744 78.9379 9.61082C78.5966 9.24723 78.1825 8.95978 77.7225 8.76725C77.2625 8.57472 76.767 8.48145 76.2685 8.49355C75.7615 8.4776 75.2566 8.56685 74.7857 8.75567C74.3148 8.9445 73.8882 9.22881 73.5326 9.59069C73.177 9.95257 72.9003 10.3842 72.7198 10.8583C72.5393 11.3325 72.4589 11.8388 72.4838 12.3456V22.2465H68.9355V5.6545H72.2474V7.31044C72.8873 6.64344 73.6601 6.11834 74.516 5.76918C75.3718 5.42001 76.2914 5.25457 77.2152 5.28357C81.1293 5.28255 83.4273 7.98606 83.4273 11.8717L83.4324 11.8727ZM101.963 9.13554L99.4619 11.0952C98.9951 10.3285 98.3406 9.69339 97.5601 9.24995C96.7797 8.80651 95.8991 8.56933 95.0015 8.5608C93.6035 8.6079 92.2785 9.19636 91.3062 10.202C90.3339 11.2076 89.7903 12.5517 89.7903 13.9505C89.7903 15.3494 90.3339 16.6934 91.3062 17.6991C92.2785 18.7047 93.6035 19.2931 95.0015 19.3402C95.8949 19.3301 96.7714 19.0958 97.5507 18.6589C98.33 18.222 98.9871 17.5964 99.4619 16.8395L101.963 18.7655C101.236 19.9634 100.207 20.9495 98.9796 21.6254C97.7521 22.3014 96.3689 22.6434 94.9679 22.6175C93.8218 22.6299 92.6845 22.4149 91.6221 21.9849C90.5596 21.5549 89.5929 20.9184 88.7781 20.1123C87.9632 19.3063 87.3163 18.3466 86.8748 17.2888C86.4333 16.231 86.206 15.0962 86.206 13.95C86.206 12.8038 86.4333 11.669 86.8748 10.6113C87.3163 9.55346 87.9632 8.59377 88.7781 7.78769C89.5929 6.98161 90.5596 6.34515 91.6221 5.91514C92.6845 5.48514 93.8218 5.27013 94.9679 5.28255C96.3688 5.24989 97.7534 5.58917 98.9805 6.26582C100.208 6.94248 101.234 7.93233 101.954 9.13452L101.963 9.13554ZM120.02 15.1173H107.647C107.831 16.3924 108.491 17.5505 109.494 18.3591C110.497 19.1677 111.769 19.567 113.054 19.4768C114.856 19.4641 116.584 18.763 117.886 17.5172L119.576 19.9506C117.801 21.6715 115.424 22.6298 112.952 22.6205C111.804 22.6595 110.659 22.4697 109.585 22.0624C108.51 21.655 107.527 21.0382 106.693 20.2476C105.86 19.4571 105.191 18.5087 104.727 17.4576C104.263 16.4065 104.012 15.2735 103.99 14.1247C103.967 12.9759 104.174 11.834 104.596 10.7656C105.019 9.69709 105.65 8.72333 106.452 7.90088C107.255 7.07843 108.213 6.42368 109.271 5.97471C110.328 5.52574 111.465 5.2915 112.614 5.28561C113.624 5.25157 114.632 5.42442 115.573 5.79358C116.515 6.16273 117.371 6.72039 118.089 7.43234C118.808 8.1443 119.373 8.99552 119.751 9.93379C120.128 10.8721 120.31 11.8776 120.285 12.8887C120.275 13.6388 120.185 14.3856 120.015 15.1163L120.02 15.1173ZM107.72 12.3466H116.743C116.75 11.7947 116.644 11.2472 116.43 10.7384C116.215 10.2297 115.899 9.77057 115.499 9.38992C115.099 9.00927 114.625 8.71526 114.107 8.5263C113.588 8.33733 113.036 8.25749 112.485 8.29178C111.338 8.29171 110.229 8.69939 109.355 9.44198C108.481 10.1846 107.899 11.2137 107.714 12.3456L107.72 12.3466ZM15.4574 0.474727H11.9091V22.2455H15.4574V0.474727Z" fill="#9CA0AC"/>
<path d="M47.9362 33.0699C47.9593 33.3967 47.9152 33.7247 47.8065 34.0337C47.6977 34.3427 47.5267 34.6261 47.3041 34.8663C47.0814 35.1065 46.8119 35.2985 46.512 35.4304C46.2122 35.5622 45.8885 35.6311 45.5609 35.6328C45.259 35.646 44.9583 35.5865 44.6843 35.4591C44.4103 35.3318 44.171 35.1404 43.9865 34.9011V35.5126H42.7635V28.0889H44.0996V31.0879C44.2884 30.8921 44.5167 30.7388 44.7694 30.6381C45.0221 30.5374 45.2932 30.4917 45.5649 30.504C45.8924 30.5062 46.2159 30.5756 46.5155 30.7079C46.8151 30.8402 47.0845 31.0325 47.3067 31.273C47.529 31.5135 47.6995 31.7971 47.8078 32.1062C47.916 32.4153 47.9598 32.7433 47.9362 33.0699ZM46.5798 33.0597C46.5918 32.8866 46.5678 32.7128 46.5094 32.5494C46.451 32.386 46.3596 32.2363 46.2407 32.1099C46.1217 31.9835 45.978 31.8831 45.8184 31.8149C45.6588 31.7467 45.4868 31.7122 45.3133 31.7136C44.9752 31.743 44.6603 31.8981 44.431 32.1482C44.2016 32.3984 44.0743 32.7254 44.0743 33.0648C44.0743 33.4042 44.2016 33.7313 44.431 33.9814C44.6603 34.2316 44.9752 34.3867 45.3133 34.4161C45.4876 34.4171 45.6603 34.382 45.8204 34.3131C45.9805 34.2441 46.1245 34.1427 46.2435 34.0153C46.3625 33.8878 46.4538 33.7372 46.5117 33.5727C46.5696 33.4083 46.5928 33.2336 46.5798 33.0597Z" fill="#9CA0AC"/>
<path d="M53.5307 30.6139L51.1869 35.9394C51.0673 36.3642 50.8121 36.7382 50.4601 37.0044C50.1082 37.2707 49.6788 37.4145 49.2375 37.414C48.9467 37.4097 48.6575 37.3696 48.3764 37.2948V36.1738C48.6036 36.1932 48.7922 36.2136 48.9501 36.2136C49.1699 36.2344 49.3903 36.1801 49.5754 36.0596C49.7604 35.9392 49.8992 35.7596 49.9692 35.5502L50.1179 35.223L48.2378 30.6099H49.6533L50.8506 33.827L52.1285 30.6099L53.5307 30.6139Z" fill="#9CA0AC"/>
<path d="M64.4385 32.4755V35.5143H63.1015V32.6611C63.1151 32.5397 63.1025 32.4167 63.0646 32.3007C63.0267 32.1846 62.9644 32.078 62.8819 31.9881C62.7993 31.8981 62.6984 31.8268 62.586 31.7791C62.4736 31.7313 62.3523 31.7082 62.2302 31.7113C62.1093 31.7066 61.9886 31.7271 61.8761 31.7717C61.7636 31.8163 61.6616 31.884 61.5768 31.9704C61.492 32.0567 61.4261 32.1599 61.3835 32.2732C61.3409 32.3865 61.3225 32.5076 61.3294 32.6285V35.5082H59.9924V32.655C60.0062 32.5336 59.9937 32.4106 59.9559 32.2945C59.9181 32.1783 59.8558 32.0716 59.7732 31.9816C59.6906 31.8916 59.5896 31.8203 59.4772 31.7726C59.3647 31.7249 59.2433 31.702 59.1211 31.7052C58.9974 31.7005 58.874 31.7221 58.7593 31.7689C58.6445 31.8156 58.5411 31.8863 58.4558 31.9762C58.3706 32.066 58.3055 32.1732 58.2649 32.2902C58.2243 32.4072 58.2091 32.5316 58.2203 32.655V35.5082H56.8844V30.6087H58.1072V31.0448C58.289 30.8648 58.5055 30.7238 58.7436 30.6302C58.9817 30.5367 59.2364 30.4926 59.4921 30.5007C59.7747 30.4834 60.0571 30.5389 60.312 30.662C60.567 30.7852 60.7861 30.9717 60.9483 31.2038C61.1536 30.9764 61.4055 30.7959 61.6869 30.6745C61.9682 30.5532 62.2724 30.4939 62.5787 30.5007C62.8364 30.4876 63.0939 30.5307 63.3333 30.6269C63.5727 30.7232 63.7883 30.8702 63.9652 31.0581C64.1421 31.2459 64.276 31.4701 64.3578 31.7148C64.4395 31.9596 64.467 32.2191 64.4385 32.4755Z" fill="#9CA0AC"/>
<path d="M67.14 28.8327C67.145 29.0035 67.099 29.1718 67.0077 29.3162C66.9164 29.4606 66.784 29.5744 66.6275 29.643C66.4711 29.7116 66.2977 29.7319 66.1297 29.7013C65.9616 29.6707 65.8065 29.5905 65.6843 29.4711C65.5622 29.3517 65.4785 29.1985 65.444 29.0312C65.4095 28.8639 65.4258 28.6901 65.4908 28.5321C65.5558 28.3741 65.6665 28.2392 65.8087 28.1446C65.951 28.05 66.1182 28 66.2891 28.0012C66.3999 27.9987 66.51 28.0184 66.6131 28.0591C66.7161 28.0998 66.8101 28.1606 66.8893 28.2381C66.9686 28.3155 67.0315 28.408 67.0746 28.5101C67.1176 28.6122 67.1399 28.7219 67.14 28.8327ZM66.9525 35.5135H65.6165V30.614H66.9525V35.5135Z" fill="#9CA0AC"/>
<path d="M69.5164 35.514H68.1805V28.0903H69.5164V35.514Z" fill="#9CA0AC"/>
<path d="M72.0823 35.514H70.7464V28.0903H72.0823V35.514Z" fill="#9CA0AC"/>
<path d="M76.7332 31.2386L76.0596 32.06C75.7662 31.7705 75.3732 31.6043 74.9611 31.5953C74.6442 31.5953 74.4373 31.7043 74.4373 31.9418C74.4373 32.1405 74.5953 32.2393 74.9468 32.3769L75.4217 32.5756C76.3032 32.9323 76.7984 33.3073 76.7984 34.0706C76.7984 35.0804 75.9567 35.6348 74.8877 35.6348C74.499 35.6452 74.1131 35.5648 73.7609 35.3999C73.4087 35.235 73.0998 34.9903 72.8588 34.685L73.5324 33.8698C73.7041 34.0686 73.9148 34.2301 74.1514 34.3442C74.3881 34.4583 74.6456 34.5226 74.9081 34.5332C75.2454 34.5332 75.5318 34.4048 75.5318 34.1256C75.5318 33.8973 75.3279 33.8087 75.0222 33.6803L74.4974 33.4622C73.6659 33.1259 73.1615 32.7397 73.1615 31.9673C73.1615 31.0277 73.9227 30.4927 74.9621 30.4927C75.2938 30.4807 75.6242 30.5412 75.9301 30.67C76.236 30.7989 76.51 30.9929 76.7332 31.2386Z" fill="#9CA0AC"/>
<path d="M78.0845 30.1775H77.6881V31.1772H77.4486V30.1775H77.0522V29.9574H78.0834L78.0845 30.1775ZM79.4642 31.1772H79.2227V30.5046L78.9109 30.9122H78.8304L78.5247 30.5046V31.1782H78.2801V29.939H78.3606L78.8773 30.6045L79.3868 29.939H79.4653L79.4642 31.1772Z" fill="#9CA0AC"/>
</g>
<defs>
<clipPath id="clip0_971_3756">
<rect width="120" height="38" fill="white" transform="translate(0.284943 0.103516)"/>
</clipPath>
</defs>
</svg>
