<svg width="40" height="40" viewBox="0 0 40 40" fill="none" xmlns="http://www.w3.org/2000/svg">
<g clip-path="url(#clip0_753_732)">
<path d="M27.9196 37H12.0804L11.4339 36.995C8.75935 36.9516 7.69554 36.6271 6.62367 36.0539C5.46935 35.4366 4.56343 34.5306 3.94609 33.3763L3.81824 33.1284C3.30404 32.0897 3.02218 30.9434 3.00126 28.2503L3 12.0804C3 8.92297 3.32876 7.77799 3.94609 6.62367C4.56343 5.46935 5.46935 4.56343 6.62367 3.94609L6.87162 3.81824C7.91028 3.30404 9.05662 3.02218 11.7497 3.00126L27.9196 3C31.077 3 32.222 3.32876 33.3763 3.94609C34.5306 4.56343 35.4366 5.46935 36.0539 6.62367L36.1818 6.87162C36.696 7.91028 36.9778 9.05662 36.9987 11.7497L37 27.9196L36.995 28.5661C36.9516 31.2406 36.6271 32.3045 36.0539 33.3763C35.4366 34.5306 34.5306 35.4366 33.3763 36.0539L33.1284 36.1818C32.0482 36.7165 30.8515 37 27.9196 37Z" stroke="#9BADBC" stroke-opacity="0.2"/>
<path d="M27.9196 37H12.0804L11.4339 36.995C8.75935 36.9516 7.69554 36.6271 6.62367 36.0539C5.46935 35.4366 4.56343 34.5306 3.94609 33.3763L3.81824 33.1284C3.30404 32.0897 3.02218 30.9434 3.00126 28.2503L3 12.0804C3 8.92297 3.32876 7.77799 3.94609 6.62367C4.56343 5.46935 5.46935 4.56343 6.62367 3.94609L6.87162 3.81824C7.91028 3.30404 9.05662 3.02218 11.7497 3.00126L27.9196 3C31.077 3 32.222 3.32876 33.3763 3.94609C34.5306 4.56343 35.4366 5.46935 36.0539 6.62367L36.1818 6.87162C36.696 7.91028 36.9778 9.05662 36.9987 11.7497L37 27.9196L36.995 28.5661C36.9516 31.2407 36.6271 32.3045 36.0539 33.3763C35.4366 34.5306 34.5306 35.4366 33.3763 36.0539L33.1284 36.1818C32.0482 36.7165 30.8515 37 27.9196 37Z" fill="#9BADBC" fill-opacity="0.2"/>
<path d="M37 20V27.9196C37 31.077 36.6712 32.222 36.0539 33.3763C35.4366 34.5306 34.5306 35.4366 33.3763 36.0539C32.222 36.6712 31.077 37 27.9196 37H20V20H37Z" fill="url(#paint0_linear_753_732)"/>
<path d="M20 3H27.9196C31.077 3 32.222 3.32876 33.3763 3.94609C34.5306 4.56343 35.4366 5.46935 36.0539 6.62367C36.6712 7.77799 37 8.92297 37 12.0804V20H20V3Z" fill="url(#paint1_linear_753_732)"/>
<path d="M12.0804 3H20V37H12.0804C8.92297 37 7.77799 36.6712 6.62367 36.0539C5.46935 35.4366 4.56343 34.5306 3.94609 33.3763C3.32876 32.222 3 31.077 3 27.9196V12.0804C3 8.92297 3.32876 7.77799 3.94609 6.62367C4.56343 5.46935 5.46935 4.56343 6.62367 3.94609C7.77799 3.32876 8.92297 3 12.0804 3Z" fill="url(#paint2_linear_753_732)"/>
</g>
<defs>
<linearGradient id="paint0_linear_753_732" x1="870" y1="20" x2="1720" y2="1720" gradientUnits="userSpaceOnUse">
<stop stop-color="#DEF2FE"/>
<stop offset="1" stop-color="#DBF1FE"/>
</linearGradient>
<linearGradient id="paint1_linear_753_732" x1="20" y1="3" x2="870" y2="1703" gradientUnits="userSpaceOnUse">
<stop stop-color="#57BCFD"/>
<stop offset="1" stop-color="#51B5FD"/>
</linearGradient>
<linearGradient id="paint2_linear_753_732" x1="640.5" y1="3.00003" x2="2085.5" y2="2893" gradientUnits="userSpaceOnUse">
<stop stop-color="#1CA7FD"/>
<stop offset="1" stop-color="#148CFC"/>
</linearGradient>
<clipPath id="clip0_753_732">
<rect width="40" height="40" fill="white"/>
</clipPath>
</defs>
</svg>
