<svg width="41" height="40" viewBox="0 0 41 40" fill="none" xmlns="http://www.w3.org/2000/svg">
<path d="M27.9977 37H12.1586L11.512 36.995C8.83747 36.9516 7.77367 36.6271 6.7018 36.0539C5.54748 35.4366 4.64156 34.5306 4.02422 33.3763L3.89637 33.1284C3.38216 32.0897 3.1003 30.9434 3.07938 28.2503L3.07812 12.0804C3.07812 8.92297 3.40688 7.77799 4.02422 6.62367C4.64156 5.46935 5.54748 4.56343 6.7018 3.94609L6.94974 3.81824C7.98841 3.30404 9.13474 3.02218 11.8279 3.00126L27.9977 3C31.1552 3 32.3001 3.32876 33.4545 3.94609C34.6088 4.56343 35.5147 5.46935 36.132 6.62367L36.2599 6.87162C36.7741 7.91028 37.0559 9.05662 37.0769 11.7497L37.0781 27.9196L37.0731 28.5661C37.0297 31.2406 36.7053 32.3045 36.132 33.3763C35.5147 34.5306 34.6088 35.4366 33.4545 36.0539L33.2065 36.1818C32.1263 36.7165 30.9296 37 27.9977 37Z" stroke="#9BADBC" stroke-opacity="0.2"/>
<path d="M27.9977 37H12.1586L11.512 36.995C8.83747 36.9516 7.77367 36.6271 6.7018 36.0539C5.54748 35.4366 4.64156 34.5306 4.02422 33.3763L3.89637 33.1284C3.38216 32.0897 3.1003 30.9434 3.07938 28.2503L3.07812 12.0804C3.07812 8.92297 3.40688 7.77799 4.02422 6.62367C4.64156 5.46935 5.54748 4.56343 6.7018 3.94609L6.94974 3.81824C7.98841 3.30404 9.13474 3.02218 11.8279 3.00126L27.9977 3C31.1552 3 32.3001 3.32876 33.4545 3.94609C34.6088 4.56343 35.5147 5.46935 36.132 6.62367L36.2599 6.87162C36.7741 7.91028 37.056 9.05662 37.0769 11.7497L37.0781 27.9196L37.0731 28.5661C37.0297 31.2407 36.7053 32.3045 36.132 33.3763C35.5147 34.5306 34.6088 35.4366 33.4545 36.0539L33.2065 36.1818C32.1263 36.7165 30.9296 37 27.9977 37Z" fill="#9BADBC" fill-opacity="0.2"/>
<path d="M37.0781 20V27.9196C37.0781 31.077 36.7494 32.222 36.132 33.3763C35.5147 34.5306 34.6088 35.4366 33.4545 36.0539C32.3001 36.6712 31.1552 37 27.9977 37H20.0781V20H37.0781Z" fill="url(#paint0_linear_753_587)"/>
<path d="M20.0781 3H27.9977C31.1552 3 32.3001 3.32876 33.4545 3.94609C34.6088 4.56343 35.5147 5.46935 36.132 6.62367C36.7494 7.77799 37.0781 8.92297 37.0781 12.0804V20H20.0781V3Z" fill="url(#paint1_linear_753_587)"/>
<path d="M12.1586 3H20.0781V37H12.1586C9.00109 37 7.85612 36.6712 6.7018 36.0539C5.54748 35.4366 4.64156 34.5306 4.02422 33.3763C3.40688 32.222 3.07812 31.077 3.07812 27.9196V12.0804C3.07812 8.92297 3.40688 7.77799 4.02422 6.62367C4.64156 5.46935 5.54748 4.56343 6.7018 3.94609C7.85612 3.32876 9.00109 3 12.1586 3Z" fill="url(#paint2_linear_753_587)"/>
<defs>
<linearGradient id="paint0_linear_753_587" x1="870.078" y1="20" x2="1720.08" y2="1720" gradientUnits="userSpaceOnUse">
<stop stop-color="#DEF2FE"/>
<stop offset="1" stop-color="#DBF1FE"/>
</linearGradient>
<linearGradient id="paint1_linear_753_587" x1="20.0781" y1="3" x2="870.078" y2="1703" gradientUnits="userSpaceOnUse">
<stop stop-color="#57BCFD"/>
<stop offset="1" stop-color="#51B5FD"/>
</linearGradient>
<linearGradient id="paint2_linear_753_587" x1="640.578" y1="3.00003" x2="2085.58" y2="2893" gradientUnits="userSpaceOnUse">
<stop stop-color="#1CA7FD"/>
<stop offset="1" stop-color="#148CFC"/>
</linearGradient>
</defs>
</svg>
