<svg width="136" height="178" viewBox="0 0 136 178" fill="none" xmlns="http://www.w3.org/2000/svg">
<path d="M11.7225 130.623L68.868 159.702L123.843 130.623V16.9104H11.7225V130.623Z" fill="white"/>
<path d="M125.001 17.3445L10.5652 132.648L69.8807 162.017L125.001 133.806V17.3445Z" fill="#F2F3F2"/>
<path d="M7.96107 54.8145V133.082L9.98648 134.095L67.132 163.174L68.868 164.042L70.6041 163.174L125.724 134.095L127.75 133.082V13.1489H7.96107V54.8145ZM11.7225 130.912V16.9104H123.988V130.912L68.868 159.991L11.7225 130.912Z" fill="#DCDEDC"/>
<path d="M67.8553 18.7911C68.434 18.7911 69.0127 18.7911 69.5914 18.9358L67.8553 22.2633C65.2512 22.1186 62.9365 24.144 62.7918 26.7481C62.6471 29.3522 64.6725 31.667 67.2766 31.8116H67.8553C69.0127 31.8116 70.1701 31.3776 71.0381 30.6543L72.9188 33.837C71.4721 34.8497 69.7361 35.4284 67.8553 35.4284C63.2258 35.5731 59.3197 32.101 59.175 27.4715C59.0303 22.842 62.5025 18.9358 67.132 18.7911H67.8553ZM73.7869 25.8801L75.957 29.4969L73.7869 32.969L71.7615 29.4969H67.566L69.7361 25.8801H73.7869ZM70.3147 24.578C70.3147 23.9993 70.4594 23.4206 70.7488 22.9866C71.0381 22.5526 71.6168 22.1186 72.0508 21.8293L72.3402 21.6846C72.9188 21.3952 73.0635 21.2506 73.0635 20.9612C73.0635 20.6719 72.6295 20.3825 72.3402 20.3825C71.7615 20.3825 71.3274 20.6719 71.0381 21.2506L70.3147 20.5272C70.4594 20.2379 70.7488 19.9485 71.0381 19.6592C71.4721 19.3698 71.9061 19.3698 72.3402 19.3698C72.7742 19.3698 73.3529 19.5145 73.6422 19.8038C73.9315 20.0932 74.2209 20.5272 74.2209 20.9612C74.2209 21.6846 73.7869 22.2633 72.9188 22.5526L72.4848 22.842C72.0508 23.1313 71.7615 23.276 71.6168 23.71H74.2209V24.7227L70.3147 24.578ZM67.8553 42.662L81.5992 34.8497V13.1489H53.9668V34.7051L67.8553 42.662ZM130.498 93.876H5.21229L0.582787 104.003L5.21229 114.13H130.498L134.983 104.003L130.498 93.876Z" fill="#FF492C"/>
<path d="M27.622 87.3658C27.5352 87.3658 27.4629 87.3368 27.405 87.279C27.3471 87.2115 27.3182 87.1343 27.3182 87.0475V69.4554C27.3182 69.3686 27.3471 69.2914 27.405 69.2239C27.4629 69.166 27.5352 69.1371 27.622 69.1371H30.6746C30.7614 69.1371 30.8337 69.166 30.8916 69.2239C30.9591 69.2914 30.9929 69.3686 30.9929 69.4554V84.0817C30.9929 84.1685 31.0363 84.2119 31.1231 84.2119H39.6298C39.7166 84.2119 39.7938 84.2409 39.8613 84.2987C39.9191 84.3662 39.9481 84.4434 39.9481 84.5302V87.0475C39.9481 87.1343 39.9191 87.2115 39.8613 87.279C39.7938 87.3368 39.7166 87.3658 39.6298 87.3658H27.622ZM53.8221 79.2931C53.9282 79.9489 53.962 80.6867 53.9234 81.5066C53.9138 81.7187 53.8028 81.8248 53.5907 81.8248H45.5469C45.4408 81.8248 45.407 81.8682 45.4456 81.955C45.4938 82.3022 45.5855 82.6495 45.7205 82.9967C46.1738 83.9612 47.0949 84.4434 48.4837 84.4434C49.5929 84.4337 50.4706 83.9853 51.1168 83.0979C51.1843 82.9918 51.2614 82.9388 51.3482 82.9388C51.4061 82.9388 51.4688 82.9726 51.5363 83.0401L53.4026 84.8919C53.4894 84.9787 53.5328 85.0558 53.5328 85.1234C53.5328 85.1619 53.499 85.2343 53.4315 85.3404C52.8625 86.0444 52.1246 86.5942 51.218 86.9896C50.3211 87.3754 49.3325 87.5683 48.2523 87.5683C46.7573 87.5683 45.4938 87.2307 44.4618 86.5556C43.4298 85.8805 42.6872 84.9353 42.2339 83.72C41.8674 82.852 41.6841 81.7139 41.6841 80.3058C41.6841 79.3509 41.8143 78.5118 42.0748 77.7885C42.4798 76.5539 43.1791 75.5702 44.1725 74.8372C45.1756 74.1138 46.3619 73.7521 47.7314 73.7521C49.4675 73.7521 50.8612 74.2537 51.9125 75.2567C52.9637 76.2598 53.6003 77.6052 53.8221 79.2931ZM47.7604 76.9204C46.6609 76.9204 45.9375 77.4316 45.5903 78.454C45.5228 78.6854 45.4649 78.9651 45.4167 79.2931C45.4167 79.3799 45.4601 79.4233 45.5469 79.4233H50.0462C50.1523 79.4233 50.186 79.3799 50.1475 79.2931C50.0607 78.7915 50.0173 78.5504 50.0173 78.5697C49.8629 78.0489 49.5929 77.6438 49.2071 77.3545C48.8117 77.0651 48.3294 76.9204 47.7604 76.9204ZM61.403 73.7666C62.5314 73.7666 63.5393 73.9643 64.4266 74.3597C65.3139 74.7455 66.0035 75.2808 66.4954 75.9656C66.9873 76.6407 67.2332 77.393 67.2332 78.2225V87.0475C67.2332 87.1343 67.2043 87.2115 67.1464 87.279C67.0886 87.3368 67.0162 87.3658 66.9294 87.3658H63.8768C63.79 87.3658 63.7177 87.3368 63.6598 87.279C63.5923 87.2115 63.5586 87.1343 63.5586 87.0475V86.1939C63.5586 86.1457 63.5441 86.1119 63.5152 86.0927C63.4766 86.0734 63.4428 86.0878 63.4139 86.1361C62.6809 87.0909 61.509 87.5683 59.8984 87.5683C58.5384 87.5683 57.4438 87.2404 56.6143 86.5845C55.7752 85.9287 55.3557 84.9546 55.3557 83.6622C55.3557 82.3312 55.8283 81.2944 56.7734 80.5517C57.709 79.8187 59.0448 79.4522 60.7809 79.4522H63.4284C63.5152 79.4522 63.5586 79.4088 63.5586 79.322V78.7433C63.5586 78.1743 63.385 77.7258 63.0377 77.3979C62.6905 77.0796 62.1697 76.9204 61.4753 76.9204C60.9448 76.9204 60.5012 77.0169 60.1443 77.2098C59.7874 77.4027 59.556 77.6727 59.4499 78.02C59.4017 78.2128 59.2907 78.2997 59.1171 78.2804L55.9633 77.8608C55.7511 77.8222 55.6546 77.7451 55.6739 77.6293C55.7414 76.8963 56.0308 76.2357 56.542 75.6473C57.0531 75.059 57.7331 74.6009 58.5818 74.2729C59.4209 73.9354 60.3613 73.7666 61.403 73.7666ZM60.8821 84.834C61.6248 84.834 62.2565 84.6363 62.7773 84.2409C63.2982 83.8454 63.5586 83.3342 63.5586 82.7073V81.767C63.5586 81.6802 63.5152 81.6368 63.4284 81.6368H61.5621C60.7809 81.6368 60.1684 81.7862 59.7248 82.0852C59.2811 82.3746 59.0593 82.7893 59.0593 83.3294C59.0593 83.802 59.2232 84.1685 59.5511 84.4289C59.8791 84.699 60.3227 84.834 60.8821 84.834ZM78.1271 69.4554C78.1271 69.3686 78.156 69.2914 78.2139 69.2239C78.2717 69.166 78.3441 69.1371 78.4309 69.1371H81.4834C81.5702 69.1371 81.6426 69.166 81.7005 69.2239C81.7583 69.2914 81.7873 69.3686 81.7873 69.4554V87.0475C81.7873 87.1343 81.7583 87.2115 81.7005 87.279C81.6426 87.3368 81.5702 87.3658 81.4834 87.3658H78.4309C78.3441 87.3658 78.2717 87.3368 78.2139 87.279C78.156 87.2115 78.1271 87.1343 78.1271 87.0475V86.1939C78.1271 86.1457 78.1078 86.1168 78.0692 86.1071C78.0306 86.0975 77.9968 86.1071 77.9679 86.1361C77.2349 87.0909 76.2367 87.5683 74.9732 87.5683C73.758 87.5683 72.7115 87.2307 71.8338 86.5556C70.9561 85.8805 70.3244 84.9546 69.9386 83.7779C69.6493 82.8713 69.5046 81.82 69.5046 80.6241C69.5046 79.3895 69.6589 78.3141 69.9675 77.3979C70.3726 76.2791 71.0044 75.3966 71.8627 74.7504C72.7211 74.0945 73.7821 73.7666 75.0455 73.7666C76.2994 73.7666 77.2735 74.2006 77.9679 75.0686C77.9968 75.1265 78.0306 75.1458 78.0692 75.1265C78.1078 75.1072 78.1271 75.0735 78.1271 75.0252V69.4554ZM77.5773 83.3005C77.9245 82.6639 78.0981 81.7862 78.0981 80.6674C78.0981 79.5101 77.9052 78.5986 77.5194 77.9331C77.124 77.258 76.5453 76.9204 75.7834 76.9204C74.9636 76.9204 74.3463 77.258 73.9316 77.9331C73.4975 78.6179 73.2805 79.539 73.2805 80.6964C73.2805 81.738 73.4638 82.6061 73.8303 83.3005C74.2643 84.0528 74.9057 84.4289 75.7544 84.4289C76.5357 84.4289 77.1433 84.0528 77.5773 83.3005ZM96.3991 79.2931C96.5052 79.9489 96.539 80.6867 96.5004 81.5066C96.4908 81.7187 96.3799 81.8248 96.1677 81.8248H88.1239C88.0178 81.8248 87.984 81.8682 88.0226 81.955C88.0708 82.3022 88.1625 82.6495 88.2975 82.9967C88.7508 83.9612 89.6719 84.4434 91.0607 84.4434C92.1699 84.4337 93.0476 83.9853 93.6938 83.0979C93.7613 82.9918 93.8384 82.9388 93.9252 82.9388C93.9831 82.9388 94.0458 82.9726 94.1133 83.0401L95.9796 84.8919C96.0664 84.9787 96.1098 85.0558 96.1098 85.1234C96.1098 85.1619 96.076 85.2343 96.0085 85.3404C95.4395 86.0444 94.7017 86.5942 93.795 86.9896C92.8981 87.3754 91.9095 87.5683 90.8293 87.5683C89.3343 87.5683 88.0708 87.2307 87.0388 86.5556C86.0069 85.8805 85.2642 84.9353 84.8109 83.72C84.4444 82.852 84.2611 81.7139 84.2611 80.3058C84.2611 79.3509 84.3913 78.5118 84.6518 77.7885C85.0568 76.5539 85.7561 75.5702 86.7495 74.8372C87.7526 74.1138 88.9389 73.7521 90.3084 73.7521C92.0445 73.7521 93.4382 74.2537 94.4895 75.2567C95.5408 76.2598 96.1773 77.6052 96.3991 79.2931ZM90.3374 76.9204C89.2379 76.9204 88.5145 77.4316 88.1673 78.454C88.0998 78.6854 88.0419 78.9651 87.9937 79.2931C87.9937 79.3799 88.0371 79.4233 88.1239 79.4233H92.6232C92.7293 79.4233 92.763 79.3799 92.7245 79.2931C92.6377 78.7915 92.5943 78.5504 92.5943 78.5697C92.4399 78.0489 92.1699 77.6438 91.7841 77.3545C91.3887 77.0651 90.9064 76.9204 90.3374 76.9204ZM105.441 73.7955C106.068 73.7955 106.56 73.9161 106.917 74.1572C107.061 74.2344 107.115 74.3646 107.076 74.5478L106.526 77.5281C106.517 77.7306 106.396 77.7885 106.165 77.7017C105.904 77.6149 105.6 77.5715 105.253 77.5715C105.118 77.5715 104.93 77.5908 104.689 77.6293C104.062 77.6776 103.531 77.9042 103.097 78.3093C102.663 78.724 102.446 79.269 102.446 79.9441V87.0475C102.446 87.1343 102.417 87.2115 102.36 87.279C102.292 87.3368 102.215 87.3658 102.128 87.3658H99.09C99.0032 87.3658 98.9261 87.3368 98.8586 87.279C98.8007 87.2115 98.7718 87.1343 98.7718 87.0475V74.2874C98.7718 74.2006 98.8007 74.1283 98.8586 74.0704C98.9261 74.0125 99.0032 73.9836 99.09 73.9836H102.128C102.215 73.9836 102.292 74.0125 102.36 74.0704C102.417 74.1283 102.446 74.2006 102.446 74.2874V75.2857C102.446 75.3339 102.461 75.3676 102.49 75.3869C102.528 75.4062 102.557 75.3966 102.577 75.358C103.29 74.3163 104.245 73.7955 105.441 73.7955Z" fill="#252530"/>
<path d="M58.5384 100.791C58.5384 100.84 58.5192 100.878 58.4806 100.907C58.4516 100.946 58.4131 100.965 58.3648 100.965H53.446C53.3978 100.965 53.3736 100.989 53.3736 101.037V103.743C53.3736 103.791 53.3978 103.815 53.446 103.815H56.759C56.8072 103.815 56.8506 103.829 56.8892 103.858C56.9181 103.897 56.9326 103.94 56.9326 103.989V105.088C56.9326 105.136 56.9181 105.18 56.8892 105.218C56.8506 105.247 56.8072 105.262 56.759 105.262H53.446C53.3978 105.262 53.3736 105.286 53.3736 105.334V109.472C53.3736 109.52 53.3544 109.558 53.3158 109.587C53.2868 109.626 53.2483 109.645 53.2 109.645H51.8691C51.8208 109.645 51.7823 109.626 51.7533 109.587C51.7147 109.558 51.6954 109.52 51.6954 109.472V99.6918C51.6954 99.6436 51.7147 99.605 51.7533 99.5761C51.7823 99.5375 51.8208 99.5182 51.8691 99.5182H58.3648C58.4131 99.5182 58.4516 99.5375 58.4806 99.5761C58.5192 99.605 58.5384 99.6436 58.5384 99.6918V100.791ZM65.1355 109.645C65.039 109.645 64.9764 109.597 64.9474 109.501L64.47 107.953C64.4507 107.914 64.4266 107.895 64.3977 107.895H60.5783C60.5494 107.895 60.5253 107.914 60.506 107.953L60.0286 109.501C59.9996 109.597 59.9369 109.645 59.8405 109.645H58.3938C58.3359 109.645 58.2925 109.626 58.2636 109.587C58.2346 109.558 58.2298 109.51 58.2491 109.443L61.3885 99.6629C61.4174 99.5664 61.4801 99.5182 61.5766 99.5182H63.385C63.4814 99.5182 63.5441 99.5664 63.573 99.6629L66.7269 109.443C66.7365 109.462 66.7414 109.486 66.7414 109.515C66.7414 109.602 66.6883 109.645 66.5822 109.645H65.1355ZM60.9545 106.491C60.9448 106.549 60.9641 106.578 61.0123 106.578H63.9492C64.007 106.578 64.0263 106.549 64.0071 106.491L62.5169 101.645C62.5073 101.606 62.4928 101.587 62.4735 101.587C62.4542 101.587 62.4398 101.606 62.4301 101.645L60.9545 106.491ZM68.4051 109.645C68.3569 109.645 68.3183 109.626 68.2893 109.587C68.2508 109.558 68.2315 109.52 68.2315 109.472V99.6918C68.2315 99.6436 68.2508 99.605 68.2893 99.5761C68.3183 99.5375 68.3569 99.5182 68.4051 99.5182H69.7361C69.7843 99.5182 69.8277 99.5375 69.8663 99.5761C69.8952 99.605 69.9097 99.6436 69.9097 99.6918V108.126C69.9097 108.174 69.9338 108.199 69.982 108.199H74.8285C74.8768 108.199 74.9153 108.218 74.9443 108.256C74.9828 108.285 75.0021 108.324 75.0021 108.372V109.472C75.0021 109.52 74.9828 109.558 74.9443 109.587C74.9153 109.626 74.8768 109.645 74.8285 109.645H68.4051ZM76.6659 109.645C76.6176 109.645 76.5791 109.626 76.5501 109.587C76.5115 109.558 76.4923 109.52 76.4923 109.472V99.6918C76.4923 99.6436 76.5115 99.605 76.5501 99.5761C76.5791 99.5375 76.6176 99.5182 76.6659 99.5182H77.9968C78.0451 99.5182 78.0885 99.5375 78.127 99.5761C78.156 99.605 78.1704 99.6436 78.1704 99.6918V108.126C78.1704 108.174 78.1946 108.199 78.2428 108.199H83.0893C83.1375 108.199 83.1809 108.218 83.2195 108.256C83.2484 108.285 83.2629 108.324 83.2629 108.372V109.472C83.2629 109.52 83.2484 109.558 83.2195 109.587C83.1809 109.626 83.1375 109.645 83.0893 109.645H76.6659Z" fill="white"/>
<path d="M48.8599 135.773C48.8309 135.802 48.8213 135.831 48.8309 135.86C48.8502 135.889 48.8792 135.903 48.9177 135.903H54.6034C54.6709 135.903 54.7287 135.927 54.777 135.976C54.8348 136.024 54.8638 136.082 54.8638 136.149V138.189C54.8638 138.257 54.8348 138.314 54.777 138.363C54.7287 138.411 54.6709 138.435 54.6034 138.435H45.1707C45.0936 138.435 45.0309 138.411 44.9827 138.363C44.9344 138.314 44.9103 138.257 44.9103 138.189V136.25C44.9103 136.125 44.9537 136.019 45.0405 135.932C45.7253 135.267 46.4246 134.538 47.1383 133.748C47.852 132.957 48.3005 132.465 48.4837 132.272C48.8695 131.809 49.265 131.365 49.67 130.941C50.9432 129.533 51.5797 128.486 51.5797 127.802C51.5797 127.31 51.4061 126.905 51.0589 126.586C50.7117 126.278 50.2584 126.123 49.699 126.123C49.1396 126.123 48.6863 126.278 48.3391 126.586C47.9822 126.905 47.8038 127.324 47.8038 127.845V128.366C47.8038 128.433 47.7797 128.491 47.7314 128.539C47.6832 128.588 47.6253 128.612 47.5578 128.612H45.0839C45.0164 128.612 44.9586 128.588 44.9103 128.539C44.8525 128.491 44.8235 128.433 44.8235 128.366V127.382C44.8717 126.63 45.1129 125.959 45.5469 125.371C45.9809 124.792 46.5548 124.349 47.2685 124.04C47.9918 123.731 48.802 123.577 49.699 123.577C50.6924 123.577 51.5556 123.765 52.2886 124.141C53.0216 124.508 53.5858 125.005 53.9813 125.631C54.3864 126.268 54.5889 126.967 54.5889 127.729C54.5889 128.318 54.4394 128.92 54.1404 129.538C53.8511 130.155 53.4122 130.82 52.8239 131.534C52.3899 132.074 51.9221 132.614 51.4206 133.154C50.919 133.685 50.1716 134.452 49.1782 135.455L48.8599 135.773ZM61.6778 138.666C60.1347 138.666 58.9194 138.237 58.0321 137.379C57.1351 136.52 56.6866 135.349 56.6866 133.863V128.322C56.6866 126.866 57.1351 125.713 58.0321 124.865C58.9194 124.006 60.1347 123.577 61.6778 123.577C63.2114 123.577 64.4314 124.006 65.338 124.865C66.235 125.713 66.6835 126.866 66.6835 128.322V133.863C66.6835 135.349 66.235 136.52 65.338 137.379C64.4314 138.237 63.2114 138.666 61.6778 138.666ZM61.6778 136.135C62.3047 136.135 62.8014 135.942 63.168 135.556C63.5441 135.17 63.7322 134.654 63.7322 134.008V128.236C63.7322 127.599 63.5441 127.088 63.168 126.702C62.8014 126.316 62.3047 126.123 61.6778 126.123C61.0606 126.123 60.5687 126.316 60.2022 126.702C59.826 127.088 59.638 127.599 59.638 128.236V134.008C59.638 134.654 59.826 135.17 60.2022 135.556C60.5687 135.942 61.0606 136.135 61.6778 136.135ZM72.5572 135.773C72.5282 135.802 72.5234 135.831 72.5427 135.86C72.5523 135.889 72.5813 135.903 72.6295 135.903H78.3151C78.3826 135.903 78.4405 135.927 78.4887 135.976C78.537 136.024 78.5611 136.082 78.5611 136.149V138.189C78.5611 138.257 78.537 138.314 78.4887 138.363C78.4405 138.411 78.3826 138.435 78.3151 138.435H68.868C68.8005 138.435 68.7427 138.411 68.6944 138.363C68.6462 138.314 68.6221 138.257 68.6221 138.189V136.25C68.6221 136.125 68.6607 136.019 68.7378 135.932C69.4323 135.267 70.1315 134.538 70.8356 133.748C71.5493 132.957 71.9978 132.465 72.181 132.272C72.5765 131.809 72.9767 131.365 73.3818 130.941C74.6549 129.533 75.2915 128.486 75.2915 127.802C75.2915 127.31 75.1179 126.905 74.7707 126.586C74.4138 126.278 73.9557 126.123 73.3963 126.123C72.8369 126.123 72.3836 126.278 72.0364 126.586C71.6891 126.905 71.5155 127.324 71.5155 127.845V128.366C71.5155 128.433 71.4914 128.491 71.4432 128.539C71.395 128.588 71.3323 128.612 71.2551 128.612H68.7812C68.7137 128.612 68.6558 128.588 68.6076 128.539C68.5594 128.491 68.5353 128.433 68.5353 128.366V127.382C68.5739 126.63 68.8102 125.959 69.2442 125.371C69.6782 124.792 70.2569 124.349 70.9802 124.04C71.7036 123.731 72.5089 123.577 73.3963 123.577C74.3897 123.577 75.2529 123.765 75.9859 124.141C76.7286 124.508 77.2976 125.005 77.693 125.631C78.0885 126.268 78.2862 126.967 78.2862 127.729C78.2862 128.318 78.1415 128.92 77.8522 129.538C77.5532 130.155 77.1095 130.82 76.5212 131.534C76.0872 132.074 75.6194 132.614 75.1179 133.154C74.6163 133.685 73.8689 134.452 72.8755 135.455L72.5572 135.773ZM84.3046 135.773C84.2756 135.802 84.2708 135.831 84.2901 135.86C84.2997 135.889 84.3287 135.903 84.3769 135.903H90.0625C90.13 135.903 90.1879 135.927 90.2361 135.976C90.2843 136.024 90.3084 136.082 90.3084 136.149V138.189C90.3084 138.257 90.2843 138.314 90.2361 138.363C90.1879 138.411 90.13 138.435 90.0625 138.435H80.6154C80.5479 138.435 80.49 138.411 80.4418 138.363C80.3936 138.314 80.3695 138.257 80.3695 138.189V136.25C80.3695 136.125 80.4081 136.019 80.4852 135.932C81.1796 135.267 81.8789 134.538 82.583 133.748C83.2967 132.957 83.7451 132.465 83.9284 132.272C84.3238 131.809 84.7241 131.365 85.1292 130.941C86.4023 129.533 87.0389 128.486 87.0389 127.802C87.0389 127.31 86.8652 126.905 86.518 126.586C86.1612 126.278 85.703 126.123 85.1436 126.123C84.5842 126.123 84.1309 126.278 83.7837 126.586C83.4365 126.905 83.2629 127.324 83.2629 127.845V128.366C83.2629 128.433 83.2388 128.491 83.1906 128.539C83.1423 128.588 83.0797 128.612 83.0025 128.612H80.5286C80.4611 128.612 80.4032 128.588 80.355 128.539C80.3068 128.491 80.2827 128.433 80.2827 128.366V127.382C80.3212 126.63 80.5575 125.959 80.9916 125.371C81.4256 124.792 82.0043 124.349 82.7276 124.04C83.451 123.731 84.2563 123.577 85.1436 123.577C86.1371 123.577 87.0003 123.765 87.7333 124.141C88.4759 124.508 89.045 125.005 89.4404 125.631C89.8358 126.268 90.0336 126.967 90.0336 127.729C90.0336 128.318 89.8889 128.92 89.5996 129.538C89.3006 130.155 88.8569 130.82 88.2686 131.534C87.8345 132.074 87.3668 132.614 86.8652 133.154C86.3637 133.685 85.6162 134.452 84.6228 135.455L84.3046 135.773Z" fill="#252530"/>
</svg>
