<svg width="111" height="33" viewBox="0 0 111 33" fill="none" xmlns="http://www.w3.org/2000/svg">
<g clip-path="url(#clip0_753_326)">
<mask id="mask0_753_326" style="mask-type:luminance" maskUnits="userSpaceOnUse" x="1" y="1" width="109" height="32">
<path d="M109.672 1.48267H1.11716V32.2583H109.672V1.48267Z" fill="white"/>
</mask>
<g mask="url(#mask0_753_326)">
<path d="M12.8725 6.57715V15.2581H4.90116V6.57715H1.11664V27.2994H4.90116V18.9003H12.8725V27.2994H16.657V6.57715H12.8725Z" fill="#273266"/>
<path d="M28.7692 20.6013C28.7692 21.4318 28.4394 22.2283 27.8522 22.8155C27.2651 23.4027 26.4687 23.7327 25.6384 23.7327C24.808 23.7327 24.0117 23.4027 23.4245 22.8155C22.8373 22.2283 22.5075 21.4318 22.5075 20.6013V11.7256H18.9177V20.6013C18.9177 22.3822 19.625 24.0903 20.8842 25.3496C22.1434 26.609 23.8511 27.3165 25.6319 27.3165C27.4126 27.3165 29.1204 26.609 30.3796 25.3496C31.6387 24.0903 32.3461 22.3822 32.3461 20.6013V11.7256H28.7692V20.6013Z" fill="#273266"/>
<path d="M55.3662 12.6395C55.3662 10.8203 56.5696 10.2435 57.888 10.2435C58.9504 10.2435 60.3541 11.0521 61.272 12.0331L63.6232 9.26248C62.4494 7.67502 60.0686 6.57715 58.1198 6.57715C54.2259 6.57715 51.4093 8.85819 51.4093 12.6395C51.4093 19.6551 59.9832 17.4297 59.9832 21.3558C59.9832 22.5667 58.8077 23.6368 57.4615 23.6368C55.3384 23.6368 54.6504 22.5983 53.6751 21.5004L51.0663 24.2135C52.735 26.2627 54.7933 27.3031 57.2594 27.3031C60.9586 27.3031 63.9347 24.9942 63.9347 21.3854C63.9347 13.5965 55.3607 16.0166 55.3607 12.6395" fill="#273266"/>
<path d="M108.41 23.989C106.288 23.989 105.685 23.071 105.685 21.6653V15.4435H108.982V12.2907H105.685V8.1311L102.045 9.76493V22.4386C102.045 25.6804 104.282 27.3141 107.349 27.3141C107.83 27.3229 108.311 27.2844 108.784 27.1991L109.672 23.9297C109.271 23.9574 108.812 23.9853 108.41 23.9853" fill="#273266"/>
<path d="M42.4331 11.8296C40.6549 11.8296 39.4145 12.3452 38.2148 13.5227V6.7019H34.6194V19.3441C34.6194 24.0768 38.0405 27.3184 41.8843 27.3184C46.1491 27.3184 49.9003 24.0193 49.9003 19.5759C49.9003 15.1881 46.4477 11.8315 42.4331 11.8315V11.8296ZM42.411 23.7003C41.6042 23.7003 40.8154 23.461 40.1446 23.0128C39.4737 22.5644 38.9509 21.9272 38.6421 21.1817C38.3334 20.4363 38.2526 19.6159 38.4099 18.8245C38.5674 18.0331 38.9559 17.306 39.5265 16.7355C40.0969 16.1649 40.8238 15.7763 41.6151 15.6189C42.4064 15.4615 43.2266 15.5422 43.972 15.851C44.7174 16.1598 45.3546 16.6828 45.8028 17.3537C46.2511 18.0247 46.4903 18.8134 46.4903 19.6204C46.4903 20.7025 46.0605 21.7402 45.2955 22.5054C44.5305 23.2705 43.4929 23.7003 42.411 23.7003Z" fill="#273266"/>
<path d="M81.4726 19.3861C81.4726 14.9352 77.7289 11.6436 73.4567 11.6436C69.6128 11.6436 66.1918 14.8852 66.1918 19.6179V32.2675H69.7871V25.4374C70.9849 26.6131 72.2273 27.1305 74.0037 27.1305C78.0181 27.1305 81.4708 23.7758 81.4708 19.3861H81.4726ZM78.0682 19.3416C78.0682 20.1485 77.829 20.9373 77.3807 21.6083C76.9325 22.2792 76.2953 22.8021 75.5499 23.111C74.8045 23.4198 73.9843 23.5005 73.193 23.3431C72.4018 23.1857 71.6748 22.7971 71.1043 22.2265C70.5339 21.656 70.1453 20.9289 69.9879 20.1375C69.8306 19.346 69.9113 18.5258 70.22 17.7803C70.5288 17.0348 71.0517 16.3976 71.7225 15.9492C72.3934 15.5009 73.182 15.2617 73.9888 15.2617C75.0708 15.2617 76.1083 15.6915 76.8734 16.4566C77.6385 17.2218 78.0682 18.2595 78.0682 19.3416Z" fill="#273266"/>
</g>
</g>
<defs>
<clipPath id="clip0_753_326">
<rect width="109.391" height="32" fill="white" transform="translate(0.9375 0.765625)"/>
</clipPath>
</defs>
</svg>
