<svg width="115" height="27" viewBox="0 0 115 27" fill="none" xmlns="http://www.w3.org/2000/svg">
<path fill-rule="evenodd" clip-rule="evenodd" d="M44.4649 8.30629C48.1496 8.30629 50.2923 10.6077 50.2923 13.9244L50.2679 15.9664C50.2661 15.9921 50.2545 16.0162 50.2354 16.0336C50.2164 16.0512 50.1914 16.0609 50.1653 16.0609H41.4274C41.4274 18.4158 42.6204 19.809 44.9144 19.809C46.2978 19.809 47.1671 19.4016 48.1337 18.4746C48.1529 18.4566 48.1783 18.4468 48.2046 18.4468C48.2309 18.4468 48.2562 18.4566 48.2754 18.4746L49.9391 19.9444C49.9491 19.9533 49.9572 19.964 49.9629 19.9761C49.9687 19.9881 49.972 20.0012 49.9725 20.0145C49.9732 20.0278 49.971 20.0411 49.9663 20.0535C49.9617 20.066 49.9546 20.0775 49.9454 20.0871C49.2963 20.7801 48.5084 21.3309 47.6323 21.7039C46.7564 22.0771 45.8115 22.2646 44.8583 22.2541C41.3492 22.2541 38.6364 20.4746 38.6364 15.2524V15.0887C38.6438 13.7217 38.8205 12.5363 39.2584 11.5567C40.1942 9.46117 42.0937 8.30629 44.4649 8.30629ZM47.6145 13.7868L47.6113 13.5663C47.5849 12.9342 47.5045 12.6277 47.2347 12.1595C46.8033 11.3857 45.8356 10.8555 44.5443 10.8555C43.2539 10.8555 42.2577 11.3857 41.8262 12.1595C41.5565 12.6277 41.5026 12.9332 41.4772 13.5663V13.7868H47.6145ZM71.8155 8.30629C75.5014 8.30629 77.643 10.6077 77.643 13.9244L77.6208 15.9664C77.6189 15.9922 77.6071 16.0165 77.5879 16.034C77.5685 16.0516 77.5433 16.0612 77.5171 16.0609H68.7803C68.7803 18.4158 69.9722 19.809 72.2671 19.809C73.6494 19.809 74.5199 19.4016 75.4855 18.4746C75.5047 18.4564 75.5303 18.4462 75.5568 18.4462C75.5834 18.4462 75.609 18.4564 75.6282 18.4746L77.2908 19.9444C77.3008 19.9533 77.3089 19.964 77.3147 19.9761C77.3204 19.9881 77.3237 20.0012 77.3243 20.0145C77.325 20.0278 77.3228 20.0411 77.3181 20.0535C77.3135 20.066 77.3063 20.0775 77.2971 20.0871C76.648 20.78 75.8604 21.3306 74.9846 21.7038C74.1088 22.0769 73.1642 22.2644 72.2112 22.2541C68.702 22.2541 65.9882 20.4746 65.9882 15.2524V15.0887C65.9956 13.7217 66.1732 12.5363 66.61 11.5567C67.546 9.46117 69.4445 8.30629 71.8155 8.30629ZM74.9641 13.7868V13.5663C74.9387 12.9342 74.8572 12.6277 74.5876 12.1595C74.1571 11.3857 73.1883 10.8555 71.897 10.8555C70.6068 10.8555 69.6104 11.3857 69.179 12.1595C68.9103 12.6277 68.8575 12.9332 68.8299 13.5663V13.7868H74.9641ZM26.3608 8.56879C26.3604 8.55521 26.3626 8.54177 26.3675 8.52915C26.3724 8.51653 26.3798 8.50501 26.3894 8.49528C26.3992 8.48527 26.4108 8.47731 26.4237 8.47196C26.4366 8.46648 26.4505 8.46373 26.4644 8.46373H37.3842C37.4212 8.46373 37.4562 8.48266 37.4741 8.51516C37.4831 8.5308 37.4876 8.54849 37.4872 8.56645C37.4868 8.58442 37.4815 8.60184 37.4721 8.61706L30.6769 19.6178H37.3567C37.4138 19.6178 37.4593 19.6631 37.4593 19.7186V21.9927C37.4593 22.0191 37.4488 22.0453 37.4297 22.0631C37.42 22.0728 37.4084 22.0805 37.3958 22.0857C37.3831 22.0909 37.3695 22.0937 37.3556 22.0935H26.1239C26.1055 22.0935 26.0876 22.0887 26.0718 22.0796C26.0559 22.0702 26.0429 22.0569 26.0341 22.041C26.0252 22.0257 26.0207 22.0082 26.0208 21.9905C26.0209 21.9729 26.0259 21.9554 26.0351 21.9402L32.8609 10.9437H26.4644C26.4507 10.9438 26.4372 10.9414 26.4245 10.9363C26.4118 10.9312 26.4003 10.9238 26.3904 10.9142C26.3809 10.9049 26.3735 10.8938 26.3684 10.8816C26.3634 10.8692 26.3608 10.8561 26.3608 10.8429V8.56879ZM99.6295 4.95713C99.6431 4.95672 99.6565 4.95905 99.6693 4.96385C99.6819 4.96879 99.6933 4.97619 99.703 4.98552C99.7127 4.99498 99.7204 5.00623 99.7255 5.01871C99.7307 5.03105 99.7333 5.04449 99.7331 5.05793V8.46908H102.458C102.515 8.46908 102.56 8.51311 102.56 8.56879V10.8449C102.56 10.8582 102.557 10.8714 102.552 10.8838C102.547 10.8961 102.54 10.9072 102.53 10.9165C102.52 10.926 102.509 10.9334 102.497 10.9383C102.484 10.9434 102.471 10.9459 102.458 10.9457H99.7331V17.3333C99.7331 18.9081 100.417 19.599 101.773 19.6599C101.91 19.6672 102.047 19.6672 102.184 19.6599C102.211 19.6587 102.237 19.668 102.258 19.6861C102.279 19.704 102.29 19.7281 102.293 19.7554V22.082C102.293 22.1082 102.282 22.1333 102.264 22.1522C102.246 22.171 102.221 22.182 102.194 22.1828C102.057 22.1901 101.904 22.1901 101.657 22.1901C99.2508 22.1901 97.0533 21.0311 97.0533 18.0725V10.9446H95.2203C95.2069 10.9448 95.1936 10.9423 95.1811 10.9374C95.1688 10.9323 95.1574 10.9249 95.1479 10.9156C95.1383 10.9061 95.1308 10.895 95.1256 10.8827C95.1204 10.8705 95.1178 10.8573 95.1178 10.8438V8.56769C95.1178 8.51215 95.1633 8.46799 95.2203 8.46799H97.0533V5.05683C97.0533 5.00129 97.0997 4.95603 97.1558 4.95603H99.6306L99.6295 4.95713ZM112.983 15.2241C113.998 15.9233 114.47 16.8839 114.397 18.2834C114.255 20.988 111.73 22.2563 109.059 22.2563C106.973 22.2563 104.934 21.4636 103.73 20.1356C103.712 20.1155 103.703 20.0896 103.705 20.0631C103.707 20.0368 103.719 20.0123 103.739 19.9948L105.383 18.5407C105.403 18.5232 105.429 18.514 105.455 18.5149C105.482 18.516 105.507 18.527 105.526 18.5459C106.441 19.4604 107.573 19.9161 108.886 19.9161C110.021 19.9161 111.705 19.4961 111.738 18.1312C111.774 16.7296 109.925 16.652 108.885 16.4682C107.358 16.1994 105.806 15.8992 104.815 14.8409C104.472 14.4807 104.216 14.0487 104.065 13.5768C103.859 12.8865 103.831 12.1556 103.984 11.4518C104.111 10.8473 104.396 10.2864 104.809 9.82447C105.234 9.36778 105.754 9.00847 106.333 8.77135C107.166 8.4492 108.054 8.2908 108.948 8.3052C109.623 8.30904 110.294 8.3975 110.946 8.56879C111.534 8.73679 112.094 8.98666 112.608 9.311C113.041 9.58721 113.423 9.93157 113.74 10.3294C113.748 10.3392 113.755 10.3505 113.759 10.3628C113.763 10.375 113.764 10.3878 113.763 10.4006C113.761 10.4134 113.758 10.4258 113.751 10.4369C113.745 10.4482 113.737 10.4581 113.726 10.4659L112.047 11.9516C112.037 11.961 112.026 11.9684 112.013 11.9734C112.001 11.9782 111.987 11.9805 111.974 11.9799C111.96 11.9795 111.947 11.9762 111.935 11.9705C111.923 11.9647 111.912 11.9565 111.903 11.9463C111.189 11.1862 110.185 10.8932 109.39 10.826C108.701 10.7673 107.969 10.7904 107.27 11.1515C107.052 11.2586 106.87 11.424 106.742 11.6287C106.614 11.8336 106.547 12.0698 106.547 12.3106C106.525 13.1725 106.799 13.5904 109.033 13.9652C110.717 14.2487 112.066 14.5962 112.983 15.2241ZM91.6255 5.89052C90.5796 5.89052 89.7324 5.05999 89.7324 4.03636C89.7324 3.01272 90.5796 2.18225 91.6255 2.18225C92.6715 2.18225 93.5187 3.01167 93.5187 4.03636C93.5187 5.05999 92.6715 5.89052 91.6255 5.89052ZM83.8521 8.46908H92.8587C92.9158 8.46908 92.9613 8.51311 92.9613 8.56879V21.9991C92.9613 22.0124 92.9587 22.0255 92.9535 22.0379C92.9483 22.0502 92.9407 22.0613 92.9311 22.0708C92.9217 22.0801 92.9103 22.0875 92.898 22.0924C92.8855 22.0975 92.8722 22.1 92.8587 22.0998H90.386C90.3592 22.0997 90.3334 22.0892 90.3142 22.0705C90.3044 22.0612 90.2968 22.0501 90.2916 22.0379C90.2862 22.0255 90.2835 22.0124 90.2835 21.9991V10.9457H83.8458V21.9991C83.8453 22.0258 83.8343 22.0513 83.8151 22.0701C83.7959 22.0889 83.7701 22.0996 83.7433 22.0998H81.2684C81.2415 22.0997 81.2157 22.0892 81.1965 22.0705C81.1869 22.0612 81.1792 22.0501 81.1739 22.0379C81.1687 22.0255 81.1659 22.0124 81.1658 21.9991V10.9415H79.0971C79.0837 10.9416 79.0704 10.9392 79.058 10.9342C79.0456 10.9292 79.0342 10.9217 79.0247 10.9124C79.0151 10.903 79.0076 10.8918 79.0024 10.8795C78.9973 10.8673 78.9946 10.8541 78.9946 10.8407V8.56453C78.9962 8.53861 79.0077 8.51434 79.0268 8.49665C79.0458 8.47882 79.0711 8.46895 79.0971 8.46908H81.1658V6.34721C81.1658 3.60066 83.095 2.10561 85.8077 2.10561H86.0573C86.6363 2.108 87.2139 2.16176 87.7834 2.26623C87.8061 2.27005 87.827 2.2815 87.8423 2.29868C87.8578 2.31587 87.8667 2.33777 87.8678 2.36073V4.62113C87.8682 4.63553 87.8654 4.64993 87.8593 4.66296C87.8532 4.67612 87.8442 4.68764 87.833 4.69669C87.8219 4.70602 87.8087 4.71274 87.7946 4.71631C87.7806 4.72001 87.7658 4.72042 87.7515 4.71781C87.1749 4.64664 86.5939 4.61441 86.0128 4.62113C84.9087 4.64321 83.9347 5.18396 83.8543 6.58447V8.46908H83.8521ZM62.1734 9.53468C63.4288 10.6686 63.837 12.1248 63.837 13.6156V21.9875C63.837 22.0008 63.8344 22.014 63.8292 22.0263C63.8241 22.0387 63.8164 22.0498 63.8069 22.0591C63.7973 22.0686 63.7861 22.076 63.7736 22.0809C63.7611 22.086 63.7478 22.0885 63.7344 22.0883H61.2607C61.2473 22.0885 61.234 22.086 61.2215 22.0809C61.209 22.076 61.1978 22.0686 61.1882 22.0591C61.1787 22.0498 61.1711 22.0387 61.166 22.0263C61.1608 22.014 61.1582 22.0008 61.1582 21.9875V13.6125C61.1582 12.2812 60.2518 11.2481 58.9466 11.0371C58.1302 10.9038 56.9181 10.9573 56.2074 11.3909C55.6247 11.7479 55.0833 12.3789 55.0833 13.0875V21.9927C55.0834 22.0059 55.0807 22.0191 55.0755 22.0311C55.0701 22.0433 55.0623 22.0542 55.0526 22.0631C55.0332 22.0824 55.007 22.0934 54.9796 22.0935H52.5049C52.4914 22.0937 52.4781 22.0912 52.4656 22.0861C52.4532 22.0812 52.4419 22.0738 52.4323 22.0645C52.4227 22.055 52.4152 22.0439 52.4101 22.0316C52.4049 22.0193 52.4023 22.006 52.4023 21.9927V8.56879C52.4023 8.51311 52.4488 8.46908 52.5049 8.46908H54.9807C55.0378 8.46908 55.0833 8.51311 55.0833 8.56879V9.55882L55.2081 9.44856C55.3794 9.30154 55.5603 9.16508 55.7495 9.04124C56.6431 8.46168 57.5527 8.30739 58.6114 8.30739C60.1301 8.30739 61.2935 8.73679 62.1734 9.53468ZM17.79 4.39228V7.16924L0.183075 16.1701V13.4161L7.19601 9.82968L0.183075 8.10689V5.58497L10.5221 8.12883L14.4882 6.10049L0.183075 2.58437V0.0625L17.79 4.39228ZM0.183075 21.9792V19.2001L17.79 10.1993V12.9585L10.778 16.5438L17.79 18.2677V20.7875L7.44877 18.2446L3.48273 20.273L17.79 23.7901V26.31L0.183075 21.9792Z" fill="#273266"/>
</svg>
