<svg width="111" height="31" viewBox="0 0 111 31" fill="none" xmlns="http://www.w3.org/2000/svg">
<g clip-path="url(#clip0_753_301)">
<path d="M38.253 21.0042C35.6665 21.0042 33.5697 18.857 33.5697 16.2079C33.5697 13.5594 35.6665 11.4122 38.253 11.4122C40.8396 11.4122 42.9362 13.5594 42.9362 16.2079C42.9362 18.857 40.8396 21.0042 38.253 21.0042ZM42.951 21.6124C43.0156 22.3483 43.6036 23.2852 44.6224 23.2852H45.2184C45.4494 23.2852 45.6389 23.0956 45.6389 22.8642V9.73962H45.6362C45.6243 9.51852 45.4418 9.34124 45.2184 9.34124H43.3715C43.1481 9.34124 42.9655 9.51852 42.9532 9.73962H42.951V10.806C41.8192 9.40954 40.035 8.82983 38.2459 8.82983C34.179 8.82983 30.882 12.133 30.882 16.2079C30.882 20.2831 34.179 23.5863 38.2459 23.5863C40.035 23.5863 41.9849 22.8911 42.9507 21.6106L42.951 21.6124ZM68.5047 21.0042C65.9183 21.0042 63.8212 18.857 63.8212 16.2079C63.8212 13.5594 65.9183 11.4122 68.5047 11.4122C71.0913 11.4122 73.1879 13.5594 73.1879 16.2079C73.1879 18.857 71.0913 21.0042 68.5047 21.0042ZM73.2027 21.6124C73.2673 22.3483 73.8553 23.2852 74.8741 23.2852H75.4704C75.7014 23.2852 75.8906 23.0956 75.8906 22.8642V9.73962H75.8882C75.8761 9.51852 75.6935 9.34124 75.4704 9.34124H73.6232C73.3998 9.34124 73.2175 9.51852 73.2049 9.73962H73.2027V10.806C72.0708 9.40954 70.2866 8.82983 68.4975 8.82983C64.4305 8.82983 61.1337 12.133 61.1337 16.2079C61.1337 20.2831 64.4305 23.5863 68.4975 23.5863C70.2866 23.5863 72.2366 22.8911 73.2024 21.6106L73.2027 21.6124Z" fill="#273266"/>
<path d="M101.722 20.882C99.181 20.882 97.1216 18.7772 97.1216 16.1805C97.1216 13.5843 99.181 11.4796 101.722 11.4796C104.262 11.4796 106.321 13.5843 106.321 16.1805C106.321 18.7772 104.262 20.882 101.722 20.882ZM106.335 21.4782C106.399 22.1995 106.976 23.118 107.977 23.118H108.563C108.79 23.118 108.976 22.9321 108.976 22.7052V9.84005H108.973C108.961 9.62332 108.782 9.44954 108.563 9.44954H106.748C106.529 9.44954 106.35 9.62332 106.338 9.84005H106.335V10.8854C105.224 9.51649 103.472 8.94824 101.715 8.94824C97.7201 8.94824 94.4821 12.1862 94.4821 16.1805C94.4821 20.1752 97.7201 23.4131 101.715 23.4131C103.472 23.4131 105.387 22.7317 106.335 21.4764L106.335 21.4782Z" fill="#273266"/>
<path d="M92.1228 21.6324L92.1219 15.0467C92.1219 11.3343 89.762 8.82983 85.9982 8.82983C84.2017 8.82983 82.5577 9.85196 82.2088 10.7464C82.0964 10.0539 81.7258 9.32597 80.577 9.32597H79.9913C79.765 9.32597 79.5799 9.51009 79.5799 9.73452V21.2267V21.2285V22.4404V22.4628H79.5823C79.5939 22.6768 79.7729 22.8489 79.9916 22.8489H81.2164H81.8C81.8276 22.8489 81.8549 22.8457 81.881 22.8404C81.8931 22.8383 81.9043 22.8337 81.9159 22.8304C81.9293 22.8263 81.9434 22.823 81.9561 22.8178C81.9721 22.8112 81.9868 22.8023 82.0018 22.794C82.009 22.7897 82.0169 22.7864 82.0239 22.7818C82.042 22.7703 82.0584 22.7563 82.0744 22.7422C82.0771 22.7395 82.0804 22.7378 82.0828 22.7354C82.1008 22.7182 82.1173 22.6992 82.1318 22.6794C82.177 22.6177 82.2047 22.543 82.2093 22.4628H82.2115V22.4404V21.6327V21.4204V14.9445C82.2115 12.9508 83.8405 11.3343 85.85 11.3343C87.8594 11.3343 89.4884 12.9508 89.4884 14.9445L89.4901 21.2287L89.4906 21.2267C89.4906 21.2322 89.4914 21.2378 89.4914 21.2439V22.4404V22.4628H89.4936C89.5057 22.6768 89.6845 22.8489 89.9032 22.8489H91.1273H91.7116C91.7394 22.8489 91.7665 22.8457 91.7926 22.8404C91.8033 22.8385 91.8132 22.8343 91.8238 22.8313C91.8385 22.8271 91.8536 22.8234 91.8679 22.8178C91.8826 22.8117 91.8962 22.8034 91.9101 22.7953C91.9186 22.7908 91.9276 22.7873 91.9358 22.7818C91.9527 22.7709 91.9678 22.7579 91.9827 22.7446C91.9867 22.7413 91.9909 22.7387 91.9946 22.735C92.0117 22.7186 92.0269 22.701 92.0409 22.6822C92.042 22.6809 92.0431 22.6798 92.0442 22.6785C92.0888 22.6173 92.116 22.5437 92.1206 22.4639C92.1206 22.4633 92.1208 22.4628 92.1208 22.4628H92.1233V22.4404L92.1228 21.6324ZM49.5641 19.7325C50.8262 20.5886 52.204 21.004 53.5281 21.004C54.7893 21.004 56.0929 20.3641 56.0929 19.2501C56.0929 17.7629 53.2517 17.5315 51.4667 16.9376C49.6812 16.3438 48.1434 15.1163 48.1434 13.1281C48.1434 10.0863 50.9126 8.82983 53.4974 8.82983C55.135 8.82983 56.8245 9.35852 57.92 10.1155C58.2974 10.3952 58.0676 10.7167 58.0676 10.7167L57.0217 12.1783C56.9044 12.343 56.6987 12.4855 56.4038 12.3071C56.1088 12.1289 55.0742 11.4122 53.4974 11.4122C51.9203 11.4122 50.9704 12.1251 50.9704 13.0085C50.9704 14.0679 52.205 14.4012 53.6512 14.7622C56.171 15.4271 58.9201 16.2263 58.9201 19.2501C58.9201 21.9304 56.3588 23.5868 53.5281 23.5868C51.3827 23.5868 49.5563 22.9882 48.0245 21.8879C47.7052 21.5754 47.9281 21.2851 47.9281 21.2851L48.9687 19.8307C49.1803 19.5588 49.4473 19.6536 49.5641 19.7325Z" fill="#273266"/>
<path d="M19.8142 10.3052C19.8142 13.1578 17.5019 15.4705 14.6493 15.4705C11.7967 15.4705 9.48438 13.1578 9.48438 10.3052C9.48438 7.4533 11.7967 5.14062 14.6493 5.14062C17.5019 5.14062 19.8142 7.4533 19.8142 10.3052Z" fill="#273266"/>
<path d="M7.98851 16.249C5.14711 16.249 2.84378 18.5519 2.84378 21.3933C2.84378 24.2347 5.14711 26.5383 7.98851 26.5383C10.8299 26.5383 13.1335 24.2347 13.1335 21.3933C13.1335 18.5519 10.8299 16.249 7.98851 16.249Z" fill="#273266"/>
<path d="M21.2091 16.2485C18.4297 16.2485 16.1762 18.5519 16.1762 21.3935C16.1762 24.2347 18.4297 26.5382 21.2091 26.5382C23.9888 26.5382 26.2422 24.2347 26.2422 21.3935C26.2422 18.5519 23.9888 16.2485 21.2091 16.2485Z" fill="#273266"/>
</g>
<defs>
<clipPath id="clip0_753_301">
<rect width="109.375" height="30" fill="white" transform="translate(0.96875 0.765625)"/>
</clipPath>
</defs>
</svg>
