<svg width="112" height="33" viewBox="0 0 112 33" fill="none" xmlns="http://www.w3.org/2000/svg">
<g clip-path="url(#clip0_753_292)">
<path d="M33.2855 13.6997C33.9019 13.0227 34.6549 12.4844 35.4949 12.1202C36.3348 11.7561 37.2425 11.5745 38.1578 11.5874C39.9345 11.5874 41.3218 12.1376 42.1971 13.1937V12.3183C42.2028 12.1973 42.2532 12.0827 42.3385 11.9967C42.4238 11.9107 42.5379 11.8593 42.6588 11.8525H45.0037C45.1234 11.8611 45.2358 11.9133 45.3197 11.9991C45.4036 12.0849 45.4533 12.1984 45.4594 12.3183V25.3392C45.5311 27.1764 44.9635 28.9816 43.8533 30.4471C42.5886 31.9852 40.6693 32.7642 38.1478 32.7642C34.6426 32.7642 31.8762 30.5455 31.4204 27.3771C31.409 27.2628 31.4381 27.148 31.5027 27.053C31.5673 26.9579 31.6632 26.8886 31.7738 26.8571L34.0644 26.319C34.0764 26.318 34.0885 26.318 34.1006 26.319C34.1603 26.3099 34.2213 26.3127 34.2799 26.3273C34.3386 26.3419 34.3937 26.368 34.4423 26.404C34.4908 26.44 34.5317 26.4853 34.5626 26.5372C34.5936 26.5891 34.6139 26.6467 34.6225 26.7065C34.7248 27.5648 35.1442 28.3539 35.7983 28.9189C36.4523 29.4839 37.2939 29.7841 38.1578 29.7605C40.8962 29.7605 42.173 28.355 42.173 25.4175V24.277C41.6705 24.8402 41.0504 25.286 40.3565 25.583C39.6627 25.88 38.9121 26.0209 38.1578 25.9957C34.2612 25.9957 31.4345 22.9699 31.4345 18.8056C31.3999 16.9334 32.0592 15.1147 33.2855 13.6997ZM78.7549 11.4087H78.8774C83.0672 11.4649 85.663 14.3823 85.663 19.0506C85.6626 19.2981 85.6492 19.5454 85.6228 19.7915C85.6096 19.9017 85.5566 20.0033 85.4738 20.0773C85.391 20.1512 85.2841 20.1924 85.1731 20.1931H75.2176C75.2475 21.1986 75.6717 22.152 76.3985 22.8473C77.1254 23.5427 78.0965 23.9243 79.1022 23.9096C79.8899 23.9588 80.671 23.7396 81.3181 23.2878C81.9653 22.8361 82.4403 22.1783 82.6657 21.4219C82.707 21.3109 82.7896 21.2203 82.8963 21.169C83.003 21.1177 83.1254 21.1097 83.2378 21.1468L85.2253 21.8475C85.283 21.8659 85.3362 21.8963 85.3812 21.9368C85.4262 21.9773 85.462 22.027 85.4863 22.0824C85.513 22.1359 85.5288 22.1941 85.533 22.2537C85.5371 22.3133 85.5294 22.3732 85.5104 22.4298C85.0609 23.7615 84.1955 24.9136 83.0418 25.7161C81.888 26.5187 80.507 26.9292 79.1022 26.8872C78.1659 26.8962 77.237 26.7194 76.3694 26.3672C75.5017 26.015 74.7124 25.4943 74.0472 24.8352C73.3225 24.0717 72.7574 23.1713 72.3851 22.1866C72.0128 21.2019 71.8407 20.1528 71.879 19.1008C71.879 14.282 75.3802 11.3967 78.7629 11.3967L78.7549 11.4087ZM22.4065 11.4087C26.6705 11.4087 29.3205 14.3382 29.3205 19.0526C29.3202 19.3001 29.3068 19.5474 29.2804 19.7935C29.268 19.9041 29.2153 20.0062 29.1323 20.0803C29.0493 20.1544 28.9419 20.1953 28.8307 20.1951H18.8711C18.9011 21.2027 19.3269 22.1579 20.0564 22.8536C20.7858 23.5494 21.76 23.9295 22.7678 23.9116C23.5559 23.9616 24.3376 23.7428 24.9853 23.291C25.6329 22.8391 26.1081 22.1809 26.3333 21.4239C26.3737 21.3123 26.4563 21.221 26.5632 21.1696C26.6702 21.1182 26.793 21.1107 26.9054 21.1488L28.8949 21.8495C28.952 21.8686 29.0045 21.8993 29.0491 21.9397C29.0937 21.9802 29.1294 22.0295 29.1539 22.0845C29.1767 22.1395 29.1884 22.1985 29.1884 22.2581C29.1884 22.3177 29.1767 22.3767 29.1539 22.4318C28.7044 23.7627 27.8395 24.9141 26.6866 25.7165C25.5337 26.5189 24.1537 26.93 22.7498 26.8892C21.812 26.8994 20.8816 26.7232 20.0125 26.3709C19.1434 26.0187 18.3528 25.4974 17.6867 24.8372C16.9631 24.0745 16.3986 23.1753 16.026 22.1922C15.6534 21.2091 15.4802 20.1616 15.5165 19.1108C15.5165 14.292 19.0177 11.4067 22.4024 11.4067L22.4065 11.4087ZM7.31958 11.4087C9.2348 11.4087 10.7826 11.8725 11.937 12.7901C12.7094 13.4063 13.2827 14.2368 13.5852 15.1775C13.5951 15.2174 13.5969 15.2589 13.5906 15.2996C13.5843 15.3403 13.57 15.3793 13.5485 15.4144C13.5271 15.4495 13.4988 15.48 13.4655 15.5041C13.4322 15.5282 13.3944 15.5455 13.3543 15.5549L10.9754 16.344C10.87 16.3842 10.7535 16.3842 10.6481 16.344C10.6033 16.3233 10.5635 16.2932 10.5313 16.2558C10.4991 16.2184 10.4752 16.1746 10.4614 16.1272C10.2607 15.3582 9.57006 14.0671 7.32159 14.0671C5.75568 14.0671 4.81614 14.9666 4.81614 15.838C4.81614 16.4163 5.11326 17.1612 6.5286 17.4303L9.13844 17.9202C12.0554 18.5085 13.7257 20.1047 13.7257 22.3274V22.2893C13.7257 24.4979 11.6017 26.8571 7.65484 26.8571C3.06955 26.8571 1.27278 24.259 0.937515 22.739C0.926548 22.6592 0.945213 22.5781 0.989978 22.5112C1.03474 22.4442 1.1025 22.396 1.18043 22.3756L3.62967 21.6126C3.67347 21.6046 3.71836 21.6046 3.76217 21.6126C3.83209 21.6113 3.90118 21.6279 3.96292 21.6608C4.00711 21.6825 4.04612 21.7135 4.07729 21.7516C4.10847 21.7897 4.13108 21.834 4.1436 21.8817C4.45277 23.3514 5.77977 24.2268 7.68897 24.2268C9.46567 24.2268 10.2747 23.2972 10.2747 22.4539C10.2747 21.6106 9.554 20.9902 8.31533 20.7412L5.57299 20.2071C3.01133 19.7232 1.41532 18.131 1.41532 16.0589C1.41532 13.537 4.12353 11.4087 7.31958 11.4087ZM108.212 7.32275C108.336 7.3309 108.453 7.38603 108.538 7.47698C108.624 7.56794 108.671 7.68793 108.672 7.81267V11.8284H111.245C111.37 11.837 111.486 11.8923 111.571 11.9832C111.656 12.0741 111.703 12.1939 111.703 12.3183V14.4586C111.704 14.5808 111.656 14.6981 111.57 14.7851C111.484 14.872 111.368 14.9214 111.245 14.9225H108.672V22.0684C108.672 23.253 109.141 23.7429 110.35 23.7429C110.626 23.7383 110.901 23.7155 111.173 23.6747C111.239 23.6634 111.307 23.6667 111.371 23.6844C111.436 23.7021 111.496 23.7337 111.547 23.7771C111.643 23.8695 111.7 23.9966 111.703 24.1304V26.1383C111.704 26.2382 111.672 26.3357 111.613 26.416C111.553 26.4964 111.47 26.5554 111.374 26.584C110.786 26.7489 110.178 26.828 109.567 26.819C106.985 26.819 105.385 25.1585 105.385 22.48V14.9526H103.157C103.036 14.9453 102.923 14.8937 102.838 14.8077C102.753 14.7217 102.703 14.6074 102.697 14.4868V12.3424C102.696 12.2174 102.744 12.0968 102.829 12.0057C102.915 11.9145 103.032 11.8597 103.157 11.8525H103.725C104.426 11.8525 105.606 11.6075 105.606 9.93697V7.81267C105.605 7.68765 105.653 7.56712 105.738 7.47596C105.824 7.38479 105.941 7.32995 106.066 7.32275H108.212ZM59.8677 13.8021C60.3719 13.0321 61.0677 12.4066 61.8867 11.9869C62.7058 11.5673 63.6199 11.368 64.5393 11.4087C67.0849 11.4087 69.6566 13.2017 69.6566 17.119V26.1865C69.6504 26.3073 69.5999 26.4217 69.5147 26.5076C69.4295 26.5935 69.3157 26.6451 69.1949 26.6523H66.846C66.7252 26.6451 66.6114 26.5935 66.5262 26.5076C66.441 26.4217 66.3905 26.3073 66.3843 26.1865V17.4102C66.3843 16.2998 66.037 14.4205 63.6881 14.4205C61.9696 14.4205 60.749 15.7718 60.749 17.7314V26.1865C60.7433 26.3072 60.6932 26.4215 60.6084 26.5074C60.5235 26.5934 60.4099 26.645 60.2893 26.6523H57.9143C57.7939 26.6446 57.6805 26.5929 57.5958 26.507C57.511 26.4211 57.4608 26.307 57.4546 26.1865V17.4102C57.4546 16.2998 57.1073 14.4285 54.7564 14.4285C52.9697 14.4285 51.7652 15.7698 51.7652 17.7676V26.1865C51.759 26.307 51.7088 26.4211 51.624 26.507C51.5392 26.5929 51.4258 26.6446 51.3054 26.6523H48.9586C48.8389 26.644 48.7265 26.5919 48.6428 26.506C48.5591 26.4201 48.51 26.3063 48.5049 26.1865V12.2882C48.5104 12.1685 48.5597 12.0549 48.6433 11.9691C48.7269 11.8833 48.8391 11.8311 48.9586 11.8223H51.2171C51.3375 11.8301 51.4509 11.8818 51.5357 11.9677C51.6204 12.0536 51.6707 12.1676 51.6768 12.2882V13.1254C52.1792 12.5757 52.7923 12.1386 53.4756 11.8427C54.159 11.5468 54.8972 11.3989 55.6418 11.4087C56.4976 11.3832 57.3441 11.5928 58.0891 12.0148C58.8342 12.4368 59.4493 13.0549 59.8677 13.8021ZM95.6265 11.4087C96.3771 11.3766 97.1251 11.5156 97.8141 11.8151C98.5031 12.1145 99.1149 12.5667 99.6035 13.1375C100.515 14.3369 100.978 15.8169 100.914 17.3218V26.1865C100.909 26.3062 100.86 26.4197 100.776 26.5055C100.692 26.5914 100.58 26.6436 100.461 26.6523H98.0858C97.9652 26.6446 97.8516 26.593 97.7665 26.5071C97.6814 26.4213 97.6307 26.3072 97.6241 26.1865V17.7977C97.6241 15.6031 96.5922 14.4868 94.6328 14.4868C94.206 14.473 93.7819 14.5598 93.3949 14.7401C93.0078 14.9204 92.6685 15.1892 92.4044 15.5248C91.8748 16.2896 91.6071 17.2054 91.6415 18.135V26.1865C91.6353 26.307 91.5851 26.4211 91.5003 26.507C91.4156 26.5929 91.3022 26.6446 91.1818 26.6523H88.8108C88.6904 26.6446 88.577 26.5929 88.4923 26.507C88.4075 26.4211 88.3573 26.307 88.3511 26.1865V12.2781C88.3559 12.1569 88.4056 12.0419 88.4906 11.9554C88.5756 11.8689 88.6898 11.8172 88.8108 11.8103H91.1276C91.2471 11.8185 91.3595 11.8702 91.4435 11.9557C91.5274 12.0411 91.5772 12.1544 91.5833 12.2741V13.2539C92.0744 12.6612 92.6932 12.1874 93.3934 11.8678C94.0936 11.5483 94.8571 11.3913 95.6265 11.4087ZM38.5634 14.5169C36.2527 14.5169 34.7851 16.1613 34.7851 18.8056C34.7851 21.45 36.2346 23.0924 38.5634 23.0924C40.7878 23.0924 42.2854 21.3676 42.2854 18.8056C42.2854 16.2436 40.7878 14.5169 38.5634 14.5169ZM22.4306 14.3844C21.5779 14.3706 20.7508 14.6753 20.1107 15.239C19.4707 15.8026 19.0638 16.5846 18.9695 17.4323H25.9358C25.7651 15.5509 24.4261 14.3844 22.4306 14.3844ZM78.7931 14.3844C77.9404 14.3706 77.1133 14.6753 76.4733 15.239C75.8332 15.8026 75.4263 16.5846 75.332 17.4323H82.3003C82.1276 15.5509 80.7906 14.3844 78.7931 14.3844Z" fill="#273266"/>
<path d="M4.87089 2.00987V6.68012H3.54772V2.00987H1.71857V0.877441H6.71008V2.00987H4.87089Z" fill="#273266"/>
<path d="M14.9764 6.7002H13.6013L12.3485 2.42348L11.0657 6.7002H9.71058L8.00415 0.877441H9.40945L10.4915 5.07184L11.7121 0.877441H13.1174L14.322 5.07184L15.3699 0.877441H16.6628L14.9764 6.7002Z" fill="#273266"/>
<path d="M18.4836 6.68012V0.877441H19.7867V6.68012H18.4836Z" fill="#273266"/>
<path d="M22.1314 6.68012V0.877441H23.4546V5.53766H25.7194V6.68012H22.1314Z" fill="#273266"/>
<path d="M27.6904 6.68012V0.877441H28.9935V6.68012H27.6904Z" fill="#273266"/>
<path d="M33.9143 6.7906C32.318 6.7906 31.025 5.6381 31.025 3.78887C31.025 1.93964 32.3281 0.7771 33.9263 0.7771C35.5246 0.7771 36.8156 1.9296 36.8156 3.78887C36.8156 5.64814 35.5225 6.7906 33.9143 6.7906ZM33.9263 1.83925C32.9224 1.83925 32.3381 2.66648 32.3381 3.77883C32.3381 4.89118 32.9405 5.72845 33.9263 5.72845C34.9122 5.72845 35.4924 4.88114 35.4924 3.78887C35.4924 2.6966 34.8961 1.83925 33.9263 1.83925Z" fill="#273266"/>
</g>
<defs>
<clipPath id="clip0_753_292">
<rect width="110.766" height="32" fill="white" transform="translate(0.9375 0.765625)"/>
</clipPath>
</defs>
</svg>
