<svg width="123" height="42" viewBox="0 0 123 42" fill="none" xmlns="http://www.w3.org/2000/svg">
<g clip-path="url(#clip0_753_829)">
<path d="M61.9527 17.6285C61.5939 17.1357 61.0975 16.76 60.5258 16.5485C59.9389 16.3128 59.3651 16.195 58.8044 16.195C58.088 16.195 57.4357 16.3259 56.8495 16.5877C56.2736 16.8417 55.7547 17.209 55.3237 17.6677C54.8992 18.138 54.5676 18.6843 54.3462 19.2779C54.1199 19.9212 54.0074 20.5989 54.0138 21.2808C54.0138 22.0401 54.1244 22.7339 54.3462 23.3623C54.5507 23.9608 54.8693 24.5141 55.2844 24.9914C55.7026 25.4375 56.2088 25.7921 56.7709 26.0328C57.3447 26.2815 57.9898 26.4059 58.7069 26.4059C59.4502 26.4059 60.1084 26.2619 60.6822 25.9739C61.2553 25.6728 61.7186 25.2801 62.0706 24.7957L64.0458 26.1899C63.4425 26.9547 62.6733 27.5724 61.7964 27.9965C60.9098 28.4154 59.8735 28.6248 58.6873 28.6248C57.6051 28.6248 56.608 28.4481 55.6953 28.0939C54.8275 27.7485 54.0365 27.2349 53.368 26.5826C52.7108 25.9194 52.1926 25.1316 51.8437 24.2655C51.4786 23.3623 51.296 22.3674 51.296 21.2808C51.296 20.1681 51.4851 19.1666 51.8633 18.2765C52.2546 17.3732 52.7826 16.6074 53.4473 15.9783C54.139 15.3417 54.9497 14.8482 55.8327 14.5259C56.7455 14.1855 57.7367 14.0154 58.8051 14.0154C59.2487 14.0154 59.7113 14.0612 60.1942 14.1528C60.6764 14.2314 61.1397 14.3623 61.5826 14.5455C62.0262 14.7157 62.4429 14.931 62.8335 15.1928C63.2247 15.4546 63.5571 15.7695 63.8313 16.1361L61.9527 17.6285ZM65.4982 13.4263H67.8451V28.2714H65.4982V13.4263ZM77.3011 22.6161C77.3011 22.315 77.256 22.027 77.1644 21.7521C77.0898 21.4835 76.9561 21.235 76.7731 21.0248C76.5802 20.8084 76.339 20.6405 76.0691 20.5346C75.7957 20.4037 75.4698 20.3383 75.0917 20.3383C74.3877 20.3383 73.7877 20.5543 73.2924 20.9855C72.8102 21.4052 72.5433 21.9485 72.4909 22.6161H77.3011ZM79.648 23.6765V23.9906C79.648 24.0954 79.6415 24.2001 79.6284 24.3048H72.4909C72.5171 24.6452 72.6015 24.9594 72.7455 25.2474C72.9011 25.5223 73.1033 25.7637 73.3513 25.9739C73.5986 26.1703 73.8793 26.3274 74.192 26.4452C74.5047 26.563 74.8306 26.6219 75.1702 26.6219C75.7564 26.6219 76.2517 26.5172 76.656 26.3077C77.0551 26.0897 77.3968 25.7801 77.6531 25.4045L79.2175 26.6612C78.2924 27.9179 76.9491 28.5463 75.1891 28.5463C74.4597 28.5463 73.7877 28.435 73.1746 28.2117C72.583 27.9888 72.039 27.6556 71.5717 27.2299C71.1187 26.7971 70.7593 26.2761 70.5157 25.699C70.2684 25.0837 70.1447 24.3899 70.1447 23.6175C70.1447 22.8583 70.2684 22.1703 70.5157 21.5557C70.7767 20.9274 71.1287 20.3972 71.5717 19.9652C72.0161 19.5193 72.549 19.1715 73.136 18.9441C73.7639 18.6924 74.4349 18.5657 75.1113 18.571C75.7629 18.571 76.3622 18.6823 76.9106 18.9048C77.4616 19.1079 77.9573 19.4374 78.3578 19.867C78.7615 20.2859 79.0742 20.8161 79.296 21.4575C79.5309 22.0859 79.648 22.8248 79.648 23.6757V23.6765ZM87.6335 27.0728H87.5753C87.3404 27.4925 86.9622 27.8394 86.4407 28.1143C85.9193 28.3761 85.3258 28.507 84.6611 28.507C84.2829 28.507 83.8858 28.4546 83.4684 28.3499C83.066 28.2591 82.6822 28.0996 82.3338 27.8786C81.9899 27.6377 81.6974 27.3306 81.4735 26.9754C81.2517 26.5957 81.1411 26.131 81.1411 25.5812C81.1411 24.8743 81.3367 24.3114 81.728 23.8925C82.1324 23.4735 82.6473 23.1528 83.2727 22.9303C83.8982 22.7077 84.5891 22.5637 85.3455 22.4983C86.0926 22.4209 86.8431 22.3816 87.5942 22.3805V22.1448C87.5942 21.5557 87.3797 21.1237 86.9491 20.8488C86.5317 20.5608 86.0298 20.4168 85.4437 20.4168C84.9506 20.4162 84.4633 20.5234 84.016 20.731C83.5593 20.9405 83.1811 21.1957 82.8815 21.4968L81.6691 20.0634C82.1991 19.5684 82.8248 19.1873 83.5077 18.9434C84.1915 18.6984 84.9122 18.5725 85.6386 18.571C86.4735 18.571 87.1578 18.6888 87.6924 18.9245C88.24 19.1601 88.6698 19.4677 88.9826 19.8474C89.2953 20.227 89.5106 20.6525 89.6284 21.1237C89.7586 21.595 89.824 22.0663 89.824 22.5375V28.2714H87.6327L87.6335 27.0728ZM87.5942 23.971H87.0662C86.688 23.971 86.2909 23.9906 85.8735 24.0292C85.4812 24.0509 85.0934 24.1238 84.72 24.2459C84.368 24.3506 84.0742 24.5077 83.84 24.7172C83.6051 24.9135 83.488 25.1885 83.488 25.5419C83.488 25.7645 83.5338 25.9543 83.6247 26.1114C83.7287 26.2554 83.8597 26.3732 84.016 26.4648C84.1724 26.5565 84.3484 26.6219 84.544 26.6612C84.7397 26.7005 84.9353 26.7194 85.1302 26.7194C85.9389 26.7194 86.5513 26.5041 86.9687 26.0721C87.3862 25.6401 87.5942 25.051 87.5942 24.3048V23.9703V23.971ZM92.5578 18.8459H94.8066V20.4168H94.8458C95.0912 19.8857 95.4682 19.4261 95.9411 19.0815C96.4102 18.7412 96.9578 18.571 97.5833 18.571C97.6749 18.571 97.7724 18.5775 97.8764 18.5906C97.9811 18.5906 98.0728 18.6037 98.1506 18.6299V20.7899C98.0155 20.7547 97.8782 20.7284 97.7397 20.7114C97.6359 20.6983 97.5315 20.6917 97.4269 20.6917C96.8924 20.6917 96.4618 20.7899 96.136 20.9863C95.8324 21.162 95.5719 21.4036 95.3738 21.6932C95.1995 21.9493 95.0735 22.2353 95.0022 22.5368C94.9367 22.8255 94.904 23.0546 94.904 23.2248V28.2714H92.5578V18.8459ZM102.066 13.4263V20.0437H102.125C102.243 19.8866 102.393 19.723 102.575 19.5528C102.757 19.3826 102.972 19.2255 103.22 19.0815C103.505 18.9279 103.807 18.8092 104.12 18.7281C104.495 18.6184 104.883 18.5654 105.273 18.571C105.938 18.571 106.551 18.7019 107.112 18.9637C107.672 19.2125 108.155 19.5594 108.559 20.0037C108.971 20.4616 109.29 20.9951 109.497 21.5746C109.723 22.198 109.835 22.8565 109.83 23.5194C109.834 24.1883 109.722 24.8528 109.497 25.483C109.299 26.0684 108.986 26.6089 108.578 27.0735C108.174 27.5282 107.682 27.8957 107.131 28.1535C106.571 28.4154 105.932 28.5463 105.215 28.5463C104.564 28.5494 103.922 28.4015 103.338 28.1143C102.775 27.8363 102.306 27.3994 101.988 26.8575H101.949V28.2714H99.72V13.4263H102.066ZM107.444 23.5194C107.444 23.1528 107.386 22.7921 107.268 22.4394C107.17 22.0839 107.004 21.7506 106.78 21.4575C106.555 21.1673 106.267 20.9322 105.938 20.7703C105.599 20.587 105.202 20.4954 104.745 20.4954C104.316 20.4954 103.931 20.587 103.592 20.7703C103.253 20.9535 102.959 21.1892 102.712 21.4772C102.474 21.7705 102.289 22.1027 102.164 22.459C102.049 22.8142 101.989 23.1852 101.988 23.5586C101.988 23.9252 102.047 24.2917 102.164 24.6583C102.295 25.0117 102.477 25.3325 102.712 25.6205C102.959 25.9085 103.253 26.1441 103.592 26.3274C103.931 26.4975 104.316 26.5819 104.745 26.5819C105.202 26.5819 105.599 26.491 105.938 26.3077C106.266 26.1344 106.552 25.8935 106.78 25.6008C107.001 25.3128 107.164 24.9855 107.268 24.619C107.384 24.2638 107.443 23.8928 107.444 23.5194ZM112.133 18.8459H114.479V28.2714H112.133V18.8459ZM111.8 15.6452C111.8 15.2655 111.937 14.9383 112.21 14.6634C112.497 14.3754 112.856 14.2314 113.287 14.2314C113.716 14.2314 114.075 14.3688 114.361 14.6437C114.661 14.9055 114.811 15.2394 114.811 15.6452C114.811 16.051 114.661 16.3914 114.361 16.6663C114.075 16.9281 113.716 17.059 113.286 17.059C112.856 17.059 112.497 16.9208 112.21 16.6466C112.079 16.515 111.976 16.3587 111.905 16.1868C111.835 16.015 111.799 15.8309 111.8 15.6452ZM115.977 20.731V18.8459H117.62V16.1165H119.927V18.8459H122.273V20.731H119.927V25.1092C119.927 25.5288 119.999 25.8757 120.142 26.1506C120.298 26.4255 120.636 26.563 121.159 26.563C121.315 26.563 121.484 26.5499 121.667 26.5237C121.849 26.4845 122.012 26.4321 122.156 26.3666L122.234 28.2125C121.994 28.2987 121.744 28.358 121.491 28.3892C121.204 28.4415 120.931 28.4677 120.669 28.4677C120.044 28.4677 119.535 28.3826 119.144 28.2125C118.753 28.0292 118.44 27.787 118.206 27.4852C117.982 27.1659 117.822 26.806 117.736 26.4255C117.656 25.9982 117.617 25.5643 117.62 25.1295V20.731H115.977Z" fill="#273266"/>
</g>
<g clip-path="url(#clip1_753_829)">
<path d="M26.857 35.9999H12.011L11.405 35.9951C8.8982 35.9543 7.9011 35.6489 6.89644 35.1094C5.81451 34.5284 4.9654 33.6758 4.38677 32.5894L4.26693 32.356C3.78497 31.3784 3.52079 30.2995 3.50118 27.7649L3.5 12.5463C3.5 9.57453 3.80814 8.49691 4.38677 7.4105C4.9654 6.32409 5.81451 5.47146 6.89644 4.89044L7.12884 4.77011C8.10237 4.28615 9.17683 4.02087 11.7011 4.00118L26.857 4C29.8164 4 30.8896 4.30942 31.9715 4.89044C33.0535 5.47146 33.9026 6.32409 34.4812 7.4105L34.601 7.64386C35.083 8.62142 35.3472 9.70032 35.3668 12.235L35.368 27.4536L35.3633 28.0621C35.3226 30.5793 35.0185 31.5806 34.4812 32.5894C33.9026 33.6758 33.0535 34.5284 31.9715 35.1094L31.7391 35.2298C30.7267 35.7331 29.605 35.9999 26.857 35.9999Z" fill="#C4D3E0" fill-opacity="0.2"/>
<path d="M35.3676 20V27.4537C35.3676 30.4254 35.0594 31.503 34.4808 32.5894C33.9022 33.6759 33.0531 34.5285 31.9711 35.1095C30.8892 35.6905 29.816 35.9999 26.8566 35.9999H19.4336V20H35.3676Z" fill="url(#paint0_linear_753_829)"/>
<path d="M19.4336 4H26.8566C29.816 4 30.8892 4.30942 31.9711 4.89044C33.0531 5.47146 33.9022 6.32408 34.4808 7.4105C35.0594 8.49691 35.3676 9.57453 35.3676 12.5462V19.9999H19.4336V4Z" fill="url(#paint1_linear_753_829)"/>
<path d="M12.011 4H19.434V35.9999H12.011C9.05156 35.9999 7.97838 35.6904 6.89644 35.1094C5.81451 34.5284 4.9654 33.6758 4.38677 32.5894C3.80814 31.5029 3.5 30.4253 3.5 27.4536V12.5463C3.5 9.57453 3.80814 8.49691 4.38677 7.4105C4.9654 6.32409 5.81451 5.47146 6.89644 4.89044C7.97838 4.30942 9.05156 4 12.011 4Z" fill="url(#paint2_linear_753_829)"/>
</g>
<defs>
<linearGradient id="paint0_linear_753_829" x1="27.4006" y1="20" x2="35.4203" y2="35.9734" gradientUnits="userSpaceOnUse">
<stop stop-color="#DEF2FE"/>
<stop offset="1" stop-color="#DBF1FE"/>
</linearGradient>
<linearGradient id="paint1_linear_753_829" x1="19.4336" y1="4" x2="27.4534" y2="19.9734" gradientUnits="userSpaceOnUse">
<stop stop-color="#57BCFD"/>
<stop offset="1" stop-color="#51B5FD"/>
</linearGradient>
<linearGradient id="paint2_linear_753_829" x1="9.47525" y1="4" x2="23.1088" y2="31.1548" gradientUnits="userSpaceOnUse">
<stop stop-color="#1CA7FD"/>
<stop offset="1" stop-color="#148CFC"/>
</linearGradient>
<clipPath id="clip0_753_829">
<rect width="72" height="16" fill="white" transform="translate(51 13)"/>
</clipPath>
<clipPath id="clip1_753_829">
<rect width="39" height="41" fill="white" transform="translate(0 1)"/>
</clipPath>
</defs>
</svg>
