<svg width="132" height="37" viewBox="0 0 132 37" fill="none" xmlns="http://www.w3.org/2000/svg">
<g clip-path="url(#clip0_753_310)">
<path d="M29.3706 3.01562H5.32483C3.11162 3.01562 1.3172 4.81004 1.3172 7.02326V31.0691C1.3172 33.2823 3.11162 35.0767 5.32483 35.0767H29.3706C31.5838 35.0767 33.3783 33.2823 33.3783 31.0691V7.02326C33.3783 4.81004 31.5838 3.01562 29.3706 3.01562ZM21.6219 8.89382C21.6219 8.3037 22.1008 7.82479 22.6909 7.82479C23.281 7.82479 23.7599 8.3037 23.7599 8.89382V23.172C23.7599 23.7621 23.281 24.2411 22.6909 24.2411C22.1008 24.2411 21.6219 23.7621 21.6219 23.172V8.89382ZM16.2787 8.35279C16.2787 7.76267 16.7576 7.28375 17.3477 7.28375C17.9379 7.28375 18.4168 7.76267 18.4168 8.35279V23.8493C18.4168 24.4394 17.9379 24.9183 17.3477 24.9183C16.7576 24.9183 16.2787 24.4394 16.2787 23.8493V8.35279ZM10.9355 8.89382C10.9355 8.3037 11.4144 7.82479 12.0046 7.82479C12.5947 7.82479 13.0726 8.3037 13.0726 8.89382V23.172C13.0726 23.7621 12.5947 24.2411 12.0046 24.2411C11.4144 24.2411 10.9355 23.7621 10.9355 23.172V8.89382ZM5.59234 11.0309C5.59234 10.4408 6.07025 9.96186 6.66038 9.96186C7.2505 9.96186 7.72941 10.4408 7.72941 11.0309V20.6432C7.72941 21.2333 7.2505 21.7122 6.66038 21.7122C6.07025 21.7122 5.59234 21.2333 5.59234 20.6432V11.0309ZM28.7304 27.3319C28.5661 27.4742 24.6066 30.7955 17.3477 30.7955C10.0889 30.7955 6.13137 27.4742 5.96505 27.3319C5.5172 26.9482 5.4641 26.2739 5.84883 25.8251C6.23156 25.3782 6.90484 25.3251 7.3527 25.7078C7.41481 25.7599 10.9505 28.6585 17.3467 28.6585C23.8231 28.6585 27.3037 25.7389 27.3378 25.7099C27.7846 25.3251 28.4609 25.3772 28.8436 25.8251C29.2304 26.2739 29.1783 26.9482 28.7304 27.3319ZM29.1031 20.6432C29.1031 21.2333 28.6242 21.7122 28.0341 21.7122C27.444 21.7122 26.9661 21.2333 26.9661 20.6432V11.0309C26.9661 10.4408 27.444 9.96186 28.0341 9.96186C28.6242 9.96186 29.1031 10.4408 29.1031 11.0309V20.6432Z" fill="#273266"/>
<path d="M46.0965 23.6809C46.0965 24.216 45.6877 24.6558 45.1056 24.6558C44.5395 24.6558 44.1307 24.215 44.1307 23.6809V14.3862C44.1307 13.8512 44.5395 13.4114 45.1216 13.4114C45.6877 13.4114 46.0965 13.8522 46.0965 14.3862V23.6809Z" fill="#273266"/>
<path d="M58.8037 14.3863V22.8795C58.8037 24.0277 58.1905 24.6729 57.2156 24.6729H57.1375C56.2097 24.6729 55.7689 24.1379 55.3761 23.3514L53.3944 19.498L51.633 15.5195L51.6801 19.3728L51.6961 23.666C51.6961 24.201 51.2873 24.6408 50.7052 24.6408C50.1392 24.6408 49.7304 24.2 49.7304 23.666V15.1728C49.7304 14.1188 50.3435 13.3794 51.4136 13.3794H51.4917C52.4826 13.3794 52.8914 13.9144 53.2851 14.7009L55.2349 18.5232L56.902 22.2353L56.8549 18.6805L56.8389 14.3873C56.8389 13.8523 57.2477 13.4125 57.8298 13.4125C58.3949 13.4115 58.8037 13.8513 58.8037 14.3863Z" fill="#273266"/>
<path d="M66.6837 23.6659C66.6837 24.2009 66.2749 24.6407 65.6928 24.6407C65.1267 24.6407 64.7179 24.1999 64.7179 23.6659V15.2519H62.2803C61.7773 15.2519 61.3685 14.8741 61.3685 14.3241C61.3685 13.7891 61.7773 13.4124 62.2803 13.4124H69.1213C69.6243 13.4124 70.0331 13.7901 70.0331 14.3401C70.0331 14.8751 69.6243 15.2519 69.1213 15.2519H66.6837V23.6659Z" fill="#273266"/>
<path d="M72.5969 23.3514V14.6228C72.5969 13.8052 73.0528 13.3493 73.8864 13.3804H79.5482C80.0511 13.3804 80.4599 13.7731 80.4599 14.3082C80.4599 14.8432 80.0511 15.2199 79.5482 15.2199H74.5466V17.9251H78.9661C79.454 17.9251 79.8467 18.2867 79.8467 18.8057C79.8467 19.3247 79.454 19.6864 78.9661 19.6864H74.5466V22.8003H79.5482C80.0511 22.8003 80.4599 23.1931 80.4599 23.7281C80.4599 24.2631 80.0511 24.6398 79.5482 24.6398H73.8393C73.0217 24.6408 72.5659 24.185 72.5969 23.3514Z" fill="#273266"/>
<path d="M91.6272 23.3664C91.8947 23.8223 91.7214 24.4044 91.1713 24.6879C90.6363 24.9554 90.0542 24.7511 89.7877 24.2952L87.6015 20.2535H85.5256L85.5416 23.682C85.5416 24.217 85.1328 24.6569 84.5507 24.6569C83.9846 24.6569 83.5758 24.216 83.5758 23.682V14.6228C83.5758 13.8052 84.0317 13.3493 84.8653 13.3804H88.5924C91.1563 13.3804 92.2253 15.0476 92.2253 16.7458C92.2253 18.3659 91.2815 19.5612 89.6614 19.8758L91.6272 23.3664ZM85.5246 18.4751H88.6385C89.6925 18.4751 90.2425 17.7988 90.2425 16.839C90.2425 15.8792 89.6604 15.2189 88.6225 15.2189H85.5246V18.4751Z" fill="#273266"/>
<path d="M96.282 23.8072C95.1028 22.7532 94.5678 21.1021 94.5678 19.0261C94.5678 16.9341 95.0868 15.299 96.251 14.261C96.9744 13.6318 97.9492 13.207 99.3649 13.207C100.607 13.207 101.567 13.4906 102.29 14.1037C102.92 14.6067 103.376 15.315 103.643 16.3059C103.784 16.8249 103.423 17.3439 102.826 17.4541C102.259 17.5483 101.804 17.1866 101.63 16.6676C101.442 16.1647 101.189 15.803 100.891 15.5505C100.482 15.1888 99.9791 15.0315 99.3178 15.0315C98.6105 15.0315 97.9963 15.2359 97.5404 15.6918C96.8802 16.352 96.5966 17.5323 96.5966 19.0261C96.5966 20.5049 96.8642 21.6842 97.5565 22.3444C98.0123 22.8003 98.6105 23.0047 99.3018 23.0047C100.025 23.0047 100.575 22.8163 101.032 22.3915C101.268 22.1711 101.473 21.8886 101.614 21.5579C101.819 21.07 102.243 20.7083 102.793 20.8346C103.343 20.9608 103.69 21.4948 103.517 22.0138C103.233 22.8785 102.746 23.5708 102.086 24.0427C101.363 24.5617 100.466 24.8292 99.3339 24.8292C97.8871 24.8292 96.9744 24.4044 96.282 23.8072Z" fill="#273266"/>
<path d="M105.86 19.0261C105.86 15.5034 107.307 13.207 110.721 13.207C114.102 13.207 115.565 15.4403 115.565 19.0261C115.565 22.659 114.086 24.8452 110.721 24.8452C107.292 24.8452 105.86 22.659 105.86 19.0261ZM113.551 19.0261C113.551 16.352 112.576 15.0475 110.705 15.0475C108.864 15.0475 107.889 16.353 107.889 19.0261C107.889 21.7002 108.833 23.0047 110.705 23.0047C112.56 23.0047 113.551 21.6992 113.551 19.0261Z" fill="#273266"/>
<path d="M130.82 23.6659C130.82 24.2009 130.411 24.6407 129.829 24.6407C129.263 24.6407 128.854 24.1999 128.854 23.6659V19.4509L128.901 15.346L127.533 19.514L126.149 23.6188C125.913 24.3422 125.426 24.6257 124.812 24.6257C124.167 24.6257 123.695 24.3271 123.444 23.6038L122.028 19.515L120.723 15.4102L120.77 19.4519V23.6669C120.77 24.2019 120.361 24.6417 119.779 24.6417C119.213 24.6417 118.804 24.2009 118.804 23.6669V15.2529C118.804 14.0886 119.433 13.4124 120.534 13.4124C121.572 13.4124 122.154 13.9624 122.484 14.9693L123.931 19.2625L124.811 22.1881L125.708 19.2625L127.155 14.9693C127.485 13.9624 128.052 13.4124 129.09 13.4124C130.191 13.4124 130.804 14.0726 130.804 15.2529L130.82 23.6659Z" fill="#273266"/>
</g>
<defs>
<clipPath id="clip0_753_310">
<rect width="131.25" height="36" fill="white" transform="translate(0.359375 0.765625)"/>
</clipPath>
</defs>
</svg>
