<svg width="104" height="37" viewBox="0 0 104 37" fill="none" xmlns="http://www.w3.org/2000/svg">
<path d="M32.9662 15.469H23.2173C22.7563 15.469 22.3792 15.8602 22.3932 16.3211C22.3932 16.405 22.4072 16.4888 22.4351 16.5726L24.7816 22.6492C24.8654 22.8587 24.7536 23.0962 24.5441 23.166C24.4883 23.18 24.4324 23.194 24.3765 23.194L21.3736 23.0123C21.234 22.9984 21.1082 23.0682 21.0244 23.18L18.6919 26.4907C18.5663 26.6862 18.3148 26.7421 18.1333 26.6164C18.1333 26.6164 18.1333 26.6164 18.1193 26.6164L14.6694 24.2696C14.5297 24.1718 14.3482 24.1718 14.2225 24.2696L9.44575 27.5104C9.26417 27.6361 9.01277 27.5942 8.88711 27.4126C8.81724 27.3148 8.80329 27.1892 8.83125 27.0774L10.1581 22.3139C10.2139 22.1183 10.1162 21.9088 9.92064 21.8389L7.39263 20.8052C7.18308 20.7214 7.08531 20.4979 7.16913 20.2884C7.18314 20.2465 7.21104 20.2186 7.239 20.1766L9.47371 17.4108C9.58543 17.2711 9.58543 17.0755 9.48766 16.9358L7.61606 14.2118C7.49039 14.0302 7.5323 13.7788 7.71383 13.653C7.76975 13.6111 7.83956 13.5832 7.92337 13.5832L10.8425 13.3597C11.066 13.3457 11.2196 13.1641 11.2196 12.9406L10.9961 8.84767C10.9821 8.62414 11.1637 8.42857 11.3872 8.41462C11.443 8.41462 11.4989 8.42857 11.5548 8.44252L15.1723 9.93723C15.3259 10.0071 15.5074 9.96519 15.6192 9.82549L18.1053 7.03165C18.2589 6.86405 18.5103 6.8501 18.678 7.00375C18.7199 7.04566 18.7478 7.08752 18.7757 7.14345L20.2702 10.9989C20.4378 11.404 20.9127 11.5996 21.3177 11.4319C21.3736 11.404 21.4434 11.3761 21.4853 11.3342L27.3515 6.97578C27.7007 6.7104 27.7845 6.22145 27.5191 5.85826C27.3515 5.62078 27.0582 5.49506 26.7649 5.53697L22.896 6.05383C22.7144 6.08176 22.5468 5.97001 22.477 5.80238L20.4378 0.577928C20.2702 0.172823 19.8093 -0.0227438 19.4043 0.130916C19.2925 0.172824 19.1948 0.24267 19.111 0.340454L14.6974 5.13186C14.5856 5.25758 14.4041 5.28552 14.2504 5.22965L8.44011 2.77108C8.03509 2.60345 7.5602 2.78505 7.37868 3.20412C7.33677 3.28794 7.32276 3.38572 7.32276 3.48351L7.11327 9.47628C7.09932 9.6858 6.94569 9.83945 6.73617 9.86741L1.4287 10.2166C0.981751 10.2446 0.660511 10.6217 0.688444 11.0688C0.702411 11.2085 0.744313 11.3481 0.828115 11.4599L4.36177 16.6703C4.45954 16.824 4.45954 17.0196 4.33384 17.1593L0.744313 21.2801C0.451005 21.6154 0.492906 22.1183 0.814148 22.3977C0.883983 22.4536 0.953818 22.4955 1.02365 22.5374L5.17186 24.3254C5.35343 24.3953 5.4512 24.6048 5.39533 24.7864L2.76953 35.0537C2.6578 35.4868 2.92317 35.9198 3.34218 36.0316C3.57962 36.0874 3.81706 36.0455 4.01259 35.9058L13.8873 28.8235C14.027 28.7257 14.2085 28.7257 14.3482 28.8235L18.8456 31.9805C19.2087 32.232 19.7115 32.1482 19.9629 31.7849L19.9769 31.771L22.7843 27.4545C22.868 27.3288 23.0217 27.259 23.1754 27.2869L29.8935 28.0971C30.4382 28.1809 30.9829 27.7199 30.7874 27.2171L27.994 19.9671C27.9102 19.7575 28.0219 19.5201 28.2314 19.4362L33.3434 17.0196C34.0975 16.6424 33.8322 15.469 32.9662 15.469Z" fill="#273266"/>
<path d="M102.927 15.4829H95.3569C95.2031 15.4829 95.0779 15.6087 95.0779 15.7623V19.1149C95.0779 19.2686 95.2031 19.3943 95.3569 19.3943H98.5976C98.7508 19.3943 98.8765 19.506 98.8765 19.6597V19.6737C98.8485 21.4058 98.4855 24.507 95.3569 24.507C92.8012 24.507 91.7675 21.4198 91.7675 17.7879C91.7675 13.4854 92.8293 10.8312 95.2031 10.8312C96.9212 10.8312 97.4941 12.298 97.6616 12.8428C97.7033 12.9545 97.8011 13.0384 97.9269 13.0384H101.866C102.019 13.0384 102.145 12.9126 102.145 12.759V12.745C101.991 10.5937 100.148 6.82206 95.2871 6.82206C91.8933 6.82206 88.7087 8.88951 87.6893 14.0022V7.40875C87.6893 7.33893 87.6195 7.26912 87.5492 7.26912H83.3875C83.3171 7.26912 83.2474 7.32498 83.2474 7.40875V19.1708C83.2474 19.2546 83.1776 19.3105 83.0942 19.2965C83.0381 19.2965 82.9964 19.2686 82.9821 19.2127L77.5208 7.33893C77.5071 7.29702 77.451 7.2551 77.3956 7.2551H73.7078C73.6381 7.2551 73.5683 7.31097 73.5683 7.3948V13.9882C72.1996 9.81147 68.4844 6.80811 63.6521 6.80811C58.2606 6.80811 54.266 10.5379 53.3581 15.4829H45.8159C45.7461 15.4829 45.6763 15.5528 45.6763 15.6226V19.2546C45.6763 19.3245 45.7321 19.3803 45.8159 19.3943H49.3356C49.4195 19.3943 49.4753 19.4502 49.4753 19.534C49.4613 21.2243 49.168 24.493 45.9417 24.493C43.3857 24.493 42.3661 21.4058 42.3661 17.7738C42.3661 13.4714 43.4276 10.8173 45.802 10.8173C47.6317 10.8173 48.1624 12.4796 48.2881 12.9126C48.3021 12.9824 48.358 13.0243 48.4278 13.0243H52.6179C52.6877 13.0243 52.7436 12.9685 52.7576 12.8987V12.8847C52.6738 10.7614 50.858 6.82206 45.8858 6.82206C41.7655 6.82206 37.9525 9.86733 37.9525 17.7459C37.9525 23.166 40.0755 28.5161 45.9556 28.5161C50.3133 28.5161 53.0927 25.1496 53.7073 21.0985C55.0202 25.415 58.7774 28.5161 63.6938 28.5161C68.4427 28.5161 72.2276 25.4988 73.6101 21.2941V27.9574C73.6101 28.0272 73.6804 28.0971 73.7502 28.0971H77.9125C77.9822 28.0971 78.052 28.0412 78.052 27.9574V16.377C78.052 16.2932 78.1217 16.2373 78.2058 16.2512C78.2612 16.2512 78.3035 16.2792 78.3172 16.3351L83.7505 28.0272C83.7642 28.0691 83.8203 28.111 83.8763 28.111H87.5635C87.6332 28.111 87.703 28.0552 87.703 27.9713V21.364C88.5131 25.3311 90.8035 28.5441 95.3569 28.5441C100.315 28.5441 103.234 24.1718 103.234 19.3943V15.8042C103.221 15.6366 103.095 15.4969 102.927 15.4829ZM63.6377 24.1577C60.1322 24.1577 57.7019 21.4617 57.7019 17.6621C57.7019 13.8625 60.1322 11.1665 63.6377 11.1665C67.1437 11.1665 69.5735 13.8625 69.5735 17.6621C69.5735 21.4617 67.1294 24.1577 63.6377 24.1577Z" fill="#273266"/>
</svg>
