<svg width="13" height="10" viewBox="0 0 13 10" fill="none" xmlns="http://www.w3.org/2000/svg">
<path d="M6.50305 0.608671V1.21741C6.50305 1.74123 6.40496 1.82615 6.06674 2.01029L2.91553 3.61006V3.68088L6.05244 5.25244C6.40496 5.43638 6.50305 5.5073 6.50305 6.04532V6.72478C6.50305 7.14947 6.36204 7.29111 5.99624 7.09296L1.25511 4.48776C0.974116 4.33213 0.875 4.2188 0.875 3.89333V3.44022C0.875 3.11455 0.974116 2.98712 1.25511 2.83148L5.99624 0.240485C6.36204 0.0423407 6.50305 0.183872 6.50305 0.608671Z" fill="white"/>
<path d="M7.00379 2.84808L11.7306 5.43897C12.0259 5.59471 12.125 5.70793 12.125 6.03351V6.48661C12.125 6.82639 12.0259 6.93962 11.7306 7.09535L7.00379 9.68625C6.62368 9.88449 6.49698 9.74296 6.49698 9.31816V8.70942C6.49698 8.1856 6.59507 8.10058 6.93329 7.93075L10.0845 6.33088V6.24596L6.94759 4.6744C6.59507 4.50456 6.49698 4.41954 6.49698 3.88151V3.20196C6.49698 2.77716 6.62368 2.63573 7.00379 2.84808Z" fill="white"/>
</svg>
