<svg width="473" height="214" viewBox="0 0 473 214" fill="none" xmlns="http://www.w3.org/2000/svg">
<circle cx="469.439" cy="3.72182" r="3.52358" transform="rotate(90 469.439 3.72182)" fill="#EF4358"/>
<circle cx="469.439" cy="55.4005" r="3.52358" transform="rotate(90 469.439 55.4005)" fill="#EF4358"/>
<circle cx="469.439" cy="107.08" r="3.52358" transform="rotate(90 469.439 107.08)" fill="#EF4358"/>
<circle cx="469.439" cy="158.759" r="3.52358" transform="rotate(90 469.439 158.759)" fill="#EF4358"/>
<circle cx="469.439" cy="210.438" r="3.52358" transform="rotate(90 469.439 210.438)" fill="#EF4358"/>
<circle cx="417.759" cy="3.72133" r="3.52358" transform="rotate(90 417.759 3.72133)" fill="#EF4358"/>
<circle cx="417.759" cy="55.4005" r="3.52358" transform="rotate(90 417.759 55.4005)" fill="#EF4358"/>
<circle cx="417.759" cy="107.08" r="3.52358" transform="rotate(90 417.759 107.08)" fill="#EF4358"/>
<circle cx="417.759" cy="158.759" r="3.52358" transform="rotate(90 417.759 158.759)" fill="#EF4358"/>
<circle cx="417.759" cy="210.438" r="3.52358" transform="rotate(90 417.759 210.438)" fill="#EF4358"/>
<circle cx="366.08" cy="3.72133" r="3.52358" transform="rotate(90 366.08 3.72133)" fill="#EF4358"/>
<circle cx="366.08" cy="55.4005" r="3.52358" transform="rotate(90 366.08 55.4005)" fill="#EF4358"/>
<circle cx="366.08" cy="107.08" r="3.52358" transform="rotate(90 366.08 107.08)" fill="#EF4358"/>
<circle cx="366.08" cy="158.759" r="3.52358" transform="rotate(90 366.08 158.759)" fill="#EF4358"/>
<circle cx="366.08" cy="210.438" r="3.52358" transform="rotate(90 366.08 210.438)" fill="#EF4358"/>
<circle cx="314.401" cy="3.72133" r="3.52358" transform="rotate(90 314.401 3.72133)" fill="#EF4358"/>
<circle cx="314.401" cy="55.4005" r="3.52358" transform="rotate(90 314.401 55.4005)" fill="#EF4358"/>
<circle cx="314.401" cy="107.08" r="3.52358" transform="rotate(90 314.401 107.08)" fill="#EF4358"/>
<circle cx="314.401" cy="158.759" r="3.52358" transform="rotate(90 314.401 158.759)" fill="#EF4358"/>
<circle cx="314.401" cy="210.438" r="3.52358" transform="rotate(90 314.401 210.438)" fill="#EF4358"/>
<circle cx="262.722" cy="3.72133" r="3.52358" transform="rotate(90 262.722 3.72133)" fill="#EF4358"/>
<circle cx="262.722" cy="55.4005" r="3.52358" transform="rotate(90 262.722 55.4005)" fill="#EF4358"/>
<circle cx="262.722" cy="107.08" r="3.52358" transform="rotate(90 262.722 107.08)" fill="#EF4358"/>
<circle cx="262.722" cy="158.759" r="3.52358" transform="rotate(90 262.722 158.759)" fill="#EF4358"/>
<circle cx="262.722" cy="210.438" r="3.52358" transform="rotate(90 262.722 210.438)" fill="#EF4358"/>
<circle cx="211.043" cy="3.72133" r="3.52358" transform="rotate(90 211.043 3.72133)" fill="#EF4358"/>
<circle cx="211.043" cy="55.4005" r="3.52358" transform="rotate(90 211.043 55.4005)" fill="#EF4358"/>
<circle cx="211.043" cy="107.08" r="3.52358" transform="rotate(90 211.043 107.08)" fill="#EF4358"/>
<circle cx="211.043" cy="158.759" r="3.52358" transform="rotate(90 211.043 158.759)" fill="#EF4358"/>
<circle cx="211.043" cy="210.438" r="3.52358" transform="rotate(90 211.043 210.438)" fill="#EF4358"/>
<circle cx="159.363" cy="3.72133" r="3.52358" transform="rotate(90 159.363 3.72133)" fill="#EF4358"/>
<circle cx="159.363" cy="55.4005" r="3.52358" transform="rotate(90 159.363 55.4005)" fill="#EF4358"/>
<circle cx="159.363" cy="107.08" r="3.52358" transform="rotate(90 159.363 107.08)" fill="#EF4358"/>
<circle cx="159.363" cy="158.759" r="3.52358" transform="rotate(90 159.363 158.759)" fill="#EF4358"/>
<circle cx="159.363" cy="210.438" r="3.52358" transform="rotate(90 159.363 210.438)" fill="#EF4358"/>
<circle cx="107.684" cy="55.4005" r="3.52358" transform="rotate(90 107.684 55.4005)" fill="#EF4358"/>
<circle cx="107.684" cy="107.08" r="3.52358" transform="rotate(90 107.684 107.08)" fill="#EF4358"/>
<circle cx="107.684" cy="158.759" r="3.52358" transform="rotate(90 107.684 158.759)" fill="#EF4358"/>
<circle cx="107.684" cy="210.438" r="3.52358" transform="rotate(90 107.684 210.438)" fill="#EF4358"/>
<circle cx="56.0051" cy="3.72133" r="3.52358" transform="rotate(90 56.0051 3.72133)" fill="#EF4358"/>
<circle cx="56.0051" cy="55.4005" r="3.52358" transform="rotate(90 56.0051 55.4005)" fill="#EF4358"/>
<circle cx="56.0051" cy="107.08" r="3.52358" transform="rotate(90 56.0051 107.08)" fill="#EF4358"/>
<circle cx="56.0051" cy="158.759" r="3.52358" transform="rotate(90 56.0051 158.759)" fill="#EF4358"/>
<circle cx="56.0051" cy="210.438" r="3.52358" transform="rotate(90 56.0051 210.438)" fill="#EF4358"/>
<circle cx="4.32588" cy="3.72133" r="3.52358" transform="rotate(90 4.32588 3.72133)" fill="#EF4358"/>
<circle cx="4.32588" cy="55.4005" r="3.52358" transform="rotate(90 4.32588 55.4005)" fill="#EF4358"/>
<circle cx="4.32588" cy="107.08" r="3.52358" transform="rotate(90 4.32588 107.08)" fill="#EF4358"/>
<circle cx="4.32588" cy="158.759" r="3.52358" transform="rotate(90 4.32588 158.759)" fill="#EF4358"/>
<circle cx="4.32588" cy="210.438" r="3.52358" transform="rotate(90 4.32588 210.438)" fill="#EF4358"/>
</svg>
