<svg width="122" height="16" viewBox="0 0 122 16" fill="none" xmlns="http://www.w3.org/2000/svg">
<g clip-path="url(#clip0_971_3740)">
<path d="M9.57341 2.0922L9.92493 1.63137C9.98554 1.55861 10.034 1.47372 10.1068 1.40096C10.034 1.2433 9.9613 1.0614 9.84008 0.855238C9.59765 0.794602 9.41582 0.770348 9.22188 0.746094C9.17339 0.830983 9.10066 0.903746 9.05217 0.976508L8.70064 1.43734L8.34912 1.89817L8.19153 2.10433C8.56731 2.15283 8.93096 2.28623 9.27036 2.50452L9.57341 2.0922ZM12.9433 8.6772C12.4099 7.52513 11.2462 6.56709 10.6522 6.3488C10.5674 3.91126 9.1249 3.00173 7.73091 3.00173H7.43999H7.14907C5.75508 3.00173 4.32472 3.91126 4.22774 6.36093C3.6459 6.57921 2.48222 7.62214 1.93675 8.77421C1.30642 10.1203 1.52461 12.9581 1.54886 13.237L1.59734 14.001H3.51257C4.91868 14.001 5.35506 12.5943 5.4884 11.5756C5.91266 12.4245 6.59147 13.7221 7.19756 15.0561L7.43999 15.5533L7.68242 14.9954C8.28851 13.6736 8.96732 12.4488 9.39158 11.5877C9.52492 12.6064 9.9613 14.001 11.3674 14.001H13.2827L13.3312 13.2006C13.3554 12.9096 13.5736 10.0354 12.9433 8.6772ZM4.42169 10.2052C4.42169 11.7454 4.15501 12.6185 3.52469 12.6185H2.68829C2.65193 11.6605 2.66405 10.1325 3.00345 9.41695C3.25801 8.87123 3.65803 8.24062 3.99743 7.91319L4.27623 9.47758L4.42169 10.2052ZM7.14907 4.23869H7.43999H7.73091C8.53094 4.23869 9.34309 4.65101 9.5128 6.16689H7.45211H5.36718C5.54901 4.65101 6.34904 4.23869 7.14907 4.23869ZM7.43999 12.8368C7.17331 12.1941 6.80966 11.6484 6.55511 11.1027H8.33699C8.07032 11.6605 7.70667 12.2062 7.43999 12.8368ZM9.52492 7.80405C9.47643 8.21637 9.37946 9.04101 9.29461 9.45333H5.59749C5.51264 9.04101 5.41567 8.21637 5.36718 7.80405H9.52492ZM12.2038 12.6185H11.3796C10.7492 12.6185 10.4825 11.7454 10.4825 10.2052L10.628 9.4412L10.9068 7.90107C11.2462 8.2285 11.6462 8.8591 11.9008 9.41695C12.2281 10.1446 12.2402 11.6605 12.2038 12.6185ZM5.3187 2.0922L5.62174 2.48027C5.96114 2.26198 6.32479 2.12858 6.70057 2.08007L6.54299 1.87391L6.17933 1.43734L5.82781 0.976508C5.7672 0.903746 5.70659 0.830983 5.6581 0.746094C5.47628 0.770348 5.28233 0.794602 5.0399 0.855238C4.91868 1.07352 4.84595 1.2433 4.77322 1.42521C4.84595 1.49797 4.89444 1.57073 4.95505 1.65562L5.3187 2.0922Z" fill="#9CA0AC"/>
<path d="M19.3193 3.95947H21.489V12.2908H19.3193V3.95947Z" fill="#9CA0AC"/>
<path d="M28.2651 9.06523C27.6469 8.51951 27.065 7.81614 27.065 7.81614C27.065 7.81614 27.2226 8.88332 27.2226 9.57456V12.2911H25.2225V3.85059H25.3922L29.2348 7.1734C29.9015 7.76763 30.4348 8.43462 30.4348 8.43462C30.4348 8.43462 30.3015 7.35531 30.3015 6.66407V3.95973H32.3016V12.4123H32.1319L28.2651 9.06523Z" fill="#9CA0AC"/>
<path d="M36.0108 3.95947H39.0049C41.4656 3.95947 43.3444 5.56024 43.3444 8.11905C43.3444 10.6536 41.4777 12.2786 39.0049 12.2786H36.0108V3.95947ZM38.9079 10.4111C40.4595 10.4111 41.1383 9.53792 41.1383 8.13118C41.1383 6.74869 40.4473 5.85129 38.9079 5.85129H38.1927V10.4111H38.9079Z" fill="#9CA0AC"/>
<path d="M46.7991 9.00433V3.95947H48.9689V8.96795C48.9689 9.98662 49.4174 10.496 50.3871 10.496C51.3569 10.496 51.8054 9.99875 51.8054 8.96795V3.95947H53.9752V9.00433C53.9752 11.26 52.4721 12.4363 50.3993 12.4363C48.2658 12.4363 46.7991 11.2478 46.7991 9.00433Z" fill="#9CA0AC"/>
<path d="M56.945 10.508L58.642 9.51361C58.9935 10.12 59.5148 10.5929 60.3754 10.5929C60.9694 10.5929 61.3936 10.3746 61.3936 9.98657C61.3936 9.58638 61.0906 9.4166 60.2663 9.07704L59.9148 8.93151C58.545 8.37367 57.6117 7.70668 57.6117 6.21505C57.6117 4.7598 58.7268 3.80176 60.339 3.80176C61.5391 3.80176 62.3634 4.15345 63.0543 5.23276L61.4057 6.17867C61.1148 5.71784 60.8118 5.58444 60.3996 5.58444C59.9633 5.58444 59.6845 5.80273 59.6845 6.17867C59.6845 6.62737 60.0481 6.78502 60.5451 6.99118L60.8966 7.13671C62.424 7.75519 63.5392 8.3858 63.5392 9.96232C63.5392 11.5146 62.3634 12.4241 60.3996 12.4241C58.7147 12.4362 57.4904 11.6237 56.945 10.508Z" fill="#9CA0AC"/>
<path d="M68.5211 5.83916H66.1574V3.95947H73.0668V5.83916H70.703V12.2908H68.5211V5.83916Z" fill="#9CA0AC"/>
<path d="M83.2126 12.2908H80.7762L79.6125 10.2777C79.5034 10.2898 79.3943 10.2898 79.2731 10.2898H78.6185V12.2786H76.4487V3.95947H79.2731C81.4792 3.95947 83.0914 4.95389 83.0914 7.14889C83.0914 8.39797 82.5217 9.22261 81.6247 9.68344L83.2126 12.2908ZM79.2246 8.45861C80.3519 8.45861 80.8732 8.0948 80.8732 7.14889C80.8732 6.20297 80.364 5.82704 79.2246 5.82704H78.6185V8.45861H79.2246Z" fill="#9CA0AC"/>
<path d="M86.6431 3.95947H88.8129V12.2908H86.6431V3.95947Z" fill="#9CA0AC"/>
<path d="M92.3403 8.11907C92.3403 5.56026 94.3767 3.81396 96.8253 3.81396C99.2617 3.81396 101.31 5.57239 101.31 8.11907C101.31 10.6415 99.2739 12.4242 96.8253 12.4242C94.3767 12.4363 92.3403 10.6415 92.3403 8.11907ZM99.092 8.11907C99.092 6.71233 98.1708 5.73004 96.8253 5.73004C95.4798 5.73004 94.5585 6.72446 94.5585 8.11907C94.5585 9.55007 95.4798 10.5081 96.8253 10.5081C98.1708 10.5081 99.092 9.56219 99.092 8.11907Z" fill="#9CA0AC"/>
<path d="M104.753 9.00433V3.95947H106.923V8.96795C106.923 9.98662 107.371 10.496 108.341 10.496C109.311 10.496 109.759 9.99875 109.759 8.96795V3.95947H111.929V9.00433C111.929 11.26 110.426 12.4363 108.353 12.4363C106.22 12.4363 104.753 11.2478 104.753 9.00433Z" fill="#9CA0AC"/>
<path d="M114.899 10.508L116.596 9.51361C116.947 10.12 117.468 10.5929 118.329 10.5929C118.923 10.5929 119.347 10.3746 119.347 9.98657C119.347 9.58638 119.044 9.4166 118.22 9.07704L117.868 8.93151C116.499 8.37367 115.565 7.70668 115.565 6.21505C115.565 4.7598 116.68 3.80176 118.293 3.80176C119.493 3.80176 120.317 4.15345 121.008 5.23276L119.359 6.17867C119.068 5.71784 118.765 5.58444 118.353 5.58444C117.917 5.58444 117.638 5.80273 117.638 6.17867C117.638 6.62737 118.002 6.78502 118.499 6.99118L118.85 7.13671C120.378 7.75519 121.493 8.3858 121.493 9.96232C121.493 11.5146 120.317 12.4241 118.353 12.4241C116.668 12.4362 115.444 11.6237 114.899 10.508Z" fill="#9CA0AC"/>
</g>
<defs>
<clipPath id="clip0_971_3740">
<rect width="121" height="15" fill="white" transform="translate(0.715073 0.603516)"/>
</clipPath>
</defs>
</svg>
