<svg width="24" height="25" viewBox="0 0 24 25" fill="none" xmlns="http://www.w3.org/2000/svg">
<g clip-path="url(#clip0_753_824)">
<path d="M18 0.330078H6C2.68629 0.330078 0 3.01637 0 6.33008V18.3301C0 21.6438 2.68629 24.3301 6 24.3301H18C21.3137 24.3301 24 21.6438 24 18.3301V6.33008C24 3.01637 21.3137 0.330078 18 0.330078Z" fill="#969AA6"/>
<path d="M8.49 8.08008C8.49 8.77008 7.935 9.33008 7.25 9.33008C6.565 9.33008 6.01 8.77008 6.01 8.08008C6.01 7.39008 6.565 6.83008 7.25 6.83008C7.935 6.83008 8.49 7.39008 8.49 8.08008ZM8.5 10.3301H6V18.3301H8.5V10.3301ZM12.491 10.3301H10.007V18.3301H12.492V14.1301C12.492 11.7951 15.506 11.6041 15.506 14.1301V18.3301H18V13.2641C18 9.32408 13.539 9.46808 12.491 11.4081V10.3301Z" fill="#131933"/>
</g>
<defs>
<clipPath id="clip0_753_824">
<rect width="24" height="24" fill="white" transform="translate(0 0.330078)"/>
</clipPath>
</defs>
</svg>
