<svg width="324" height="48" viewBox="0 0 324 48" fill="none" xmlns="http://www.w3.org/2000/svg">
<g filter="url(#filter0_d_753_731)">
<g clip-path="url(#clip0_753_731)">
<path d="M31.9196 37H16.0804L15.4339 36.995C12.7593 36.9516 11.6955 36.6271 10.6237 36.0539C9.46935 35.4366 8.56343 34.5306 7.94609 33.3763L7.81824 33.1284C7.30404 32.0897 7.02218 30.9434 7.00126 28.2503L7 12.0804C7 8.92297 7.32876 7.77799 7.94609 6.62367C8.56343 5.46935 9.46935 4.56343 10.6237 3.94609L10.8716 3.81824C11.9103 3.30404 13.0566 3.02218 15.7497 3.00126L31.9196 3C35.077 3 36.222 3.32876 37.3763 3.94609C38.5306 4.56343 39.4366 5.46935 40.0539 6.62367L40.1818 6.87162C40.696 7.91028 40.9778 9.05662 40.9987 11.7497L41 27.9196L40.995 28.5661C40.9516 31.2406 40.6271 32.3045 40.0539 33.3763C39.4366 34.5306 38.5306 35.4366 37.3763 36.0539L37.1284 36.1818C36.0482 36.7165 34.8515 37 31.9196 37Z" stroke="#9BADBC" stroke-opacity="0.2"/>
<path d="M31.9196 37H16.0804L15.4339 36.995C12.7593 36.9516 11.6955 36.6271 10.6237 36.0539C9.46935 35.4366 8.56343 34.5306 7.94609 33.3763L7.81824 33.1284C7.30404 32.0897 7.02218 30.9434 7.00126 28.2503L7 12.0804C7 8.92297 7.32876 7.77799 7.94609 6.62367C8.56343 5.46935 9.46935 4.56343 10.6237 3.94609L10.8716 3.81824C11.9103 3.30404 13.0566 3.02218 15.7497 3.00126L31.9196 3C35.077 3 36.222 3.32876 37.3763 3.94609C38.5306 4.56343 39.4366 5.46935 40.0539 6.62367L40.1818 6.87162C40.696 7.91028 40.9778 9.05662 40.9987 11.7497L41 27.9196L40.995 28.5661C40.9516 31.2407 40.6271 32.3045 40.0539 33.3763C39.4366 34.5306 38.5306 35.4366 37.3763 36.0539L37.1284 36.1818C36.0482 36.7165 34.8515 37 31.9196 37Z" fill="#9BADBC" fill-opacity="0.2"/>
<path d="M41 20V27.9196C41 31.077 40.6712 32.222 40.0539 33.3763C39.4366 34.5306 38.5306 35.4366 37.3763 36.0539C36.222 36.6712 35.077 37 31.9196 37H24V20H41Z" fill="url(#paint0_linear_753_731)"/>
<path d="M24 3H31.9196C35.077 3 36.222 3.32876 37.3763 3.94609C38.5306 4.56343 39.4366 5.46935 40.0539 6.62367C40.6712 7.77799 41 8.92297 41 12.0804V20H24V3Z" fill="url(#paint1_linear_753_731)"/>
<path d="M16.0804 3H24V37H16.0804C12.923 37 11.778 36.6712 10.6237 36.0539C9.46935 35.4366 8.56343 34.5306 7.94609 33.3763C7.32876 32.222 7 31.077 7 27.9196V12.0804C7 8.92297 7.32876 7.77799 7.94609 6.62367C8.56343 5.46935 9.46935 4.56343 10.6237 3.94609C11.778 3.32876 12.923 3 16.0804 3Z" fill="url(#paint2_linear_753_731)"/>
</g>
<g clip-path="url(#clip1_753_731)">
<path d="M66.9527 16.6285C66.594 16.1357 66.0975 15.76 65.5258 15.5485C64.9389 15.3128 64.3651 15.195 63.8044 15.195C63.088 15.195 62.4357 15.3259 61.8495 15.5877C61.2736 15.8417 60.7547 16.209 60.3237 16.6677C59.8992 17.138 59.5676 17.6843 59.3462 18.2779C59.1199 18.9212 59.0074 19.5989 59.0138 20.2808C59.0138 21.0401 59.1244 21.7339 59.3462 22.3623C59.5507 22.9608 59.8693 23.5141 60.2844 23.9914C60.7026 24.4375 61.2088 24.7921 61.7709 25.0328C62.3447 25.2815 62.9898 25.4059 63.7069 25.4059C64.4502 25.4059 65.1084 25.2619 65.6822 24.9739C66.2553 24.6728 66.7186 24.2801 67.0706 23.7957L69.0458 25.1899C68.4425 25.9547 67.6733 26.5724 66.7964 26.9965C65.9098 27.4154 64.8735 27.6248 63.6873 27.6248C62.6051 27.6248 61.608 27.4481 60.6953 27.0939C59.8275 26.7485 59.0365 26.2349 58.368 25.5826C57.7108 24.9194 57.1926 24.1316 56.8437 23.2655C56.4786 22.3623 56.296 21.3674 56.296 20.2808C56.296 19.1681 56.4851 18.1666 56.8633 17.2765C57.2546 16.3732 57.7826 15.6074 58.4473 14.9783C59.139 14.3417 59.9497 13.8482 60.8327 13.5259C61.7455 13.1855 62.7367 13.0154 63.8051 13.0154C64.2487 13.0154 64.7113 13.0612 65.1942 13.1528C65.6764 13.2314 66.1397 13.3623 66.5826 13.5455C67.0262 13.7157 67.4429 13.931 67.8335 14.1928C68.2247 14.4546 68.5571 14.7695 68.8313 15.1361L66.9527 16.6285ZM70.4982 12.4263H72.8451V27.2714H70.4982V12.4263ZM82.3011 21.6161C82.3011 21.315 82.256 21.027 82.1644 20.7521C82.0898 20.4835 81.9561 20.235 81.7731 20.0248C81.5802 19.8084 81.339 19.6405 81.0691 19.5346C80.7957 19.4037 80.4698 19.3383 80.0917 19.3383C79.3877 19.3383 78.7877 19.5543 78.2924 19.9855C77.8102 20.4052 77.5433 20.9485 77.4909 21.6161H82.3011ZM84.648 22.6765V22.9906C84.648 23.0954 84.6415 23.2001 84.6284 23.3048H77.4909C77.5171 23.6452 77.6015 23.9594 77.7455 24.2474C77.9011 24.5223 78.1033 24.7637 78.3513 24.9739C78.5986 25.1703 78.8793 25.3274 79.192 25.4452C79.5047 25.563 79.8306 25.6219 80.1702 25.6219C80.7564 25.6219 81.2517 25.5172 81.656 25.3077C82.0551 25.0897 82.3968 24.7801 82.6531 24.4045L84.2175 25.6612C83.2924 26.9179 81.9491 27.5463 80.1891 27.5463C79.4597 27.5463 78.7877 27.435 78.1746 27.2117C77.583 26.9888 77.039 26.6556 76.5717 26.2299C76.1187 25.7971 75.7593 25.2761 75.5157 24.699C75.2684 24.0837 75.1447 23.3899 75.1447 22.6175C75.1447 21.8583 75.2684 21.1703 75.5157 20.5557C75.7767 19.9274 76.1287 19.3972 76.5717 18.9652C77.0161 18.5193 77.549 18.1715 78.136 17.9441C78.7639 17.6924 79.4349 17.5657 80.1113 17.571C80.7629 17.571 81.3622 17.6823 81.9106 17.9048C82.4616 18.1079 82.9573 18.4374 83.3578 18.867C83.7615 19.2859 84.0742 19.8161 84.296 20.4575C84.5309 21.0859 84.648 21.8248 84.648 22.6757V22.6765ZM92.6335 26.0728H92.5753C92.3404 26.4925 91.9622 26.8394 91.4407 27.1143C90.9193 27.3761 90.3258 27.507 89.6611 27.507C89.2829 27.507 88.8858 27.4546 88.4684 27.3499C88.066 27.2591 87.6822 27.0996 87.3338 26.8786C86.9899 26.6377 86.6974 26.3306 86.4735 25.9754C86.2517 25.5957 86.1411 25.131 86.1411 24.5812C86.1411 23.8743 86.3367 23.3114 86.728 22.8925C87.1324 22.4735 87.6473 22.1528 88.2727 21.9303C88.8982 21.7077 89.5891 21.5637 90.3455 21.4983C91.0926 21.4209 91.8431 21.3816 92.5942 21.3805V21.1448C92.5942 20.5557 92.3797 20.1237 91.9491 19.8488C91.5317 19.5608 91.0298 19.4168 90.4437 19.4168C89.9506 19.4162 89.4633 19.5234 89.016 19.731C88.5593 19.9405 88.1811 20.1957 87.8815 20.4968L86.6691 19.0634C87.1991 18.5684 87.8248 18.1873 88.5077 17.9434C89.1915 17.6984 89.9122 17.5725 90.6386 17.571C91.4735 17.571 92.1578 17.6888 92.6924 17.9245C93.24 18.1601 93.6698 18.4677 93.9826 18.8474C94.2953 19.227 94.5106 19.6525 94.6284 20.1237C94.7586 20.595 94.824 21.0663 94.824 21.5375V27.2714H92.6327L92.6335 26.0728ZM92.5942 22.971H92.0662C91.688 22.971 91.2909 22.9906 90.8735 23.0292C90.4812 23.0509 90.0934 23.1238 89.72 23.2459C89.368 23.3506 89.0742 23.5077 88.84 23.7172C88.6051 23.9135 88.488 24.1885 88.488 24.5419C88.488 24.7645 88.5338 24.9543 88.6247 25.1114C88.7287 25.2554 88.8597 25.3732 89.016 25.4648C89.1724 25.5565 89.3484 25.6219 89.544 25.6612C89.7397 25.7005 89.9353 25.7194 90.1302 25.7194C90.9389 25.7194 91.5513 25.5041 91.9688 25.0721C92.3862 24.6401 92.5942 24.051 92.5942 23.3048V22.9703V22.971ZM97.5578 17.8459H99.8066V19.4168H99.8458C100.091 18.8857 100.468 18.4261 100.941 18.0815C101.41 17.7412 101.958 17.571 102.583 17.571C102.675 17.571 102.772 17.5775 102.876 17.5906C102.981 17.5906 103.073 17.6037 103.151 17.6299V19.7899C103.015 19.7547 102.878 19.7284 102.74 19.7114C102.636 19.6983 102.531 19.6917 102.427 19.6917C101.892 19.6917 101.462 19.7899 101.136 19.9863C100.832 20.162 100.572 20.4036 100.374 20.6932C100.199 20.9493 100.073 21.2353 100.002 21.5368C99.9367 21.8255 99.904 22.0546 99.904 22.2248V27.2714H97.5578V17.8459ZM107.066 12.4263V19.0437H107.125C107.243 18.8866 107.393 18.723 107.575 18.5528C107.757 18.3826 107.972 18.2255 108.22 18.0815C108.505 17.9279 108.807 17.8092 109.12 17.7281C109.495 17.6184 109.883 17.5654 110.273 17.571C110.938 17.571 111.551 17.7019 112.112 17.9637C112.672 18.2125 113.155 18.5594 113.559 19.0037C113.971 19.4616 114.29 19.9951 114.497 20.5746C114.723 21.198 114.835 21.8565 114.83 22.5194C114.834 23.1883 114.722 23.8528 114.497 24.483C114.299 25.0684 113.986 25.6089 113.578 26.0735C113.174 26.5282 112.682 26.8957 112.131 27.1535C111.571 27.4154 110.932 27.5463 110.215 27.5463C109.564 27.5494 108.922 27.4015 108.338 27.1143C107.775 26.8363 107.306 26.3994 106.988 25.8575H106.949V27.2714H104.72V12.4263H107.066ZM112.444 22.5194C112.444 22.1528 112.386 21.7921 112.268 21.4394C112.17 21.0839 112.004 20.7506 111.78 20.4575C111.555 20.1673 111.267 19.9322 110.938 19.7703C110.599 19.587 110.202 19.4954 109.745 19.4954C109.316 19.4954 108.931 19.587 108.592 19.7703C108.253 19.9535 107.959 20.1892 107.712 20.4772C107.474 20.7705 107.289 21.1027 107.164 21.459C107.049 21.8142 106.989 22.1852 106.988 22.5586C106.988 22.9252 107.047 23.2917 107.164 23.6583C107.295 24.0117 107.477 24.3325 107.712 24.6205C107.959 24.9085 108.253 25.1441 108.592 25.3274C108.931 25.4975 109.316 25.5819 109.745 25.5819C110.202 25.5819 110.599 25.491 110.938 25.3077C111.266 25.1344 111.552 24.8935 111.78 24.6008C112.001 24.3128 112.164 23.9855 112.268 23.619C112.384 23.2638 112.443 22.8928 112.444 22.5194ZM117.133 17.8459H119.479V27.2714H117.133V17.8459ZM116.8 14.6452C116.8 14.2655 116.937 13.9383 117.21 13.6634C117.497 13.3754 117.856 13.2314 118.287 13.2314C118.716 13.2314 119.075 13.3688 119.361 13.6437C119.661 13.9055 119.811 14.2394 119.811 14.6452C119.811 15.051 119.661 15.3914 119.361 15.6663C119.075 15.9281 118.716 16.059 118.286 16.059C117.856 16.059 117.497 15.9208 117.21 15.6466C117.079 15.515 116.976 15.3587 116.905 15.1868C116.835 15.015 116.799 14.8309 116.8 14.6452ZM120.977 19.731V17.8459H122.62V15.1165H124.927V17.8459H127.273V19.731H124.927V24.1092C124.927 24.5288 124.999 24.8757 125.142 25.1506C125.298 25.4255 125.636 25.563 126.159 25.563C126.315 25.563 126.484 25.5499 126.667 25.5237C126.849 25.4845 127.012 25.4321 127.156 25.3666L127.234 27.2125C126.994 27.2987 126.744 27.358 126.491 27.3892C126.204 27.4415 125.931 27.4677 125.669 27.4677C125.044 27.4677 124.535 27.3826 124.144 27.2125C123.753 27.0292 123.44 26.787 123.206 26.4852C122.982 26.1659 122.822 25.806 122.736 25.4255C122.656 24.9982 122.617 24.5643 122.62 24.1295V19.731H120.977Z" fill="#FAFBFC"/>
</g>
</g>
<defs>
<filter id="filter0_d_753_731" x="0" y="0" width="328" height="48" filterUnits="userSpaceOnUse" color-interpolation-filters="sRGB">
<feFlood flood-opacity="0" result="BackgroundImageFix"/>
<feColorMatrix in="SourceAlpha" type="matrix" values="0 0 0 0 0 0 0 0 0 0 0 0 0 0 0 0 0 0 127 0" result="hardAlpha"/>
<feOffset dy="4"/>
<feGaussianBlur stdDeviation="2"/>
<feComposite in2="hardAlpha" operator="out"/>
<feColorMatrix type="matrix" values="0 0 0 0 0 0 0 0 0 0 0 0 0 0 0 0 0 0 0.25 0"/>
<feBlend mode="normal" in2="BackgroundImageFix" result="effect1_dropShadow_753_731"/>
<feBlend mode="normal" in="SourceGraphic" in2="effect1_dropShadow_753_731" result="shape"/>
</filter>
<linearGradient id="paint0_linear_753_731" x1="874" y1="20" x2="1724" y2="1720" gradientUnits="userSpaceOnUse">
<stop stop-color="#DEF2FE"/>
<stop offset="1" stop-color="#DBF1FE"/>
</linearGradient>
<linearGradient id="paint1_linear_753_731" x1="24" y1="3" x2="874" y2="1703" gradientUnits="userSpaceOnUse">
<stop stop-color="#57BCFD"/>
<stop offset="1" stop-color="#51B5FD"/>
</linearGradient>
<linearGradient id="paint2_linear_753_731" x1="644.5" y1="3.00003" x2="2089.5" y2="2893" gradientUnits="userSpaceOnUse">
<stop stop-color="#1CA7FD"/>
<stop offset="1" stop-color="#148CFC"/>
</linearGradient>
<clipPath id="clip0_753_731">
<rect width="40" height="40" fill="white" transform="translate(4)"/>
</clipPath>
<clipPath id="clip1_753_731">
<rect width="72" height="16" fill="white" transform="translate(56 12)"/>
</clipPath>
</defs>
</svg>
