<svg width="18" height="27" viewBox="0 0 18 27" fill="none" xmlns="http://www.w3.org/2000/svg">
<path d="M15.3167 0.425781H3.18334C1.74793 0.425781 0.583344 1.51758 0.583344 2.86328V23.9883C0.583344 25.334 1.74793 26.4258 3.18334 26.4258H15.3167C16.7521 26.4258 17.9167 25.334 17.9167 23.9883V2.86328C17.9167 1.51758 16.7521 0.425781 15.3167 0.425781ZM9.25001 24.8008C8.29126 24.8008 7.51668 24.0746 7.51668 23.1758C7.51668 22.277 8.29126 21.5508 9.25001 21.5508C10.2088 21.5508 10.9833 22.277 10.9833 23.1758C10.9833 24.0746 10.2088 24.8008 9.25001 24.8008ZM15.3167 19.3164C15.3167 19.6516 15.0242 19.9258 14.6667 19.9258H3.83334C3.47584 19.9258 3.18334 19.6516 3.18334 19.3164V3.47266C3.18334 3.1375 3.47584 2.86328 3.83334 2.86328H14.6667C15.0242 2.86328 15.3167 3.1375 15.3167 3.47266V19.3164Z" fill="white"/>
</svg>
