<svg width="29" height="29" viewBox="0 0 29 29" fill="none" xmlns="http://www.w3.org/2000/svg">
<g clip-path="url(#clip0_971_3238)">
<path d="M12.452 27.6282L9.78347 26.7482C9.5035 26.6587 9.34601 26.3256 9.42475 26.0074L15.3962 2.6292C15.4749 2.31099 15.768 2.132 16.048 2.2215L18.7165 3.10154C18.9965 3.19103 19.154 3.52415 19.0752 3.84236L13.1038 27.2205C13.0207 27.5387 12.732 27.7227 12.452 27.6282ZM7.4649 22.0497L9.36788 19.7427C9.56912 19.4991 9.55599 19.1113 9.33288 18.8875L5.36944 14.9249L9.33288 10.9622C9.55599 10.7385 9.57349 10.3507 9.36788 10.107L7.4649 7.80004C7.26804 7.56139 6.93557 7.54647 6.72121 7.77518L0.417331 14.4873C0.194223 14.721 0.194223 15.1237 0.417331 15.3574L6.72121 22.0746C6.93557 22.3033 7.26804 22.2933 7.4649 22.0497ZM21.7788 22.0795L28.0827 15.3624C28.3058 15.1287 28.3058 14.726 28.0827 14.4923L21.7788 7.77021C21.5688 7.54647 21.2363 7.55642 21.0351 7.79507L19.1321 10.1021C18.9309 10.3457 18.944 10.7335 19.1671 10.9572L23.1306 14.9249L19.1671 18.8875C18.944 19.1113 18.9265 19.4991 19.1321 19.7427L21.0351 22.0497C21.232 22.2933 21.5644 22.3033 21.7788 22.0795Z" fill="white"/>
</g>
<defs>
<clipPath id="clip0_971_3238">
<rect width="28" height="28" fill="white" transform="translate(0.25 0.925781)"/>
</clipPath>
</defs>
</svg>
