<svg width="29" height="29" viewBox="0 0 29 29" fill="none" xmlns="http://www.w3.org/2000/svg">
<g clip-path="url(#clip0_971_3211)">
<path d="M14.25 0.925781C6.51782 0.925781 0.25 7.1936 0.25 14.9258C0.25 22.658 6.51782 28.9258 14.25 28.9258C21.9822 28.9258 28.25 22.658 28.25 14.9258C28.25 7.1936 21.9822 0.925781 14.25 0.925781ZM18.8954 21.1129C18.6752 21.3319 18.4444 21.5617 18.2569 21.7497C18.0881 21.919 17.969 22.1279 17.9086 22.3542C17.8234 22.6738 17.7545 22.9967 17.6394 23.3066L16.6577 25.9513C15.8809 26.1207 15.077 26.2161 14.25 26.2161V24.6705C14.3454 23.958 13.8187 22.6235 12.9725 21.7773C12.6338 21.4386 12.4435 20.9791 12.4435 20.4998V18.6928C12.4435 18.0357 12.0896 17.4317 11.5144 17.1138C10.7031 16.6651 9.54927 16.0379 8.75895 15.6399C8.11089 15.3136 7.51137 14.8981 6.97226 14.4121L6.9271 14.3714C6.54157 14.0234 6.19927 13.6303 5.90758 13.2006C5.37806 12.4233 4.51548 11.1447 3.95492 10.3137C5.11048 7.74514 7.19298 5.68239 9.78073 4.56183L11.1361 5.23981C11.7368 5.54014 12.4435 5.10377 12.4435 4.43199V3.79409C12.8946 3.72127 13.3535 3.67497 13.8204 3.65747L15.418 5.25506C15.7708 5.60788 15.7708 6.17973 15.418 6.53256L15.1532 6.79675L14.5695 7.38046C14.3934 7.55659 14.3934 7.8428 14.5695 8.01893L14.8343 8.28368C15.0104 8.45981 15.0104 8.74602 14.8343 8.92215L14.3827 9.37376C14.2979 9.45839 14.1829 9.50591 14.0631 9.50586H13.5556C13.4382 9.50586 13.3253 9.55159 13.2406 9.63401L12.6806 10.1788C12.612 10.2456 12.5664 10.3325 12.5503 10.427C12.5343 10.5215 12.5487 10.6186 12.5915 10.7043L13.4715 12.4651C13.6217 12.7654 13.4032 13.1188 13.0679 13.1188H12.7495C12.6406 13.1188 12.5356 13.0792 12.4537 13.0081L11.9298 12.5531C11.8113 12.4503 11.668 12.3801 11.5141 12.3494C11.3602 12.3187 11.2009 12.3286 11.052 12.3781L9.29242 12.9647C9.15808 13.0094 9.04124 13.0954 8.95847 13.2103C8.87569 13.3252 8.83117 13.4632 8.83121 13.6048C8.83121 13.8605 8.97573 14.0937 9.20435 14.2083L9.82984 14.521C10.361 14.7869 10.947 14.9252 11.5409 14.9252C12.1348 14.9252 12.8161 16.4658 13.3473 16.7317H17.1155C17.5948 16.7317 18.0537 16.9219 18.393 17.2606L19.1658 18.0334C19.4887 18.3564 19.67 18.7944 19.6699 19.2511C19.6698 19.5971 19.6013 19.9398 19.4684 20.2593C19.3355 20.5788 19.1408 20.8689 18.8954 21.1129V21.1129ZM23.7903 15.956C23.4635 15.8742 23.1784 15.6738 22.9915 15.3932L21.9765 13.8707C21.828 13.6483 21.7488 13.3868 21.7488 13.1193C21.7488 12.8519 21.828 12.5904 21.9765 12.368L23.0824 10.7094C23.2134 10.5135 23.3929 10.3543 23.604 10.2493L24.3368 9.88296C25.1 11.4026 25.5403 13.112 25.5403 14.9258C25.5403 15.4152 25.4985 15.8945 25.4376 16.3676L23.7903 15.956Z" fill="white"/>
</g>
<defs>
<clipPath id="clip0_971_3211">
<rect width="28" height="28" fill="white" transform="translate(0.25 0.925781)"/>
</clipPath>
</defs>
</svg>
