<svg width="29" height="22" viewBox="0 0 29 22" fill="none" xmlns="http://www.w3.org/2000/svg">
<path d="M27.375 17.9258H3.75V1.30078C3.75 0.817344 3.35844 0.425781 2.875 0.425781H1.125C0.641562 0.425781 0.25 0.817344 0.25 1.30078V19.6758C0.25 20.6421 1.03367 21.4258 2 21.4258H27.375C27.8584 21.4258 28.25 21.0342 28.25 20.5508V18.8008C28.25 18.3173 27.8584 17.9258 27.375 17.9258ZM25.625 2.17578H19.1686C17.9994 2.17578 17.4137 3.58945 18.2405 4.41633L20.0124 6.1882L16 10.2012L11.9876 6.18875C11.304 5.50516 10.196 5.50516 9.51297 6.18875L5.75648 9.94523C5.41469 10.287 5.41469 10.841 5.75648 11.1828L6.99352 12.4198C7.33531 12.7616 7.8893 12.7616 8.23109 12.4198L10.75 9.90039L14.7624 13.9128C15.446 14.5964 16.554 14.5964 17.237 13.9128L22.487 8.66281L24.2589 10.4347C25.0858 11.2616 26.4995 10.6759 26.4995 9.50664V3.05078C26.5 2.56734 26.1084 2.17578 25.625 2.17578Z" fill="white"/>
</svg>
