<svg width="29" height="29" viewBox="0 0 29 29" fill="none" xmlns="http://www.w3.org/2000/svg">
<g clip-path="url(#clip0_971_3201)">
<path d="M16.4375 0.425781H26.9375C27.6624 0.425781 28.25 1.09734 28.25 1.92578V11.9258C28.25 12.7542 27.6624 13.4258 26.9375 13.4258H16.4375C15.7126 13.4258 15.125 12.7542 15.125 11.9258V1.92578C15.125 1.09734 15.7126 0.425781 16.4375 0.425781ZM12.0625 0.425781H1.5625C0.837617 0.425781 0.25 1.09734 0.25 1.92578V11.9258C0.25 12.7542 0.837617 13.4258 1.5625 13.4258H12.0625C12.7874 13.4258 13.375 12.7542 13.375 11.9258V1.92578C13.375 1.09734 12.7874 0.425781 12.0625 0.425781ZM0.25 16.9258V26.9258C0.25 27.7542 0.837617 28.4258 1.5625 28.4258H12.0625C12.7874 28.4258 13.375 27.7542 13.375 26.9258V16.9258C13.375 16.0973 12.7874 15.4258 12.0625 15.4258H1.5625C0.837617 15.4258 0.25 16.0973 0.25 16.9258ZM16.4375 28.4258H26.9375C27.6624 28.4258 28.25 27.7542 28.25 26.9258V16.9258C28.25 16.0973 27.6624 15.4258 26.9375 15.4258H16.4375C15.7126 15.4258 15.125 16.0973 15.125 16.9258V26.9258C15.125 27.7542 15.7126 28.4258 16.4375 28.4258Z" fill="white"/>
</g>
<defs>
<clipPath id="clip0_971_3201">
<rect width="28" height="28" fill="white" transform="translate(0.25 0.425781)"/>
</clipPath>
</defs>
</svg>
