<svg width="28" height="28" viewBox="0 0 28 28" fill="none" xmlns="http://www.w3.org/2000/svg">
<g clip-path="url(#clip0_971_3175)">
<path d="M20.1617 7.58437C18.4826 6.01215 16.3036 5.1503 13.9918 5.15234C9.83149 5.156 6.23984 8.00858 5.24818 11.9656C5.17599 12.2536 4.91936 12.457 4.62239 12.457H1.54459C1.14187 12.457 0.835933 12.0914 0.91043 11.6956C2.07257 5.52424 7.49093 0.855469 14 0.855469C17.569 0.855469 20.8101 2.25926 23.2015 4.5446L25.1198 2.62632C25.9318 1.81426 27.3203 2.3894 27.3203 3.53785V10.7383C27.3203 11.4502 26.7432 12.0273 26.0312 12.0273H18.8308C17.6824 12.0273 17.1072 10.6389 17.9193 9.82675L20.1617 7.58437ZM1.96875 16.3242H9.16918C10.3176 16.3242 10.8928 17.7127 10.0807 18.5248L7.83828 20.7672C9.51739 22.3395 11.6966 23.2014 14.0084 23.1993C18.1666 23.1955 21.7597 20.3449 22.7518 16.3861C22.824 16.098 23.0806 15.8946 23.3776 15.8946H26.4555C26.8582 15.8946 27.1641 16.2602 27.0896 16.656C25.9274 22.8273 20.5091 27.4961 14 27.4961C10.431 27.4961 7.18994 26.0923 4.79851 23.807L2.88022 25.7252C2.06817 26.5373 0.679688 25.9622 0.679688 24.8137V17.6133C0.679688 16.9013 1.25681 16.3242 1.96875 16.3242Z" fill="white"/>
</g>
<defs>
<clipPath id="clip0_971_3175">
<rect width="27.5" height="27.5" fill="white" transform="translate(0.25 0.425781)"/>
</clipPath>
</defs>
</svg>
