<svg width="29" height="29" viewBox="0 0 29 29" fill="none" xmlns="http://www.w3.org/2000/svg">
<path d="M14.2531 7.24693C10.2803 7.24693 7.07588 10.4521 7.07588 14.4258C7.07588 18.3995 10.2803 21.6046 14.2531 21.6046C18.2259 21.6046 21.4304 18.3995 21.4304 14.4258C21.4304 10.4521 18.2259 7.24693 14.2531 7.24693ZM14.2531 19.093C11.6858 19.093 9.58698 16.9999 9.58698 14.4258C9.58698 11.8516 11.6796 9.75859 14.2531 9.75859C16.8267 9.75859 18.9193 11.8516 18.9193 14.4258C18.9193 16.9999 16.8204 19.093 14.2531 19.093V19.093ZM23.398 6.95328C23.398 7.88422 22.6484 8.62772 21.724 8.62772C20.7932 8.62772 20.0499 7.87797 20.0499 6.95328C20.0499 6.02859 20.7995 5.27884 21.724 5.27884C22.6484 5.27884 23.398 6.02859 23.398 6.95328ZM28.1516 8.65271C28.0454 6.40972 27.5332 4.42288 25.8904 2.78593C24.2538 1.14898 22.2674 0.636648 20.0249 0.524186C17.7137 0.39298 10.7863 0.39298 8.4751 0.524186C6.23885 0.6304 4.25245 1.14273 2.60962 2.77968C0.966788 4.41663 0.46082 6.40347 0.348383 8.64647C0.217206 10.9582 0.217206 17.8871 0.348383 20.1988C0.454573 22.4418 0.966788 24.4287 2.60962 26.0656C4.25245 27.7026 6.2326 28.2149 8.4751 28.3274C10.7863 28.4586 17.7137 28.4586 20.0249 28.3274C22.2674 28.2212 24.2538 27.7088 25.8904 26.0656C27.527 24.4287 28.0392 22.4418 28.1516 20.1988C28.2828 17.8871 28.2828 10.9644 28.1516 8.65271V8.65271ZM25.1658 22.6793C24.6786 23.9039 23.7353 24.8473 22.5048 25.3409C20.662 26.0719 16.2895 25.9032 14.2531 25.9032C12.2168 25.9032 7.83795 26.0656 6.00148 25.3409C4.77716 24.8535 3.83394 23.9101 3.34046 22.6793C2.60962 20.8361 2.77828 16.4626 2.77828 14.4258C2.77828 12.389 2.61587 8.00918 3.34046 6.17229C3.82769 4.9477 4.77091 4.00427 6.00148 3.51069C7.8442 2.77968 12.2168 2.94837 14.2531 2.94837C16.2895 2.94837 20.6683 2.78593 22.5048 3.51069C23.7291 3.99802 24.6723 4.94146 25.1658 6.17229C25.8966 8.01543 25.728 12.389 25.728 14.4258C25.728 16.4626 25.8966 20.8424 25.1658 22.6793Z" fill="white"/>
</svg>
