<svg width="101" height="30" viewBox="0 0 101 30" fill="none" xmlns="http://www.w3.org/2000/svg">
<path d="M18.1779 27.441H18.6779V26.941V3.26768V2.76768H18.1779H3.65727H3.15727V3.26768V26.941V27.441H3.65727H18.1779ZM20.6306 29.4255H1.21506V0.78125H20.6306V29.4255Z" fill="#9CA0AC" stroke="#9CA0AC"/>
<mask id="path-2-inside-1_971_3753" fill="white">
<path d="M33.297 10.6166H33.2683C31.6397 7.96388 29.9955 5.62067 28.3372 3.26187H27.0718V13.58H28.4683V6.17996H28.4824C30.1271 8.84831 31.7703 11.2071 33.4291 13.58H34.6945V3.26187H33.297V10.6166ZM43.3779 13.58L40.1337 3.26187H38.6799L35.1593 13.58H36.6718L37.5598 10.7644H40.6281L41.4286 13.58H43.3779ZM38.01 9.49604C38.4176 8.13976 38.8251 6.88901 39.1884 5.29504H39.2181C39.6256 6.88851 39.9889 8.13976 40.3673 9.49604H38.01ZM45.0211 13.58H46.7668V4.6478H49.4437V3.26187H42.3452V4.6478H45.0216V13.58H45.0211ZM51.7412 3.26187H50.0105V13.58H51.7412V3.26187ZM57.1246 13.7558C59.7869 13.7558 61.4452 11.3538 61.4452 8.27293C61.4452 5.38398 59.6115 3.08398 57.1246 3.08398C54.6367 3.08398 52.803 5.38398 52.803 8.27293C52.803 11.3543 54.4613 13.7558 57.1246 13.7558ZM57.1246 4.55886C58.8558 4.55886 59.5824 6.37142 59.5824 8.27343C59.5824 10.2483 58.9432 12.2825 57.1246 12.2825C55.306 12.2825 54.6663 10.2488 54.6663 8.27343C54.6663 6.37142 55.3935 4.55886 57.1246 4.55886ZM63.902 6.17996H63.9181C65.5613 8.84831 67.2045 11.2071 68.8633 13.58H70.1286V3.26187H68.7322V10.6166H68.703C67.0744 7.96388 65.4301 5.62067 63.7719 3.26187H62.5065V13.58H63.902V6.17996ZM72.993 10.7644H76.0633L76.8633 13.58H78.812L75.5688 3.26187H74.1141L70.593 13.58H72.1075L72.993 10.7644ZM74.6241 5.29504H74.6528C75.0593 6.88851 75.4231 8.13976 75.8025 9.49604H73.4442C73.8528 8.13976 74.2588 6.88851 74.6241 5.29504ZM84.4995 12.1935H81.0527V3.26187H79.3211V13.58H84.5V12.1935H84.4995ZM31.8739 25.381C31.5095 25.5729 31.1176 25.6322 30.6522 25.6322C29.1543 25.6322 27.6995 24.187 27.6995 21.7408C27.6995 19.3976 28.9648 17.9081 30.8271 17.9081C31.4965 17.9081 32.2236 18.1584 32.6889 18.4528L33.2558 17.2302C32.6744 16.787 31.7286 16.4337 30.7829 16.4337C27.7286 16.4337 25.8372 18.8955 25.8372 21.7106C25.8372 24.7473 27.7286 27.1061 30.7241 27.1061C31.7136 27.1061 32.6884 26.8423 33.6201 26.4719V22.2111H31.8739V25.381ZM36.9497 22.2121H39.8015V20.8272H36.9497V17.9971H39.8598V16.6116H35.205V26.9297H40.3834V25.5428H36.9497V22.2121ZM45.2422 16.4342C42.7543 16.4342 40.9221 18.7337 40.9221 21.6232C40.9221 24.7036 42.5799 27.1066 45.2422 27.1066C47.904 27.1066 49.5618 24.7036 49.5618 21.6232C49.5618 18.7337 47.7291 16.4342 45.2422 16.4342ZM45.2422 25.6322C43.4231 25.6322 42.7834 23.5981 42.7834 21.6227C42.7834 19.7207 43.5105 17.9076 45.2422 17.9076C46.9729 17.9076 47.7 19.7202 47.7 21.6227C47.7 23.5981 47.0608 25.6322 45.2422 25.6322ZM56.1955 25.381C55.8321 25.5729 55.4387 25.6322 54.9734 25.6322C53.4749 25.6322 52.0201 24.187 52.0201 21.7408C52.0201 19.3976 53.2859 17.9081 55.1487 17.9081C55.8176 17.9081 56.5452 18.1584 57.009 18.4528L57.5769 17.2302C56.9955 16.787 56.0492 16.4337 55.103 16.4337C52.0497 16.4337 50.1588 18.8955 50.1588 21.7106C50.1588 24.7473 52.0497 27.1061 55.0467 27.1061C56.0347 27.1061 57.009 26.8423 57.9412 26.4719V22.2111H56.1955V25.381ZM65.4181 19.5895C65.4181 17.5835 64.21 16.6116 62.2618 16.6116H59.5412V26.9297H61.2864V23.0383H62.0718L63.7156 26.9297H65.708L63.6583 22.6543C64.7769 22.0503 65.4181 20.8272 65.4181 19.5895ZM62.0141 21.7111C61.8387 21.7262 61.4306 21.7413 61.2859 21.7558V17.9976H62.0583C63.0894 17.9976 63.6708 18.6006 63.6708 19.6624C63.6708 21.0473 62.8432 21.6674 62.0141 21.7111ZM69.2583 16.6116L65.7372 26.9297H67.2492L68.1372 24.1136H71.2065L72.0085 26.9297H73.9563L70.7121 16.6116H69.2583ZM68.5894 22.8473C68.9965 21.49 69.4035 20.2373 69.7673 18.6458H69.797C70.2035 20.2373 70.5673 21.49 70.9462 22.8473H68.5894ZM86.7286 20.5764H83.106V16.6116H81.3749V26.9297H83.106V21.9614H86.7286V26.9297H88.4734V16.6398H86.7286V20.5764ZM90.1457 26.9287H91.8764V16.6116H90.1457V26.9287ZM97.9864 25.6322C96.299 25.6322 94.8728 24.187 94.8728 21.7408C94.8728 19.3976 96.1688 17.9081 97.9427 17.9081C98.6121 17.9081 99.3105 18.2172 99.7327 18.4825L100.285 17.2307C99.6884 16.8177 98.8457 16.4342 97.9432 16.4342C94.903 16.4342 93.0261 18.896 93.0261 21.7111C93.0261 24.7478 94.9176 27.1066 97.9151 27.1066C98.7583 27.1066 99.6889 26.7674 100.213 26.3996L99.7332 25.1166C99.2819 25.4111 98.6558 25.6322 97.9864 25.6322ZM77.2286 16.6116H74.51V26.9297H76.2558V23.0383H77.0402C79.1216 23.0383 80.3859 21.3272 80.3859 19.5895C80.3854 17.5835 79.1794 16.6116 77.2286 16.6116ZM76.9819 21.7111C76.8075 21.7247 76.3864 21.7388 76.2553 21.7523V17.9971H77.0397C78.0588 17.9971 78.6407 18.6001 78.6407 19.6619C78.6402 21.0473 77.811 21.6674 76.9819 21.7111Z"/>
</mask>
<path d="M33.297 10.6166H33.2683C31.6397 7.96388 29.9955 5.62067 28.3372 3.26187H27.0718V13.58H28.4683V6.17996H28.4824C30.1271 8.84831 31.7703 11.2071 33.4291 13.58H34.6945V3.26187H33.297V10.6166ZM43.3779 13.58L40.1337 3.26187H38.6799L35.1593 13.58H36.6718L37.5598 10.7644H40.6281L41.4286 13.58H43.3779ZM38.01 9.49604C38.4176 8.13976 38.8251 6.88901 39.1884 5.29504H39.2181C39.6256 6.88851 39.9889 8.13976 40.3673 9.49604H38.01ZM45.0211 13.58H46.7668V4.6478H49.4437V3.26187H42.3452V4.6478H45.0216V13.58H45.0211ZM51.7412 3.26187H50.0105V13.58H51.7412V3.26187ZM57.1246 13.7558C59.7869 13.7558 61.4452 11.3538 61.4452 8.27293C61.4452 5.38398 59.6115 3.08398 57.1246 3.08398C54.6367 3.08398 52.803 5.38398 52.803 8.27293C52.803 11.3543 54.4613 13.7558 57.1246 13.7558ZM57.1246 4.55886C58.8558 4.55886 59.5824 6.37142 59.5824 8.27343C59.5824 10.2483 58.9432 12.2825 57.1246 12.2825C55.306 12.2825 54.6663 10.2488 54.6663 8.27343C54.6663 6.37142 55.3935 4.55886 57.1246 4.55886ZM63.902 6.17996H63.9181C65.5613 8.84831 67.2045 11.2071 68.8633 13.58H70.1286V3.26187H68.7322V10.6166H68.703C67.0744 7.96388 65.4301 5.62067 63.7719 3.26187H62.5065V13.58H63.902V6.17996ZM72.993 10.7644H76.0633L76.8633 13.58H78.812L75.5688 3.26187H74.1141L70.593 13.58H72.1075L72.993 10.7644ZM74.6241 5.29504H74.6528C75.0593 6.88851 75.4231 8.13976 75.8025 9.49604H73.4442C73.8528 8.13976 74.2588 6.88851 74.6241 5.29504ZM84.4995 12.1935H81.0527V3.26187H79.3211V13.58H84.5V12.1935H84.4995ZM31.8739 25.381C31.5095 25.5729 31.1176 25.6322 30.6522 25.6322C29.1543 25.6322 27.6995 24.187 27.6995 21.7408C27.6995 19.3976 28.9648 17.9081 30.8271 17.9081C31.4965 17.9081 32.2236 18.1584 32.6889 18.4528L33.2558 17.2302C32.6744 16.787 31.7286 16.4337 30.7829 16.4337C27.7286 16.4337 25.8372 18.8955 25.8372 21.7106C25.8372 24.7473 27.7286 27.1061 30.7241 27.1061C31.7136 27.1061 32.6884 26.8423 33.6201 26.4719V22.2111H31.8739V25.381ZM36.9497 22.2121H39.8015V20.8272H36.9497V17.9971H39.8598V16.6116H35.205V26.9297H40.3834V25.5428H36.9497V22.2121ZM45.2422 16.4342C42.7543 16.4342 40.9221 18.7337 40.9221 21.6232C40.9221 24.7036 42.5799 27.1066 45.2422 27.1066C47.904 27.1066 49.5618 24.7036 49.5618 21.6232C49.5618 18.7337 47.7291 16.4342 45.2422 16.4342ZM45.2422 25.6322C43.4231 25.6322 42.7834 23.5981 42.7834 21.6227C42.7834 19.7207 43.5105 17.9076 45.2422 17.9076C46.9729 17.9076 47.7 19.7202 47.7 21.6227C47.7 23.5981 47.0608 25.6322 45.2422 25.6322ZM56.1955 25.381C55.8321 25.5729 55.4387 25.6322 54.9734 25.6322C53.4749 25.6322 52.0201 24.187 52.0201 21.7408C52.0201 19.3976 53.2859 17.9081 55.1487 17.9081C55.8176 17.9081 56.5452 18.1584 57.009 18.4528L57.5769 17.2302C56.9955 16.787 56.0492 16.4337 55.103 16.4337C52.0497 16.4337 50.1588 18.8955 50.1588 21.7106C50.1588 24.7473 52.0497 27.1061 55.0467 27.1061C56.0347 27.1061 57.009 26.8423 57.9412 26.4719V22.2111H56.1955V25.381ZM65.4181 19.5895C65.4181 17.5835 64.21 16.6116 62.2618 16.6116H59.5412V26.9297H61.2864V23.0383H62.0718L63.7156 26.9297H65.708L63.6583 22.6543C64.7769 22.0503 65.4181 20.8272 65.4181 19.5895ZM62.0141 21.7111C61.8387 21.7262 61.4306 21.7413 61.2859 21.7558V17.9976H62.0583C63.0894 17.9976 63.6708 18.6006 63.6708 19.6624C63.6708 21.0473 62.8432 21.6674 62.0141 21.7111ZM69.2583 16.6116L65.7372 26.9297H67.2492L68.1372 24.1136H71.2065L72.0085 26.9297H73.9563L70.7121 16.6116H69.2583ZM68.5894 22.8473C68.9965 21.49 69.4035 20.2373 69.7673 18.6458H69.797C70.2035 20.2373 70.5673 21.49 70.9462 22.8473H68.5894ZM86.7286 20.5764H83.106V16.6116H81.3749V26.9297H83.106V21.9614H86.7286V26.9297H88.4734V16.6398H86.7286V20.5764ZM90.1457 26.9287H91.8764V16.6116H90.1457V26.9287ZM97.9864 25.6322C96.299 25.6322 94.8728 24.187 94.8728 21.7408C94.8728 19.3976 96.1688 17.9081 97.9427 17.9081C98.6121 17.9081 99.3105 18.2172 99.7327 18.4825L100.285 17.2307C99.6884 16.8177 98.8457 16.4342 97.9432 16.4342C94.903 16.4342 93.0261 18.896 93.0261 21.7111C93.0261 24.7478 94.9176 27.1066 97.9151 27.1066C98.7583 27.1066 99.6889 26.7674 100.213 26.3996L99.7332 25.1166C99.2819 25.4111 98.6558 25.6322 97.9864 25.6322ZM77.2286 16.6116H74.51V26.9297H76.2558V23.0383H77.0402C79.1216 23.0383 80.3859 21.3272 80.3859 19.5895C80.3854 17.5835 79.1794 16.6116 77.2286 16.6116ZM76.9819 21.7111C76.8075 21.7247 76.3864 21.7388 76.2553 21.7523V17.9971H77.0397C78.0588 17.9971 78.6407 18.6001 78.6407 19.6619C78.6402 21.0473 77.811 21.6674 76.9819 21.7111Z" fill="#9CA0AC" stroke="#9CA0AC" stroke-width="2" mask="url(#path-2-inside-1_971_3753)"/>
</svg>
