<svg width="71" height="38" viewBox="0 0 71 38" fill="none" xmlns="http://www.w3.org/2000/svg">
<path d="M22.0206 0.913276H17.364L10.2957 19.7605H14.6396L17.7608 11.4063L17.8898 11.434L17.3452 19.7605H22.0593L29.1276 0.913276H24.7837L21.603 9.38251L21.474 9.35477L22.0206 0.913276Z" fill="#9CA0AC" stroke="#9CA0AC"/>
<mask id="path-2-inside-1_971_3734" fill="white">
<path d="M22.6877 19.8271L29.8061 0.84661H34.2924L27.174 19.8271H22.6877Z"/>
</mask>
<path d="M22.6877 19.8271L29.8061 0.84661H34.2924L27.174 19.8271H22.6877Z" fill="#9CA0AC"/>
<path d="M29.8061 0.84661L29.6813 0.79979L29.7137 0.713276H29.8061V0.84661ZM34.2924 0.84661V0.713276H34.4848L34.4173 0.89343L34.2924 0.84661ZM27.174 19.8271L27.2989 19.874L27.2664 19.9605H27.174V19.8271ZM22.5629 19.7803L29.6813 0.79979L29.9309 0.89343L22.8126 19.874L22.5629 19.7803ZM29.8061 0.713276H34.2924V0.979943H29.8061V0.713276ZM34.4173 0.89343L27.2989 19.874L27.0492 19.7803L34.1676 0.79979L34.4173 0.89343ZM27.174 19.9605H22.6877V19.6938H27.174V19.9605Z" fill="#9CA0AC" mask="url(#path-2-inside-1_971_3734)"/>
<path d="M9.38882 13.7349C6.94486 18.895 7.48123 22.4783 9.46121 24.5679C11.497 26.7164 15.0345 27.2577 18.3277 26.3333C18.3277 26.3333 18.3277 26.3333 18.3277 26.3333L18.3295 26.3328L18.3366 26.3309L18.3646 26.3233L18.4754 26.2933L18.9076 26.1762L20.5481 25.7316L26.4053 24.1443C31.2536 22.8305 37.7205 21.078 44.1946 19.3238C57.1436 15.8151 70.1196 12.2998 70.2349 12.271C70.3742 12.2361 70.4785 12.2289 70.5492 12.2378C70.6232 12.2472 70.6428 12.2711 70.6465 12.2796C70.6494 12.2863 70.6539 12.312 70.6124 12.3617C70.5729 12.409 70.5012 12.4648 70.3918 12.5197L70.3912 12.5199L70.3902 12.5205M9.38882 13.7349L18.4248 35.0117C22.7385 33.2861 70.42 12.5801 70.42 12.5801L70.3902 12.5205M9.38882 13.7349C6.379 17.3205 3.50063 21.434 1.95425 25.2137C0.347287 29.1416 0.189424 32.6783 2.76624 34.9037L2.72266 34.9541L2.76624 34.9037C5.27925 37.074 8.10603 37.5178 10.8465 37.203C13.5426 36.8933 16.1505 35.8499 18.2884 34.9945C18.3258 34.9795 18.363 34.9647 18.4 34.9498C20.5558 34.0875 33.5532 28.4802 46.0135 23.0876C52.2433 20.3915 58.3383 17.7494 62.8758 15.7812C65.1446 14.7971 67.024 13.9816 68.3362 13.412C68.9923 13.1273 69.5066 12.904 69.8569 12.7519L70.2565 12.5784L70.3588 12.534L70.3847 12.5227L70.3902 12.5205" fill="#9CA0AC" stroke="#9CA0AC"/>
<path d="M40.1935 18.5852L40.0644 18.5637L39.7769 8.67086L39.7761 8.64394L39.7942 8.62403L46.5774 1.17661L46.6891 1.24488L40.1935 18.5852ZM49.3989 19.7308L50.6615 16.2127H45.5222H45.4261L45.4598 16.1227L47.1793 11.5214L47.1955 11.478H47.2418H51.5093L52.7864 8.07407H48.5689H48.4732L48.5064 7.98427L49.9853 3.98685L50.0014 3.94331H50.0478H54.5457L55.7004 0.913276H46.8075H46.7671H42.1397L37.4589 6.58322L37.3451 6.51704L39.4807 0.913276H35.08L28.0688 19.7605H32.4132L35.4113 11.8661L35.5402 11.888L35.7451 19.7603L49.3989 19.7308Z" fill="#9CA0AC" stroke="#9CA0AC"/>
</svg>
