<svg width="142" height="60" viewBox="0 0 142 60" fill="none" xmlns="http://www.w3.org/2000/svg">
<path fill-rule="evenodd" clip-rule="evenodd" d="M140.703 33.9306C141.225 32.7127 141.486 31.4255 141.486 30.0685C141.486 28.7115 141.225 27.4416 140.703 26.2586C140.182 25.0409 139.468 23.997 138.564 23.1273C137.694 22.2225 136.65 21.5093 135.431 20.9874C134.214 20.4655 132.927 20.2046 131.57 20.2046C130.213 20.2046 128.926 20.4655 127.708 20.9874C126.49 21.5093 125.428 22.2225 124.524 23.1273C123.654 23.997 122.958 25.0409 122.437 26.2586C121.914 27.4416 121.654 28.7115 121.654 30.0685C121.654 31.4255 121.914 32.7127 122.437 33.9306C122.958 35.1135 123.654 36.1573 124.524 37.062C125.428 37.9318 126.49 38.6277 127.708 39.1496C128.926 39.6714 130.213 39.9324 131.57 39.9324C132.927 39.9324 134.214 39.6714 135.431 39.1496C136.65 38.6277 137.694 37.9318 138.564 37.062C139.468 36.1573 140.182 35.1135 140.703 33.9306ZM135.275 28.5028C135.519 28.9899 135.64 29.5118 135.64 30.0685C135.64 30.6252 135.519 31.1471 135.275 31.6342C135.066 32.1212 134.77 32.5562 134.388 32.939C134.04 33.2868 133.622 33.5652 133.136 33.774C132.649 33.9827 132.126 34.0871 131.57 34.0871C130.457 34.0871 129.5 33.7043 128.699 32.939C127.9 32.1387 127.499 31.1819 127.499 30.0685C127.499 28.9551 127.9 27.9983 128.699 27.198C129.5 26.3978 130.457 25.9976 131.57 25.9976C132.126 25.9976 132.649 26.102 133.136 26.3108C133.622 26.5195 134.04 26.8153 134.388 27.198C134.77 27.546 135.066 27.9809 135.275 28.5028ZM115.652 15.4553C116.174 14.2376 116.435 12.9502 116.435 11.5932C116.435 10.2015 116.174 8.91416 115.652 7.73119C115.13 6.51343 114.417 5.46962 113.513 4.59979C112.643 3.69517 111.599 2.9993 110.38 2.51219C109.163 1.99029 107.876 1.72934 106.519 1.72934C105.161 1.72934 103.875 1.99029 102.657 2.51219C101.439 2.9993 100.378 3.69517 99.4729 4.59979C98.6031 5.46962 97.9072 6.51343 97.3853 7.73119C96.8635 8.91416 96.6025 10.2015 96.6025 11.5932C96.6025 12.9502 96.8635 14.2376 97.3853 15.4553C97.9072 16.6383 98.6031 17.6821 99.4729 18.5867C100.378 19.4565 101.439 20.1524 102.657 20.6743C103.875 21.1962 105.161 21.4572 106.519 21.4572C107.876 21.4572 109.163 21.1962 110.38 20.6743C111.599 20.1524 112.643 19.4565 113.513 18.5867C114.417 17.6821 115.13 16.6383 115.652 15.4553ZM109.389 8.7228C110.189 9.52305 110.589 10.4799 110.589 11.5932C110.589 12.7066 110.189 13.6635 109.389 14.4637C108.589 15.2292 107.632 15.6118 106.519 15.6118C105.406 15.6118 104.449 15.2292 103.648 14.4637C102.848 13.6635 102.448 12.7066 102.448 11.5932C102.448 10.4799 102.848 9.52305 103.648 8.7228C104.449 7.92255 105.406 7.52243 106.519 7.52243C107.632 7.52243 108.589 7.92255 109.389 8.7228ZM105.892 38.7842L110.537 41.0806L132.3 3.0341L127.446 0.685547L105.892 38.7842ZM87.0339 30.3142C87.0339 47.4454 80.2951 59.7958 66.5796 59.7958C52.8642 59.7958 46.1255 47.4454 46.1255 30.3142C46.1255 13.183 52.8642 0.832531 66.5796 0.832531C80.2951 0.832531 87.0339 13.183 87.0339 30.3142ZM75.3005 30.3142C75.3005 17.4856 72.4464 11.8284 66.5796 11.8284C60.713 11.8284 57.8588 17.4856 57.8588 30.3142C57.8588 43.1426 60.713 48.8 66.5796 48.8C72.4464 48.8 75.3005 43.1426 75.3005 30.3142ZM0.140625 2.02774H40.732V12.3861C30.3463 25.9317 25.6687 42.0272 23.4489 58.6006H11.4776C14.1732 40.5929 19.8021 24.896 27.7301 12.5455H11.5569V19.5574H0.140625V2.02774Z" fill="url(#paint0_linear_753_277)"/>
<defs>
<linearGradient id="paint0_linear_753_277" x1="15.2692" y1="-16.1135" x2="35.461" y2="47.1723" gradientUnits="userSpaceOnUse">
<stop stop-color="#0838FC"/>
<stop offset="1" stop-color="#935FFF"/>
</linearGradient>
</defs>
</svg>
