<svg width="64" height="64" viewBox="0 0 64 64" fill="none" xmlns="http://www.w3.org/2000/svg">
<g clip-path="url(#clip0_753_679)">
<path d="M28.9733 33.1472H14.8851C13.7736 33.1472 12.8725 34.0485 12.8725 35.1603V49.2521C12.8725 50.3639 13.7736 51.2652 14.8851 51.2652H28.9733C30.0848 51.2652 30.9859 50.3639 30.9859 49.2521V35.1603C30.9859 34.0485 30.0848 33.1472 28.9733 33.1472Z" fill="#FCA000"/>
<path d="M49.0993 13.0161H35.0111C33.8996 13.0161 32.9985 13.9174 32.9985 15.0292V29.121C32.9985 30.2328 33.8996 31.1341 35.0111 31.1341H49.0993C50.2108 31.1341 51.1119 30.2328 51.1119 29.121V15.0292C51.1119 13.9174 50.2108 13.0161 49.0993 13.0161Z" fill="#FCA000"/>
<path d="M28.9733 27.1079V2.9506C28.9733 1.8388 28.0722 0.9375 26.9607 0.9375L2.80947 0.9375C1.69794 0.9375 0.796873 1.8388 0.796873 2.9506V27.1079C0.796873 28.2197 1.69794 29.121 2.80947 29.121H26.9607C28.0722 29.121 28.9733 28.2197 28.9733 27.1079Z" fill="url(#paint0_linear_753_679)"/>
<path d="M35.0111 37.1734V61.3306C35.0111 62.4425 35.9122 63.3438 37.0237 63.3438H61.1749C62.2864 63.3438 63.1875 62.4425 63.1875 61.3306V37.1734C63.1875 36.0616 62.2864 35.1603 61.1749 35.1603H37.0237C35.9122 35.1603 35.0111 36.0616 35.0111 37.1734Z" fill="url(#paint1_linear_753_679)"/>
<path d="M21.9292 15.0293H7.84098M14.8851 22.0751V7.9834" stroke="white" stroke-width="2.0131" stroke-linecap="round"/>
<path d="M44.0678 53.3049C44.4871 57.5551 54.1308 58.0832 54.1308 52.6817C54.1308 47.6956 44.9063 50.4257 44.8418 45.6181C44.901 41.5636 51.6124 41.9348 53.2922 44.4685M49.0993 41.1997V57.9756" stroke="#FAFBFC" stroke-width="2.0131" stroke-miterlimit="22.9256" stroke-linecap="round"/>
</g>
<defs>
<linearGradient id="paint0_linear_753_679" x1="28.9733" y1="29.121" x2="0.789815" y2="0.944558" gradientUnits="userSpaceOnUse">
<stop offset="0.341667" stop-color="#273266"/>
<stop offset="1" stop-color="#1656B5"/>
</linearGradient>
<linearGradient id="paint1_linear_753_679" x1="35.0111" y1="35.1603" x2="63.1946" y2="63.3367" gradientUnits="userSpaceOnUse">
<stop offset="0.341667" stop-color="#273266"/>
<stop offset="1" stop-color="#1656B5"/>
</linearGradient>
<clipPath id="clip0_753_679">
<rect width="62.3906" height="62.4062" fill="white" transform="translate(0.796875 0.9375)"/>
</clipPath>
</defs>
</svg>
