<svg width="64" height="64" viewBox="0 0 64 64" fill="none" xmlns="http://www.w3.org/2000/svg">
<g clip-path="url(#clip0_753_662)">
<path d="M60.2632 19.4644H3.72168C2.64489 19.4644 1.77197 18.5912 1.77197 17.5142V3.86279C1.77197 2.78573 2.64489 1.9126 3.72168 1.9126H60.2632C61.34 1.9126 62.2129 2.78573 62.2129 3.86279V17.5142C62.2129 18.5912 61.34 19.4644 60.2632 19.4644Z" fill="#F06A57"/>
<path d="M17.3696 62.3687H3.72168C2.64489 62.3687 1.77197 61.4955 1.77197 60.4185V25.3149C1.77197 24.2379 2.64489 23.3647 3.72168 23.3647H17.3696C18.4464 23.3647 19.3193 24.2379 19.3193 25.3149V60.4185C19.3193 61.4955 18.4464 62.3687 17.3696 62.3687Z" fill="#F06A57"/>
<path d="M25.1682 23.3647H60.2629C61.3397 23.3647 62.2126 24.2379 62.2126 25.3149V60.4185C62.2126 61.4955 61.3397 62.3687 60.2629 62.3687H25.1682C24.0914 62.3687 23.2185 61.4955 23.2185 60.4185V25.3149C23.2185 24.2379 24.0914 23.3647 25.1682 23.3647Z" fill="url(#paint0_linear_753_662)"/>
<path d="M33.7677 40.7163C32.6993 42.0521 32.6993 43.9222 33.7677 45.258C35.3703 47.2617 38.3083 50.0669 42.7153 50.0669C46.9888 50.0669 49.9268 47.3952 51.6629 45.258C52.7312 43.9222 52.7312 42.0521 51.6629 40.7163C49.9268 38.7126 46.9888 36.041 42.7153 36.041C38.4417 36.041 35.5037 38.7126 33.7677 40.7163Z" stroke="white" stroke-width="1.95019" stroke-miterlimit="10" stroke-linecap="round"/>
<path d="M42.4228 46.1796C40.4314 46.1796 38.817 44.5648 38.817 42.573C38.817 40.5811 40.4314 38.9663 42.4228 38.9663C44.4141 38.9663 46.0285 40.5811 46.0285 42.573C46.0285 44.5648 44.4141 46.1796 42.4228 46.1796Z" stroke="white" stroke-width="1.95019" stroke-miterlimit="10" stroke-linecap="round"/>
</g>
<defs>
<linearGradient id="paint0_linear_753_662" x1="23.2185" y1="23.3647" x2="62.2224" y2="62.3589" gradientUnits="userSpaceOnUse">
<stop offset="0.341667" stop-color="#273266"/>
<stop offset="1" stop-color="#1656B5"/>
</linearGradient>
<clipPath id="clip0_753_662">
<rect width="62.3906" height="62.4062" fill="white" transform="translate(0.796875 0.9375)"/>
</clipPath>
</defs>
</svg>
