<svg width="64" height="63" viewBox="0 0 64 63" fill="none" xmlns="http://www.w3.org/2000/svg">
<g clip-path="url(#clip0_753_697)">
<path d="M38.8164 18.8237H3.72168C2.64489 18.8237 1.77197 17.9506 1.77197 16.8735V3.22217C1.77197 2.14511 2.64489 1.27197 3.72168 1.27197H38.8164C39.8932 1.27197 40.7661 2.14511 40.7661 3.22217V16.8735C40.7661 17.9506 39.8932 18.8237 38.8164 18.8237Z" fill="#9CB2FF"/>
<path d="M51.4895 61.728H3.72168C2.64489 61.728 1.77197 60.8549 1.77197 59.7778V46.1265C1.77197 45.0494 2.64489 44.1763 3.72168 44.1763H51.4895C52.5663 44.1763 53.4392 45.0494 53.4392 46.1265V59.7778C53.4392 60.8549 52.5663 61.728 51.4895 61.728Z" fill="url(#paint0_linear_753_697)"/>
<path d="M60.2629 40.2759H22.2437C21.1669 40.2759 20.2939 39.4027 20.2939 38.3257V24.6743C20.2939 23.5973 21.1669 22.7241 22.2437 22.7241H60.2629C61.3397 22.7241 62.2126 23.5973 62.2126 24.6743V38.3257C62.2126 39.4027 61.3397 40.2759 60.2629 40.2759Z" fill="#9CB2FF"/>
<path d="M16.395 54.9023C17.4721 54.9023 18.3452 54.0292 18.3452 52.9521C18.3452 51.8751 17.4721 51.002 16.395 51.002C15.318 51.002 14.4448 51.8751 14.4448 52.9521C14.4448 54.0292 15.318 54.9023 16.395 54.9023Z" fill="white"/>
<path d="M28.0933 54.9023C29.1703 54.9023 30.0435 54.0292 30.0435 52.9521C30.0435 51.8751 29.1703 51.002 28.0933 51.002C27.0162 51.002 26.1431 51.8751 26.1431 52.9521C26.1431 54.0292 27.0162 54.9023 28.0933 54.9023Z" fill="white"/>
<path d="M39.7915 54.9023C40.8686 54.9023 41.7417 54.0292 41.7417 52.9521C41.7417 51.8751 40.8686 51.002 39.7915 51.002C38.7144 51.002 37.8413 51.8751 37.8413 52.9521C37.8413 54.0292 38.7144 54.9023 39.7915 54.9023Z" fill="white"/>
</g>
<defs>
<linearGradient id="paint0_linear_753_697" x1="2.18864" y1="60.7529" x2="13.2825" y2="29.7888" gradientUnits="userSpaceOnUse">
<stop offset="0.303004" stop-color="#273266"/>
<stop offset="1" stop-color="#1656B5"/>
</linearGradient>
<clipPath id="clip0_753_697">
<rect width="62.3906" height="62.4062" fill="white" transform="translate(0.796875 0.296875)"/>
</clipPath>
</defs>
</svg>
