<svg width="64" height="63" viewBox="0 0 64 63" fill="none" xmlns="http://www.w3.org/2000/svg">
<path d="M50.5146 51.9771C51.5915 51.9771 52.4644 51.1039 52.4644 50.0269V35.4004C52.4644 34.3233 53.3372 33.4502 54.4141 33.4502H60.2632C61.34 33.4502 62.2129 34.3233 62.2129 35.4004V59.7778C62.2129 60.8549 61.34 61.728 60.2632 61.728H35.8918C34.815 61.728 33.9421 60.8549 33.9421 59.7778V53.9272C33.9421 52.8502 34.815 51.9771 35.8918 51.9771H50.5146ZM13.4702 51.9771C12.3934 51.9771 11.5205 51.1039 11.5205 50.0269V35.4004C11.5205 34.3233 10.6476 33.4502 9.5708 33.4502H3.72168C2.64489 33.4502 1.77197 34.3233 1.77197 35.4004V59.7778C1.77197 60.8549 2.64489 61.728 3.72168 61.728H28.093C29.1698 61.728 30.0427 60.8549 30.0427 59.7778V53.9272C30.0427 52.8502 29.1698 51.9771 28.093 51.9771H13.4702ZM50.5146 11.0229C51.5915 11.0229 52.4644 11.8961 52.4644 12.9731V27.5996C52.4644 28.6767 53.3372 29.5498 54.4141 29.5498H60.2632C61.34 29.5498 62.2129 28.6767 62.2129 27.5996V3.22217C62.2129 2.1451 61.34 1.27197 60.2632 1.27197H35.8918C34.815 1.27197 33.9421 2.1451 33.9421 3.22217V9.07275C33.9421 10.1498 34.815 11.0229 35.8918 11.0229H50.5146ZM13.4702 11.0229C12.3934 11.0229 11.5205 11.8961 11.5205 12.9731V27.5996C11.5205 28.6767 10.6476 29.5498 9.5708 29.5498H3.72168C2.64489 29.5498 1.77197 28.6767 1.77197 27.5996V3.22217C1.77197 2.1451 2.64489 1.27197 3.72168 1.27197H28.093C29.1698 1.27197 30.0427 2.1451 30.0427 3.22217V9.07275C30.0427 10.1498 29.1698 11.0229 28.093 11.0229H13.4702Z" fill="#E29BF3"/>
<path d="M17.577 48.0767H46.4073C47.5841 48.0767 48.5647 47.0958 48.5647 45.9188V17.0812C48.5647 15.9042 47.5841 14.9233 46.4073 14.9233H17.577C16.4003 14.9233 15.4197 15.9042 15.4197 17.0812V45.9188C15.4197 47.0958 16.4003 48.0767 17.577 48.0767Z" fill="url(#paint0_linear_753_716)"/>
<path d="M32.3305 30.021C34.0757 30.021 35.4905 28.6058 35.4905 26.8601C35.4905 25.1144 34.0757 23.6992 32.3305 23.6992C30.5853 23.6992 29.1705 25.1144 29.1705 26.8601C29.1705 28.6058 30.5853 30.021 32.3305 30.021Z" stroke="white" stroke-width="1.95019" stroke-miterlimit="10" stroke-linecap="round"/>
<path d="M34.6484 33.4978H29.9083C27.275 33.4978 25.1682 35.6051 25.1682 38.2391C25.1682 39.082 25.9056 39.8196 26.7483 39.8196H37.7032C38.5458 39.8196 39.2832 39.082 39.2832 38.2391C39.3885 35.6051 37.2818 33.4978 34.6484 33.4978Z" stroke="white" stroke-width="1.95019" stroke-miterlimit="10" stroke-linecap="round" stroke-linejoin="round"/>
<defs>
<linearGradient id="paint0_linear_753_716" x1="48.5647" y1="48.0767" x2="15.4114" y2="14.9316" gradientUnits="userSpaceOnUse">
<stop offset="0.341667" stop-color="#273266"/>
<stop offset="1" stop-color="#1656B5"/>
</linearGradient>
</defs>
</svg>
