<svg width="148" height="55" viewBox="0 0 148 55" fill="none" xmlns="http://www.w3.org/2000/svg">
<rect x="0.0614624" y="0.255127" width="147.145" height="54.5362" rx="27.2681" fill="#70C217"/>
<path d="M47.4992 20.6982C46.9578 20.4017 46.4036 20.1568 45.8364 19.9634C45.2822 19.7701 44.7602 19.6734 44.2703 19.6734C43.6645 19.6734 43.1876 19.7959 42.8396 20.0408C42.4916 20.2857 42.3176 20.653 42.3176 21.1428C42.3176 21.478 42.4465 21.7809 42.7042 22.0516C42.9749 22.3094 43.3165 22.5414 43.729 22.7476C44.1543 22.9538 44.5926 23.1407 45.0437 23.3083C45.4562 23.463 45.8622 23.6499 46.2618 23.869C46.6743 24.0752 47.0416 24.3395 47.3639 24.6617C47.6861 24.9711 47.9439 25.3642 48.1372 25.8411C48.3306 26.3052 48.4273 26.8788 48.4273 27.5619C48.4273 28.2837 48.2404 28.954 47.8666 29.5727C47.4928 30.1914 46.945 30.6941 46.2231 31.0808C45.5013 31.4546 44.6119 31.6415 43.555 31.6415C43.0136 31.6415 42.4593 31.5899 41.8922 31.4868C41.3379 31.3708 40.7901 31.2032 40.2488 30.9841C39.7074 30.7521 39.1854 30.4621 38.6827 30.1141L39.9201 27.9293C40.2552 28.1742 40.6161 28.3933 41.0028 28.5866C41.4024 28.7671 41.802 28.9089 42.2015 29.012C42.6011 29.1151 42.9685 29.1667 43.3036 29.1667C43.6387 29.1667 43.9739 29.1216 44.309 29.0313C44.657 28.9282 44.9406 28.7606 45.1597 28.5286C45.3917 28.2966 45.5078 27.9744 45.5078 27.5619C45.5078 27.2783 45.4111 27.0205 45.2177 26.7885C45.0373 26.5565 44.7859 26.3438 44.4637 26.1505C44.1543 25.9571 43.8128 25.7896 43.439 25.6478C43.0007 25.4802 42.5496 25.2869 42.0855 25.0678C41.6215 24.8486 41.1833 24.5844 40.7708 24.275C40.3712 23.9528 40.0425 23.5597 39.7847 23.0956C39.5398 22.6187 39.4174 22.0387 39.4174 21.3555C39.4174 20.5306 39.5978 19.8152 39.9587 19.2094C40.3325 18.6036 40.8546 18.1267 41.5248 17.7786C42.1951 17.4177 42.9685 17.2179 43.845 17.1793C44.9922 17.1793 45.9202 17.3146 46.6292 17.5853C47.351 17.856 47.9955 18.1782 48.5626 18.552L47.4992 20.6982ZM57.302 31.4868L63.721 16.6959H63.8757L70.2948 31.4868H67.0466L62.9476 21.0848L64.9778 19.6928L60.0668 31.4868H57.302ZM61.6909 26.3438H65.9638L66.9499 28.7026H60.8208L61.6909 26.3438ZM80.103 17.2566H82.9065V28.78H89.5962V31.4868H80.103V17.2566ZM100.223 17.2566H109.929V19.9634H103.026V22.999H109.136V25.7058H103.026V28.78H110.2V31.4868H100.223V17.2566Z" fill="white"/>
</svg>
