<svg width="214" height="473" viewBox="0 0 214 473" fill="none" xmlns="http://www.w3.org/2000/svg">
<circle cx="210.24" cy="468.636" r="3.52358" transform="rotate(-180 210.24 468.636)" fill="#70C217"/>
<circle cx="158.561" cy="468.636" r="3.52358" transform="rotate(-180 158.561 468.636)" fill="#70C217"/>
<circle cx="106.882" cy="468.636" r="3.52358" transform="rotate(-180 106.882 468.636)" fill="#70C217"/>
<circle cx="55.2026" cy="468.636" r="3.52358" transform="rotate(-180 55.2026 468.636)" fill="#70C217"/>
<circle cx="3.52336" cy="468.636" r="3.52358" transform="rotate(-180 3.52336 468.636)" fill="#70C217"/>
<circle cx="210.24" cy="416.957" r="3.52358" transform="rotate(-180 210.24 416.957)" fill="#70C217"/>
<circle cx="158.561" cy="416.957" r="3.52358" transform="rotate(-180 158.561 416.957)" fill="#70C217"/>
<circle cx="106.882" cy="416.957" r="3.52358" transform="rotate(-180 106.882 416.957)" fill="#70C217"/>
<circle cx="55.2026" cy="416.957" r="3.52358" transform="rotate(-180 55.2026 416.957)" fill="#70C217"/>
<circle cx="3.52336" cy="416.957" r="3.52358" transform="rotate(-180 3.52336 416.957)" fill="#70C217"/>
<circle cx="210.24" cy="365.278" r="3.52358" transform="rotate(-180 210.24 365.278)" fill="#70C217"/>
<circle cx="158.561" cy="365.278" r="3.52358" transform="rotate(-180 158.561 365.278)" fill="#70C217"/>
<circle cx="106.882" cy="365.278" r="3.52358" transform="rotate(-180 106.882 365.278)" fill="#70C217"/>
<circle cx="55.2026" cy="365.278" r="3.52358" transform="rotate(-180 55.2026 365.278)" fill="#70C217"/>
<circle cx="3.52336" cy="365.278" r="3.52358" transform="rotate(-180 3.52336 365.278)" fill="#70C217"/>
<circle cx="210.24" cy="313.599" r="3.52358" transform="rotate(-180 210.24 313.599)" fill="#70C217"/>
<circle cx="158.561" cy="313.599" r="3.52358" transform="rotate(-180 158.561 313.599)" fill="#70C217"/>
<circle cx="106.882" cy="313.599" r="3.52358" transform="rotate(-180 106.882 313.599)" fill="#70C217"/>
<circle cx="55.2026" cy="313.599" r="3.52358" transform="rotate(-180 55.2026 313.599)" fill="#70C217"/>
<circle cx="3.52336" cy="313.599" r="3.52358" transform="rotate(-180 3.52336 313.599)" fill="#70C217"/>
<circle cx="210.24" cy="261.92" r="3.52358" transform="rotate(-180 210.24 261.92)" fill="#70C217"/>
<circle cx="158.561" cy="261.92" r="3.52358" transform="rotate(-180 158.561 261.92)" fill="#70C217"/>
<circle cx="106.882" cy="261.92" r="3.52358" transform="rotate(-180 106.882 261.92)" fill="#70C217"/>
<circle cx="55.2026" cy="261.92" r="3.52358" transform="rotate(-180 55.2026 261.92)" fill="#70C217"/>
<circle cx="3.52336" cy="261.92" r="3.52358" transform="rotate(-180 3.52336 261.92)" fill="#70C217"/>
<circle cx="210.24" cy="210.24" r="3.52358" transform="rotate(-180 210.24 210.24)" fill="#70C217"/>
<circle cx="158.561" cy="210.24" r="3.52358" transform="rotate(-180 158.561 210.24)" fill="#70C217"/>
<circle cx="106.882" cy="210.24" r="3.52358" transform="rotate(-180 106.882 210.24)" fill="#70C217"/>
<circle cx="55.2026" cy="210.24" r="3.52358" transform="rotate(-180 55.2026 210.24)" fill="#70C217"/>
<circle cx="3.52336" cy="210.24" r="3.52358" transform="rotate(-180 3.52336 210.24)" fill="#70C217"/>
<circle cx="210.24" cy="158.561" r="3.52358" transform="rotate(-180 210.24 158.561)" fill="#70C217"/>
<circle cx="158.561" cy="158.561" r="3.52358" transform="rotate(-180 158.561 158.561)" fill="#70C217"/>
<circle cx="106.882" cy="158.561" r="3.52358" transform="rotate(-180 106.882 158.561)" fill="#70C217"/>
<circle cx="55.2026" cy="158.561" r="3.52358" transform="rotate(-180 55.2026 158.561)" fill="#70C217"/>
<circle cx="3.52336" cy="158.561" r="3.52358" transform="rotate(-180 3.52336 158.561)" fill="#70C217"/>
<circle cx="210.24" cy="106.882" r="3.52358" transform="rotate(-180 210.24 106.882)" fill="#70C217"/>
<circle cx="158.561" cy="106.882" r="3.52358" transform="rotate(-180 158.561 106.882)" fill="#70C217"/>
<circle cx="106.882" cy="106.882" r="3.52358" transform="rotate(-180 106.882 106.882)" fill="#70C217"/>
<circle cx="55.2026" cy="106.882" r="3.52358" transform="rotate(-180 55.2026 106.882)" fill="#70C217"/>
<circle cx="3.52336" cy="106.882" r="3.52358" transform="rotate(-180 3.52336 106.882)" fill="#70C217"/>
<circle cx="210.24" cy="55.2029" r="3.52358" transform="rotate(-180 210.24 55.2029)" fill="#70C217"/>
<circle cx="158.561" cy="55.2028" r="3.52358" transform="rotate(-180 158.561 55.2028)" fill="#70C217"/>
<circle cx="106.882" cy="55.2028" r="3.52358" transform="rotate(-180 106.882 55.2028)" fill="#70C217"/>
<circle cx="55.2026" cy="55.2028" r="3.52358" transform="rotate(-180 55.2026 55.2028)" fill="#70C217"/>
<circle cx="3.52336" cy="55.2028" r="3.52358" transform="rotate(-180 3.52336 55.2028)" fill="#70C217"/>
<circle cx="210.24" cy="3.52366" r="3.52358" transform="rotate(-180 210.24 3.52366)" fill="#70C217"/>
<circle cx="158.561" cy="3.5236" r="3.52358" transform="rotate(-180 158.561 3.5236)" fill="#70C217"/>
<circle cx="106.882" cy="3.5236" r="3.52358" transform="rotate(-180 106.882 3.5236)" fill="#70C217"/>
<circle cx="55.2026" cy="3.5236" r="3.52358" transform="rotate(-180 55.2026 3.5236)" fill="#70C217"/>
<circle cx="3.52336" cy="3.5236" r="3.52358" transform="rotate(-180 3.52336 3.5236)" fill="#70C217"/>
</svg>
