<svg width="15" height="17" viewBox="0 0 15 17" fill="none" xmlns="http://www.w3.org/2000/svg">
<g clip-path="url(#clip0_971_2299)">
<path d="M11.5238 5.44V4.44C11.5238 2.23438 9.64396 0.440002 7.33333 0.440002C5.02268 0.440002 3.14286 2.23438 3.14286 4.44V5.44H0V13.94C0 15.3207 1.17258 16.44 2.61905 16.44H12.0476C13.4941 16.44 14.6667 15.3207 14.6667 13.94V5.44H11.5238ZM5.2381 4.44C5.2381 3.33719 6.17801 2.44 7.33333 2.44C8.48866 2.44 9.42857 3.33719 9.42857 4.44V5.44H5.2381V4.44ZM10.4762 8.19C10.0422 8.19 9.69048 7.85422 9.69048 7.44C9.69048 7.02578 10.0422 6.69 10.4762 6.69C10.9101 6.69 11.2619 7.02578 11.2619 7.44C11.2619 7.85422 10.9101 8.19 10.4762 8.19ZM4.19048 8.19C3.75653 8.19 3.40476 7.85422 3.40476 7.44C3.40476 7.02578 3.75653 6.69 4.19048 6.69C4.62442 6.69 4.97619 7.02578 4.97619 7.44C4.97619 7.85422 4.62442 8.19 4.19048 8.19Z" fill="#682EE6"/>
</g>
<defs>
<clipPath id="clip0_971_2299">
<rect width="14.6667" height="16" fill="white" transform="translate(0 0.440002)"/>
</clipPath>
</defs>
</svg>
