<svg width="27" height="27" viewBox="0 0 27 27" fill="none" xmlns="http://www.w3.org/2000/svg">
<path d="M4.79248 0.62561H21.7657C24.3391 0.62561 26.4196 2.70619 26.4196 5.27958V21.5957C26.4196 24.1691 24.3391 26.2497 21.7657 26.2497H4.79248C2.21909 26.2497 0.138489 24.1691 0.138489 21.5957V5.27958C0.138489 2.70619 2.21909 0.62561 4.79248 0.62561Z" fill="#470137"/>
<path d="M13.9583 7.36007L10.6731 12.7805L14.1773 18.5295C14.1992 18.5733 14.2101 18.6172 14.1992 18.6609C14.1882 18.7048 14.1445 18.6719 14.0787 18.6828H11.5711C11.3959 18.6828 11.2754 18.6719 11.1988 18.5624C10.9688 18.1025 10.7279 17.6534 10.4979 17.1935C10.2679 16.7446 10.0161 16.2847 9.75324 15.8139C9.49046 15.3429 9.22768 14.872 8.96489 14.3902H8.94301C8.713 14.8611 8.4611 15.3319 8.20931 15.8029C7.95741 16.2738 7.70552 16.7446 7.46462 17.2045C7.21283 17.6644 6.96093 18.1354 6.70904 18.5843C6.66527 18.6938 6.57765 18.7048 6.45725 18.7048H4.04811C4.00425 18.7048 3.97148 18.7267 3.97148 18.6719C3.96049 18.628 3.97148 18.5843 3.99336 18.5514L7.39898 12.9667L4.08099 7.34907C4.04812 7.30531 4.03712 7.26145 4.059 7.23956C4.08099 7.20669 4.12475 7.1958 4.16851 7.1958H6.65428C6.70903 7.1958 6.76379 7.20669 6.80766 7.21768C6.85142 7.23956 6.88429 7.27244 6.91717 7.3162C7.1252 7.78712 7.3661 8.25803 7.61799 8.72885C7.88078 9.19976 8.13268 9.65969 8.40635 10.1196C8.66924 10.5795 8.91013 11.0394 9.14004 11.5103H9.16193C9.39195 11.0285 9.63284 10.5575 9.87375 10.0976C10.1146 9.6377 10.3665 9.17778 10.6183 8.71785C10.8702 8.25803 11.1111 7.78712 11.352 7.33818C11.363 7.29432 11.3849 7.25056 11.4178 7.22867C11.4616 7.20669 11.5054 7.1958 11.5602 7.20669H13.8707C13.9254 7.1958 13.9802 7.22867 13.9912 7.28343C14.0021 7.29432 13.9802 7.33819 13.9583 7.36007Z" fill="#FF61F6"/>
<path d="M19.0176 18.9125C18.2072 18.9235 17.3969 18.7592 16.6632 18.4198C15.9733 18.1022 15.4039 17.5766 15.0096 16.9305C14.6045 16.2626 14.4073 15.4302 14.4073 14.4338C14.3964 13.6234 14.6045 12.8241 15.0096 12.1233C15.4258 11.4114 16.028 10.8201 16.7508 10.4259C17.5173 9.99889 18.4371 9.79076 19.5212 9.79076C19.576 9.79076 19.6526 9.79076 19.7512 9.80175C19.8498 9.81264 19.9593 9.81264 20.0907 9.82363V6.36327C20.0907 6.28663 20.1236 6.24286 20.2002 6.24286H22.4231C22.4778 6.23187 22.5217 6.27564 22.5326 6.3195C22.5326 6.33039 22.5326 6.34138 22.5326 6.34138V16.7663C22.5326 16.9634 22.5436 17.1823 22.5546 17.4233C22.5764 17.6532 22.5873 17.8723 22.5983 18.0584C22.5983 18.135 22.5655 18.2008 22.4888 18.2337C21.9194 18.4746 21.3171 18.6497 20.7039 18.7592C20.1454 18.8577 19.587 18.9125 19.0176 18.9125ZM20.0907 16.7225V11.9042C19.9922 11.8824 19.8935 11.8605 19.795 11.8495C19.6745 11.8385 19.5541 11.8276 19.4336 11.8276C19.0066 11.8276 18.5795 11.9152 18.1962 12.1123C17.8239 12.2984 17.5064 12.5722 17.2655 12.9226C17.0245 13.273 16.9041 13.7439 16.9041 14.3134C16.8931 14.6966 16.9588 15.0798 17.0902 15.4412C17.1997 15.7369 17.364 15.9997 17.583 16.2187C17.7911 16.4158 18.043 16.5691 18.3276 16.6567C18.6233 16.7553 18.9299 16.7991 19.2366 16.7991C19.4007 16.7991 19.5541 16.7881 19.6965 16.7771C19.8388 16.7881 19.9593 16.7663 20.0907 16.7225Z" fill="#FF61F6"/>
</svg>
