<svg width="24" height="25" viewBox="0 0 24 25" fill="none" xmlns="http://www.w3.org/2000/svg">
<path d="M18 0.330078H6C2.68629 0.330078 0 3.01637 0 6.33008V18.3301C0 21.6438 2.68629 24.3301 6 24.3301H18C21.3137 24.3301 24 21.6438 24 18.3301V6.33008C24 3.01637 21.3137 0.330078 18 0.330078Z" fill="#969AA6"/>
<mask id="mask0_753_813" style="mask-type:luminance" maskUnits="userSpaceOnUse" x="6" y="6" width="12" height="13">
<path d="M6 6.33008H18V18.3301H6V6.33008Z" fill="white"/>
</mask>
<g mask="url(#mask0_753_813)">
<path d="M18 8.60897C17.5507 8.80793 17.074 8.93838 16.586 8.99597C17.1005 8.68865 17.4855 8.20449 17.669 7.63397C17.1856 7.92099 16.6566 8.12324 16.105 8.23197C15.7339 7.8369 15.243 7.5752 14.7081 7.48739C14.1733 7.39958 13.6244 7.49057 13.1466 7.74626C12.6687 8.00194 12.2884 8.40807 12.0647 8.90174C11.8409 9.3954 11.7862 9.94906 11.909 10.477C10.9304 10.4278 9.97302 10.1734 9.09907 9.73028C8.22511 9.28719 7.45408 8.6653 6.836 7.90497C6.52149 8.44684 6.42512 9.08814 6.56648 9.69851C6.70783 10.3089 7.07631 10.8425 7.597 11.191C7.20608 11.1787 6.82377 11.0731 6.482 10.883C6.47502 11.4567 6.66849 12.0149 7.02904 12.4613C7.3896 12.9076 7.89462 13.2141 8.457 13.328C8.09444 13.4268 7.71411 13.4415 7.345 13.371C7.50234 13.8601 7.80864 14.2877 8.22104 14.5942C8.63343 14.9006 9.13131 15.0705 9.645 15.08C8.6131 15.8894 7.30215 16.2563 6 16.1C7.12576 16.8233 8.43592 17.2072 9.774 17.206C14.345 17.206 16.927 13.346 16.772 9.88297C17.2537 9.5345 17.6695 9.10311 18 8.60897Z" fill="#131933"/>
</g>
</svg>
