<svg width="32" height="26" viewBox="0 0 32 26" fill="none" xmlns="http://www.w3.org/2000/svg">
<path d="M15.9998 9.95174C19.0029 9.95174 21.4373 7.72397 21.4373 4.97587C21.4373 2.22777 19.0029 0 15.9998 0C12.9968 0 10.5624 2.22777 10.5624 4.97587C10.5624 7.72397 12.9968 9.95174 15.9998 9.95174Z" fill="#2405F2"/>
<path d="M27 9.95177C28.8984 9.95177 30.4374 8.54341 30.4374 6.8061C30.4374 5.0688 28.8984 3.66044 27 3.66044C25.1015 3.66044 23.5625 5.0688 23.5625 6.8061C23.5625 8.54341 25.1015 9.95177 27 9.95177Z" fill="#2405F2"/>
<path d="M4.99997 9.95173C6.89843 9.95173 8.43744 8.54337 8.43744 6.80607C8.43744 5.06876 6.89843 3.6604 4.99997 3.6604C3.10151 3.6604 1.5625 5.06876 1.5625 6.80607C1.5625 8.54337 3.10151 9.95173 4.99997 9.95173Z" fill="#2405F2"/>
<path d="M8.3868 12.7762C7.03369 11.7617 5.80826 11.896 4.24371 11.896C1.90373 11.896 0 13.6278 0 15.756V22.0021C0 22.9264 0.824368 23.6779 1.83811 23.6779C6.21469 23.6779 5.68745 23.7504 5.68745 23.5052C5.68745 19.0792 5.11458 15.8334 8.3868 12.7762Z" fill="#2405F2"/>
<path d="M17.4882 11.9192C14.7555 11.7106 12.3802 11.9216 10.3314 13.4692C6.90288 15.9823 7.56268 19.366 7.56268 23.5056C7.56268 24.6008 8.53642 25.5085 9.75141 25.5085C22.9439 25.5085 23.469 25.8979 24.2513 24.3126C24.5078 23.7764 24.4375 23.9468 24.4375 18.818C24.4375 14.7443 20.583 11.9192 17.4882 11.9192Z" fill="#2405F2"/>
<path d="M27.7564 11.8968C26.1833 11.8968 24.9646 11.7639 23.6133 12.777C26.8611 15.8115 26.3126 18.8359 26.3126 23.506C26.3126 23.7528 25.8749 23.6787 30.0963 23.6787C31.1463 23.6787 32.0001 22.9003 32.0001 21.9435V15.7568C32.0001 13.6286 30.0963 11.8968 27.7564 11.8968Z" fill="#2405F2"/>
</svg>
