<svg width="34" height="32" viewBox="0 0 34 32" fill="none" xmlns="http://www.w3.org/2000/svg">
<path d="M25.866 5.31255C25.866 4.58259 25.5547 3.89542 24.9905 3.37912L22.1734 0.801179C21.6171 0.291995 20.8273 0 20.0413 0H19.8701V5.46921H25.8661L25.866 5.31255Z" fill="#2405F2"/>
<path d="M18.1911 18.8103C18.3818 18.2806 18.7145 17.7875 19.1483 17.3878L25.8927 11.2408V7.29229H18.8934C18.3429 7.29229 17.9297 6.88459 17.9297 6.38075V0H2.98828C1.34048 0 0 1.22668 0 2.73461V28.3791C0 29.8871 1.34048 31.1138 2.98828 31.1138H22.8778C24.5256 31.1138 25.8927 29.8871 25.8927 28.3791V21.576L24.798 22.5534C24.3545 22.9558 23.8351 23.2486 23.2494 23.4276L20.0822 24.3952L19.5997 24.4193C18.802 24.4193 18.0472 24.0641 17.5783 23.4694C17.1134 22.8775 16.9869 22.1101 17.2398 21.4167L18.1911 18.8103ZM4.98047 16.4076H14.9091C15.4596 16.4076 15.9052 16.8153 15.9052 17.3192C15.9052 17.823 15.4596 18.2307 14.9091 18.2307H4.98047C4.42989 18.2307 3.98438 17.823 3.98438 17.3192C3.98438 16.8153 4.42989 16.4076 4.98047 16.4076ZM3.98438 13.673C3.98438 13.1692 4.42989 12.7615 4.98047 12.7615H14.9091C15.4596 12.7615 15.9052 13.1692 15.9052 13.673C15.9052 14.1769 15.4596 14.5846 14.9091 14.5846H4.98047C4.42989 14.5846 3.98438 14.1769 3.98438 13.673ZM3.98438 20.9653C3.98438 20.4615 4.42989 20.0538 4.98047 20.0538H14.9091C15.4596 20.0538 15.9052 20.4615 15.9052 20.9653C15.9052 21.4692 15.4596 21.8769 14.9091 21.8769H4.98047C4.42989 21.8769 3.98438 21.4692 3.98438 20.9653ZM18.8934 25.523C19.444 25.523 19.8895 25.9307 19.8895 26.4345C19.8895 26.9384 19.4441 27.3461 18.8934 27.3461H12.9169C12.3663 27.3461 11.9208 26.9384 11.9208 26.4345C11.9208 25.9307 12.3663 25.523 12.9169 25.523H18.8934ZM4.98047 10.9384C4.42989 10.9384 3.98438 10.5307 3.98438 10.0269C3.98438 9.52306 4.42989 9.11536 4.98047 9.11536H18.8934C19.444 9.11536 19.8895 9.52306 19.8895 10.0269C19.8895 10.5307 19.444 10.9384 18.8934 10.9384H4.98047Z" fill="#2405F2"/>
<path d="M19.9956 19.6168L19.129 21.996C18.9991 22.3524 19.3697 22.6914 19.7592 22.5724L22.3575 21.7782L19.9956 19.6168Z" fill="#2405F2"/>
<path d="M27.7321 12.1118L21.1719 18.1151L24.0011 20.7042C25.4838 19.3471 28.3689 16.7066 30.561 14.7006L27.7321 12.1118Z" fill="#2405F2"/>
<path d="M33.4149 9.49674C33.0648 9.17449 32.5492 8.99023 32.0025 8.99023C31.4557 8.99023 30.9402 9.17449 30.5881 9.49766L29.1406 10.8222L31.9694 13.4109C32.7618 12.6857 33.3095 12.1844 33.417 12.0862C34.1951 11.373 34.195 10.2115 33.4149 9.49674Z" fill="#2405F2"/>
</svg>
