<svg width="17" height="16" viewBox="0 0 17 16" fill="none" xmlns="http://www.w3.org/2000/svg">
<path d="M8.89062 0C13.2255 0 16.7552 3.44785 16.8868 7.75082L16.8906 8C16.8906 12.3349 13.4428 15.8645 9.1398 15.9962L8.89062 16C4.47236 16 0.890625 12.4183 0.890625 8C0.890625 3.58173 4.47236 0 8.89062 0ZM8.89062 1.5C5.30077 1.5 2.39062 4.41015 2.39062 8C2.39062 11.5899 5.30077 14.5 8.89062 14.5C12.4805 14.5 15.3906 11.5899 15.3906 8C15.3906 4.41015 12.4805 1.5 8.89062 1.5ZM9.24201 5.00006C9.311 5.00144 9.37801 5.02626 9.43425 5.07125L12.7474 7.69274C12.8982 7.81 12.9359 8.0426 12.8318 8.21228C12.809 8.24939 12.7804 8.28155 12.7474 8.30719L9.43425 10.9287C9.28017 11.052 9.06645 11.0114 8.9569 10.8379C8.91691 10.7746 8.89486 10.6992 8.89363 10.6215V8.74782H5.55684C5.18886 8.74768 4.89062 8.41184 4.89062 7.99762C4.89062 7.5833 5.189 7.24742 5.55708 7.24742H8.89363V5.37853C8.89699 5.16573 9.05297 4.99628 9.24201 5.00006Z" fill="url(#paint0_linear_753_239)"/>
<defs>
<linearGradient id="paint0_linear_753_239" x1="-0.109375" y1="0.414214" x2="11.2043" y2="11.7279" gradientUnits="userSpaceOnUse">
<stop stop-color="#0838FC"/>
<stop offset="1" stop-color="#935FFF"/>
</linearGradient>
</defs>
</svg>
